<?xml version="1.0" encoding="UTF-8"?>
<!-- My Brand New Logo (1.0.87), id: XvvZ4Jq442TQyMo4MPvW (1.0.7), date: 2021-08-14 00:28 -->
<svg version="1.1" preserveAspectRatio="xMidYMid meet" xmlns="http://www.w3.org/2000/svg" xmlns:xlink="http://www.w3.org/1999/xlink" viewBox="0 0 1000 1000" width="1000" height="1000">
	<defs>
		<g id="def-1" transform="matrix(7.978, 0, 0, 7.978, 147.44, 197.438)" fill="#fff" stroke="none" stroke-width="1">
			<g transform="translate(-5.808, -12.075)">
				<g></g>
				<g transform="matrix(-1, 0, 0, 1, 100, 0)">
					<g>
						<path d=" M86.956,81.433 c-0.004,0 -0.008,0 -0.011,0 c-0.271,0 -0.494,0.217 -0.5,0.49 c-0.004,0.184 -0.145,4.5 -4.593,4.5 c-4.419,0 -4.488 -4.307 -4.489 -4.49 c-0.001 -0.274 -0.223 -0.496 -0.496 -0.499 c-0.001,0 -0.003,0 -0.004,0 c-0.271,0 -0.494,0.217 -0.5,0.489 c-0.004,0.184 -0.145,4.5 -4.593,4.5 c-4.419,0 -4.488 -4.307 -4.489 -4.49 c-0.001 -0.273 -0.222 -0.495 -0.495 -0.498 c-0.002,0 -0.003,0 -0.005,0 c-0.271,0 -0.493,0.216 -0.5,0.487 c-0.005,0.184 -0.162,4.501 -4.489,4.501 s-4.484 -4.317 -4.489 -4.5 c-0.007 -0.271 -0.229 -0.488 -0.5 -0.488 c-0.002,0 -0.004,0 -0.006,0 c-0.274,0.003 -0.494,0.226 -0.494,0.5 c0,0.182 -0.051,4.463 -4.463,4.463 c-4.393,0 -4.462 -4.282 -4.463 -4.464 c-0.001 -0.275 -0.224 -0.498 -0.498 -0.499 c-0.001,0 -0.001,0 -0.002,0 c-0.274,0 -0.497,0.22 -0.5,0.494 c-0.002,0.184 -0.099,4.495 -4.542,4.495 c-4.418,0 -4.487 -4.307 -4.488 -4.49 v0 c-0.001 -0.275 -0.225 -0.499 -0.5 -0.499 c-0.271,0 -0.492,0.216 -0.5,0.485 c0,0,0,0.001,0,0.002 c0,0.003,0,0.006,0,0.009 c0,0,0,0.001,0,0.001 c0,0.001,0,0.001,0,0.002 c0,0.183 -0.05,4.489 -4.386,4.489 c-4.327,0 -4.484 -4.317 -4.489 -4.501 c-0.007 -0.271 -0.229 -0.487 -0.5 -0.487 s-0.493,0.216 -0.5,0.487 c-0.005,0.184 -0.166,4.501 -4.697,4.501 c-1.377,0 -2.462 -0.393 -3.224 -1.168 c-1.282 -1.304 -1.265 -3.292 -1.265 -3.312 c0.005 -0.273 -0.211 -0.5 -0.484 -0.508 c-0.324 -0.014 -0.503,0.204 -0.516,0.477 c-0.008,0.184 -0.256,4.511 -4.594,4.511 c-4.316,0 -4.384 -4.307 -4.385 -4.49 c-0.001 -0.275 -0.225 -0.499 -0.5 -0.499 H6.807 c-0.275,0 -0.499,0.224 -0.499,0.5 c0,0.055,0.062,5.489,5.385,5.489 c2.985,0,4.381 -1.715,5.031 -3.224 c0.229,0.589,0.578,1.21,1.106,1.75 c0.958,0.978,2.285,1.474,3.944,1.474 c3.148,0,4.559 -1.765,5.188 -3.291 c0.608,1.526,1.968,3.291,4.998,3.291 c2.954,0,4.288 -1.673,4.891 -3.172 c0.613,1.499,1.973,3.172,4.983,3.172 c3.038,0,4.411 -1.705,5.032 -3.214 c0.604,1.5,1.955,3.188,4.973,3.188 c3.027,0,4.377 -1.7,4.979 -3.203 c0.62,1.512,1.982,3.229,4.973,3.229 c2.988,0,4.352 -1.716,4.972 -3.227 c0.604,1.513,1.959,3.227,5.007,3.227 c3.054,0,4.441 -1.724,5.071 -3.238 c0.601,1.515,1.956,3.238,5.011,3.238 c5.416,0,5.592 -5.424,5.593 -5.479 C87.451,81.667,87.231,81.438,86.956,81.433 z"></path>
						<path d=" M93.18,72.927 c-0.004,0 -0.008,0 -0.011,0 c-0.271,0 -0.494,0.217 -0.5,0.49 c-0.004,0.184 -0.145,4.499 -4.593,4.499 c-4.419,0 -4.488 -4.307 -4.489 -4.49 c-0.001 -0.274 -0.223 -0.496 -0.496 -0.499 c-0.001,0 -0.003,0 -0.004,0 c-0.271,0 -0.494,0.217 -0.5,0.489 c-0.004,0.184 -0.145,4.499 -4.593,4.499 c-4.419,0 -4.488 -4.307 -4.489 -4.49 c-0.001 -0.273 -0.222 -0.495 -0.495 -0.498 c-0.31,0.025 -0.498,0.214 -0.505,0.487 c-0.005,0.184 -0.162,4.5 -4.489,4.5 s-4.484 -4.316 -4.489 -4.5 c-0.007 -0.273 -0.241 -0.478 -0.506 -0.488 c-0.274,0.003 -0.494,0.226 -0.494,0.5 c0,0.182 -0.051,4.462 -4.463,4.462 c-4.393,0 -4.462 -4.281 -4.463 -4.463 c-0.001 -0.274 -0.223 -0.497 -0.497 -0.498 c-0.256,0.033 -0.499,0.218 -0.503,0.493 c-0.003,0.184 -0.118,4.495 -4.542,4.495 c-4.418,0 -4.487 -4.307 -4.488 -4.49 v0 c-0.001 -0.275 -0.225 -0.499 -0.5 -0.499 c-0.269,0 -0.487,0.212 -0.499,0.478 c0,0 -0.001,0 -0.001,0 c0,0,0,0.001,0,0.002 v0 c0,0,0,0,0,0.001 v0.002 c0,0,0,0,0,0 c0,0,0,0.001,0,0.001 c0,0,0,0,0,0 c0,0,0,0.001,0,0.001 c0,0,0,0,0,0 c0,0,0,0,0,0.001 c0,0,0,0.001,0,0.002 s0,0.002,0,0.003 v0 c0,0.003,0,0.004,0,0.006 c0,0.183 -0.05,4.489 -4.386,4.489 c-4.327,0 -4.484 -4.316 -4.489 -4.5 c-0.007 -0.271 -0.229 -0.488 -0.5 -0.488 h-0.001 c-0.271,0 -0.493,0.217 -0.499,0.489 c-0.004,0.184 -0.146,4.499 -4.697,4.499 c-1.377,0 -2.462 -0.393 -3.224 -1.168 c-1.282 -1.304 -1.265 -3.292 -1.265 -3.312 c0.005 -0.273 -0.211 -0.5 -0.484 -0.508 c-0.304 -0.006 -0.502,0.204 -0.516,0.477 c-0.008,0.184 -0.256,4.511 -4.594,4.511 c-4.316,0 -4.384 -4.307 -4.385 -4.49 c-0.001 -0.275 -0.225 -0.499 -0.5 -0.499 H13.03 c-0.275,0 -0.499,0.224 -0.499,0.5 c0,0.055,0.062,5.489,5.385,5.489 c2.985,0,4.381 -1.715,5.031 -3.224 c0.229,0.589,0.577,1.21,1.106,1.75 c0.958,0.978,2.285,1.474,3.944,1.474 c3.148,0,4.559 -1.764,5.188 -3.291 c0.608,1.526,1.968,3.291,4.998,3.291 c2.954,0,4.288 -1.673,4.891 -3.172 c0.613,1.499,1.973,3.172,4.983,3.172 c3.038,0,4.411 -1.705,5.032 -3.214 c0.604,1.5,1.955,3.188,4.973,3.188 c3.027,0,4.377 -1.699,4.979 -3.203 c0.62,1.512,1.982,3.229,4.973,3.229 c2.988,0,4.352 -1.716,4.972 -3.227 c0.604,1.512,1.959,3.227,5.007,3.227 c3.054,0,4.441 -1.724,5.071 -3.237 c0.601,1.515,1.956,3.237,5.011,3.237 c5.416,0,5.592 -5.424,5.593 -5.479 C93.675,73.162,93.455,72.933,93.18,72.927 z"></path>
						<path d=" M27.261,64.422 L27.261,64.422 c-0.272,0 -0.494,0.217 -0.5,0.489 c-0.004,0.184 -0.146,4.5 -4.697,4.5 c-1.377,0 -2.462 -0.393 -3.224 -1.168 c-1.283 -1.304 -1.266 -3.292 -1.266 -3.312 c0.004 -0.273 -0.211 -0.5 -0.484 -0.508 c-0.314 -0.025 -0.503,0.205 -0.516,0.477 c-0.008,0.184 -0.256,4.511 -4.593,4.511 c-4.317,0 -4.385 -4.307 -4.386 -4.49 c-0.001 -0.275 -0.225 -0.499 -0.5 -0.499 H7.095 c-0.275,0 -0.499,0.224 -0.499,0.5 c0,0.055,0.062,5.489,5.386,5.489 c2.985,0,4.381 -1.715,5.031 -3.225 c0.229,0.589,0.577,1.21,1.106,1.75 c0.958,0.978,2.285,1.474,3.944,1.474 c3.147,0,4.558 -1.765,5.188 -3.291 c0.608,1.526,1.967,3.291,4.998,3.291 c0.073,0,0.141 -0.017,0.203 -0.045 c2.063,0.155,4.812 -0.327,8.01 -0.898 c3.751 -0.669,8.002 -1.429,12.427 -1.429 c4.596,0,8.729,0.834,12.051,1.505 c2.331,0.471,4.288,0.866,5.833,0.866 c0.368,0,0.704 -0.033,1.025 -0.082 c0.077,0.048,0.162,0.083,0.26,0.083 c3.054,0,4.441 -1.724,5.072 -3.238 c0.601,1.516,1.955,3.238,5.01,3.238 c5.416,0,5.593 -5.424,5.594 -5.479 c0.006 -0.276 -0.214 -0.504 -0.489 -0.51 c-0.004,0 -0.008,0 -0.011,0 c-0.271,0 -0.494,0.217 -0.5,0.49 c-0.004,0.184 -0.146,4.5 -4.594,4.5 c-4.418,0 -4.487 -4.307 -4.488 -4.49 c-0.001 -0.274 -0.223 -0.496 -0.496 -0.499 c-0.001,0 -0.003,0 -0.004,0 c-0.271,0 -0.494,0.217 -0.5,0.489 c-0.003,0.151 -0.107,3.105 -2.632,4.14 c0.425 -0.634,0.636 -1.492,0.636 -2.605 c0 -6.384 -7.73 -11.825 -18.453 -13.073 c0.362 -1.772,0.833 -3.648,1.437 -5.302 c1.532 -4.193,4.349 -11.351,5.25 -13.632 c1.132,1.187,3.74,4.025,4.594,5.846 c1.124,2.396,1.757,4.104,1.764,4.121 c0.087,0.237,0.337,0.373,0.585,0.313 c0.246 -0.059,0.41 -0.293,0.381 -0.544 c-0.142 -1.203 -0.751 -6.368 -1.087 -8.54 c1.551,0.898,4.967,3.331,5.563,4.088 c0.036,0.067,0.073,0.136,0.109,0.204 c0.12,0.226,0.39,0.323,0.628,0.229 c0.236 -0.095,0.364 -0.354,0.295 -0.599 c-0.016 -0.057 -0.046 -0.121 -0.089 -0.19 c-1.562 -2.913 -3.17 -4.87 -4.303 -6.042 c1.891,0.525,4.254,1.286,4.904,1.895 c0.198,0.185,0.506,0.181,0.697 -0.014 c0.19 -0.193,0.192 -0.502,0.005 -0.698 c-2.503 -2.604 -3.905 -4.024 -4.7 -4.802 c2.292,0.036,4.604,0.27,5.029,0.666 c0.2,0.185,0.509,0.177,0.697 -0.016 c0.19 -0.193,0.191 -0.502,0.003 -0.697 c-3.453 -3.579 -5.313 -4.089 -6.71 -4.142 c1.174 -0.566,2.314 -1.238,2.546 -1.795 c0.057 -0.137,0.05 -0.292 -0.019 -0.423 s-0.192 -0.226 -0.337 -0.257 c-4.671 -1.02 -7.073,0.253 -8.151,1.202 c-0.459 -2.064 -1.833 -6.527 -5.201 -6.976 c-0.18 -0.021 -0.351,0.048 -0.46,0.187 c-0.108,0.139 -0.137,0.326 -0.072,0.49 c0.525,1.351,0.848,2.074,1.062,2.553 c0.068,0.153,0.122,0.273,0.165,0.376 c-0.241 -0.146 -0.518 -0.318 -0.777 -0.482 c-2.13 -1.337 -5.34 -3.354 -7.408 -2.466 c-0.155,0.068 -0.267,0.21 -0.294,0.377 c-0.028,0.167,0.031,0.338,0.157,0.452 c0.933,0.847,1.634,1.461,2.174,1.934 c0.742,0.65,1.162,1.018,1.462,1.359 c-1.573 -0.681 -4.336 -1.528 -7.428,0.262 c-0.174,0.101 -0.271,0.296 -0.245,0.495 s0.167,0.364,0.36,0.419 c2.937,0.827,4.399,1.438,5.109,1.804 c-0.762,0.164 -1.977,0.349 -2.945,0.497 c-2.856,0.437 -4.058,0.65 -4.443,1.013 c-0.141,0.133 -0.192,0.334 -0.133,0.519 c0.06,0.184,0.22,0.317,0.411,0.342 c3.538,0.458,5.655,1.146,6.727,1.585 c-2.006,0.988 -6.346,3.313 -7.099,5.271 c-0.067,0.176 -0.03,0.374,0.095,0.514 c0.126,0.14,0.317,0.196,0.501,0.149 c7.805 -2.075,10.67 -2.319,11.617 -2.284 L51.43,53.105 c-1.177,0.005 -2.352,0.064 -3.505,0.17 L30.92,31.271 c0.962 -0.38,4.146 -1.24,14.073 -1.896 c0.188 -0.013,0.352 -0.129,0.426 -0.302 c0.074 -0.172,0.046 -0.372 -0.074 -0.517 c-1.611 -1.941 -7.609 -2.9 -10.122 -3.223 c0.983 -0.88,3.126 -2.527,7.132 -4.484 c0.174 -0.085,0.282 -0.262,0.28 -0.456 c-0.003 -0.193 -0.116 -0.368 -0.292 -0.448 c-0.544 -0.25 -2.039 -0.022 -5.323,0.556 c-1.251,0.22 -2.847,0.501 -3.746,0.585 c0.591 -0.652,1.987 -1.938,5.236 -4.161 c0.166 -0.113,0.248 -0.315,0.208 -0.512 c-0.04 -0.197 -0.194 -0.351 -0.392 -0.391 c-4.398 -0.888 -7.242,1.439 -8.658,2.772 c0.189 -0.595,0.526 -1.175,1.274 -2.465 c0.428 -0.737,0.982 -1.694,1.71 -3 c0.083 -0.148,0.085 -0.329,0.005 -0.479 s-0.23 -0.249 -0.4 -0.263 c-2.625 -0.242 -5.436,3.253 -7.309,5.549 c-0.296,0.362 -0.614,0.752 -0.869,1.043 c0.002 -0.187,0.023 -0.409,0.057 -0.759 c0.058 -0.619,0.146 -1.554,0.224 -3.268 c0.009 -0.177 -0.077 -0.345 -0.226 -0.441 c-0.147 -0.097 -0.337 -0.108 -0.494 -0.03 c-3.644,1.795 -3.405,7.487 -3.13,9.878 c-1.492 -0.675 -4.691 -1.318 -9.679,1.675 c-0.127,0.076 -0.214,0.205 -0.237,0.351 c-0.022,0.146,0.021,0.295,0.118,0.407 c0.492,0.563,2.275,0.886,3.887,1.065 c-1.603,0.534 -3.582,1.543 -6.3,7.289 c-0.115,0.245 -0.016,0.538,0.226,0.66 c0.245,0.123,0.538,0.03,0.666 -0.208 c0.383 -0.706,3.236 -1.924,5.669 -2.777 c-0.573,1.119 -1.621,3.259 -3.563,7.384 c-0.115,0.245 -0.015,0.538,0.228,0.66 c0.241,0.122,0.536,0.03,0.665 -0.21 c0.532 -0.992,3.13 -2.887,5.107 -4.217 c-0.842,1.708 -1.994,4.611 -2.682,8.701 c-0.021,0.09 -0.031,0.169 -0.027,0.235 c0.013,0.255,0.217,0.458,0.472,0.473 c0.256,0.021,0.479 -0.167,0.521 -0.418 c0.013 -0.075,0.025 -0.148,0.037 -0.223 c0.356 -1.088,3.508 -5.419,4.859 -6.937 c0.413,2.437,1.747,8.747,2.053,10.188 c0.053,0.247,0.287,0.419,0.534,0.394 c0.253 -0.023,0.448 -0.231,0.455 -0.484 c0 -0.021,0.064 -2.183,0.418 -5.308 c0.276 -2.445,2.225 -6.792,3.015 -8.475 c1.768,2.091,7.797,9.238,11.168,13.441 c1.459,1.819,2.84,4.014,4.002,6.058 c-8.254,2.15 -13.556,6.876 -13.556,12.164 c0,0.503,0.071,0.939,0.177,1.342 c-0.916 -1.246 -0.978 -2.771 -0.981 -2.878 C27.754,64.639,27.532,64.422,27.261,64.422 z M51.075,54.113 l-0.783,2.225 l-1.635 -2.115 C49.457,54.162,50.263,54.124,51.075,54.113 z M42.624,55.183 c1.682,3.058,2.796,5.575,2.815,5.618 c0.082,0.188,0.266,0.299,0.458,0.299 c0.067,0,0.136 -0.014,0.201 -0.042 c0.253 -0.111,0.367 -0.406,0.257 -0.659 c-0.02 -0.046 -1.241 -2.802 -3.066 -6.076 c-0.005 -0.008 -0.008 -0.017 -0.013 -0.024 c-1.242 -2.225 -2.758 -4.684 -4.377 -6.701 c-3.969 -4.948 -11.607 -13.961 -11.684 -14.051 c-0.109 -0.128 -0.283 -0.19 -0.442 -0.173 c-0.168,0.021 -0.313,0.124 -0.388,0.275 c-0.126,0.254 -3.076,6.261 -3.442,9.497 c-0.07,0.624 -0.13,1.21 -0.179,1.75 c-0.702 -3.393 -1.405 -6.917 -1.409 -7.331 c0 -0.182 -0.119 -0.402 -0.278 -0.49 c-0.109 -0.06 -0.332 -0.133 -0.614,0.043 c-0.496,0.31 -2.628,2.935 -4.181,5.218 c1.2 -4.551,2.851 -6.918,2.87 -6.947 c0.138 -0.194,0.12 -0.459 -0.044 -0.632 c-0.161 -0.172 -0.424 -0.209 -0.628 -0.082 c-0.422,0.263 -3.044,1.912 -5.029,3.517 c2.331 -4.896,2.783 -5.641,2.848 -5.738 c0.125 -0.156,0.146 -0.375,0.047 -0.555 c-0.117 -0.209 -0.364 -0.305 -0.589 -0.234 c-0.761,0.242 -3.63,1.186 -5.602,2.232 c2.25 -4.107,3.841 -4.606,5.15 -5.017 l1.98 -0.653 c0.229 -0.076,0.371 -0.304,0.338 -0.542 c-0.032 -0.239 -0.23 -0.42 -0.472 -0.432 c-1.844 -0.088 -3.924 -0.335 -4.998 -0.624 c5.804 -3.14,8.549 -0.832,8.667 -0.729 c0.158,0.143,0.392,0.169,0.58,0.065 c0.187 -0.105,0.286 -0.318,0.246 -0.529 c-0.014 -0.073 -1.245 -6.833,1.664 -9.347 c-0.063,1.087 -0.126,1.758 -0.171,2.237 c-0.076,0.813 -0.103,1.086,0.052,1.781 c0.054,0.243,0.221,0.42,0.444,0.473 c0.518,0.122,0.908 -0.366,2.087 -1.812 c1.415 -1.733,3.654 -4.478,5.579 -5.074 c-0.497,0.879 -0.897,1.57 -1.225,2.133 c-1.144,1.971 -1.415,2.439 -1.603,3.802 c-0.021,0.154 -0.086,0.622,0.301,0.818 c0.4,0.205,0.7 -0.079,1.236 -0.597 c1.032 -0.999,3.296 -3.198,6.867 -3.009 c-3.938,2.792 -4.77,4 -4.949,4.42 c-0.064,0.168 -0.024,0.44,0.09,0.579 c0.346,0.42,1.023,0.374,5.174 -0.355 c0.78 -0.137,1.742 -0.307,2.599 -0.438 c-4.536,2.484 -5.978,4.268 -6.045,4.353 c-0.113,0.143 -0.139,0.336 -0.068,0.504 c0.071,0.168,0.229,0.284,0.41,0.303 c2.067,0.213,7.16,0.985,9.52,2.261 c-11.977,0.864 -13.637,2.035 -13.858,2.383 c-0.113,0.178 -0.103,0.408,0.026,0.574 l20.287,26.251 c0.112,0.145,0.293,0.219,0.475,0.188 c0.182 -0.029,0.332 -0.155,0.393 -0.328 l8.842 -25.132 c0.07 -0.2,0.007 -0.422 -0.158 -0.555 c-0.729 -0.591 -4.899,0.048 -11.513,1.751 c1.632 -1.599,5.251 -3.46,6.779 -4.158 c0.166 -0.076,0.277 -0.236,0.291 -0.417 c0.013 -0.182 -0.073 -0.357 -0.227 -0.456 c-0.074 -0.048 -1.609 -1.023 -5.594 -1.777 c0.599 -0.1,1.227 -0.196,1.755 -0.276 c3.589 -0.548,4.109 -0.689,4.289 -1.161 c0.066 -0.175,0.016 -0.44 -0.109 -0.58 c-0.307 -0.342 -1.361 -1.051 -4.955 -2.141 c2.652 -0.968,4.88,0.088,6.024,0.632 c0.56,0.266,0.93,0.442,1.239,0.127 c0.294 -0.301,0.098 -0.695,0.033 -0.825 c-0.525 -1.051 -0.871 -1.354 -2.327 -2.63 c-0.378 -0.331 -0.835 -0.731 -1.396 -1.233 c1.665,0.079,4.049,1.576,5.575,2.535 c1.363,0.856,1.82,1.144,2.239,0.884 c0.19 -0.12,0.289 -0.333,0.264 -0.573 c-0.065 -0.608 -0.161 -0.823 -0.445 -1.46 c-0.149 -0.337 -0.361 -0.811 -0.665 -1.559 c2.813,1.352,3.618,6.817,3.627,6.878 c0.03,0.211,0.191,0.378,0.399,0.419 c0.216,0.039,0.423 -0.057,0.53 -0.241 c0.064 -0.112,1.583 -2.588,6.838 -1.753 c-0.818,0.509 -2.299,1.204 -3.639,1.729 c-0.224,0.088 -0.354,0.323 -0.309,0.56 c0.045,0.236,0.268,0.424,0.494,0.406 l1.759 -0.013 c1.108 -0.03,2.467 -0.055,5.216,2.417 c-1.737 -0.251 -3.942 -0.245 -4.828 -0.229 c-0.238,0.004 -0.44,0.176 -0.483,0.41 c-0.036,0.201,0.053,0.4,0.219,0.509 c0.081,0.063,0.635,0.534,3.577,3.563 c-1.965 -0.697 -4.269 -1.25 -4.656 -1.341 c-0.23 -0.053 -0.469,0.062 -0.568,0.278 c-0.1,0.217 -0.032,0.473,0.16,0.613 c0.023,0.017,1.811,1.339,3.876,4.35 c-1.797 -1.323 -3.927 -2.646 -4.393 -2.756 c-0.312 -0.074 -0.496,0.065 -0.578,0.154 c-0.12,0.132 -0.16,0.374 -0.106,0.543 c0.103,0.329,0.451,2.99,0.786,5.703 c-0.127 -0.279 -0.261 -0.571 -0.402 -0.874 c-1.172 -2.498 -5.157 -6.509 -5.327 -6.678 c-0.118 -0.119 -0.289 -0.171 -0.454 -0.137 s-0.302,0.149 -0.364,0.306 c-0.037,0.093 -3.707,9.353 -5.544,14.376 c-1.856,5.08 -2.48,11.965 -2.506,12.256 c-0.024,0.275,0.179,0.518,0.454,0.542 c0.272,0.026,0.519 -0.179,0.542 -0.454 c0.004 -0.042,0.238 -2.604,0.819 -5.715 c10.25,1.17,17.646,6.207,17.646,12.09 c0,1.191 -0.263,1.985 -0.803,2.427 c-1.224,1 -4.088,0.422 -7.715 -0.31 c-3.365 -0.68 -7.553 -1.525 -12.249 -1.525 c-4.514,0 -8.811,0.767 -12.603,1.444 c-4.678,0.835 -8.372,1.493 -9.903,0.211 c-0.552 -0.461 -0.819 -1.197 -0.819 -2.248 C29.565,61.577,34.681,57.184,42.624,55.183 z"></path>
					</g>
				</g>
			</g>
		</g>
		<mask id="mask-1" x="117.184" y="167.182" width="765.632" height="665.636" maskUnits="userSpaceOnUse" stroke-width="0">
			<rect x="147.44" y="197.438" width="705.12" height="605.123" fill="#000"></rect>
			<use xlink:href="#def-1" fill="#fff" stroke="#fff"></use>
		</mask>
	</defs>
	<rect id="background-1" x="0" y="0" width="1000" height="1000" fill="#441446"></rect>
	<g mask="url(#mask-1)">
		<rect x="147.44" y="197.438" width="705.12" height="605.123" fill="#f17a82"></rect>
	</g>
</svg>
