<?xml version="1.0" encoding="UTF-8"?>
<!-- My Brand New Logo (1.0.87), id: XvvZ4Jq442TQyMo4MPvW (1.0.7), date: 2021-08-14 00:28 -->
<svg version="1.1" preserveAspectRatio="xMidYMid meet" xmlns="http://www.w3.org/2000/svg" xmlns:xlink="http://www.w3.org/1999/xlink" viewBox="0 -388.889 1000 1777.778" width="720" height="1280">
	<defs>
		<g id="def-1" transform="matrix(2.042, 0, 0, 2.042, 29.502, 422.574)" fill="#fff" stroke="none" stroke-width="1">
			<g transform="translate(-5.808, -12.075)">
				<g></g>
				<g transform="matrix(-1, 0, 0, 1, 100, 0)">
					<g>
						<path d=" M86.956,81.433 c-0.004,0 -0.008,0 -0.011,0 c-0.271,0 -0.494,0.217 -0.5,0.49 c-0.004,0.184 -0.145,4.5 -4.593,4.5 c-4.419,0 -4.488 -4.307 -4.489 -4.49 c-0.001 -0.274 -0.223 -0.496 -0.496 -0.499 c-0.001,0 -0.003,0 -0.004,0 c-0.271,0 -0.494,0.217 -0.5,0.489 c-0.004,0.184 -0.145,4.5 -4.593,4.5 c-4.419,0 -4.488 -4.307 -4.489 -4.49 c-0.001 -0.273 -0.222 -0.495 -0.495 -0.498 c-0.002,0 -0.003,0 -0.005,0 c-0.271,0 -0.493,0.216 -0.5,0.487 c-0.005,0.184 -0.162,4.501 -4.489,4.501 s-4.484 -4.317 -4.489 -4.5 c-0.007 -0.271 -0.229 -0.488 -0.5 -0.488 c-0.002,0 -0.004,0 -0.006,0 c-0.274,0.003 -0.494,0.226 -0.494,0.5 c0,0.182 -0.051,4.463 -4.463,4.463 c-4.393,0 -4.462 -4.282 -4.463 -4.464 c-0.001 -0.275 -0.224 -0.498 -0.498 -0.499 c-0.001,0 -0.001,0 -0.002,0 c-0.274,0 -0.497,0.22 -0.5,0.494 c-0.002,0.184 -0.099,4.495 -4.542,4.495 c-4.418,0 -4.487 -4.307 -4.488 -4.49 v0 c-0.001 -0.275 -0.225 -0.499 -0.5 -0.499 c-0.271,0 -0.492,0.216 -0.5,0.485 c0,0,0,0.001,0,0.002 c0,0.003,0,0.006,0,0.009 c0,0,0,0.001,0,0.001 c0,0.001,0,0.001,0,0.002 c0,0.183 -0.05,4.489 -4.386,4.489 c-4.327,0 -4.484 -4.317 -4.489 -4.501 c-0.007 -0.271 -0.229 -0.487 -0.5 -0.487 s-0.493,0.216 -0.5,0.487 c-0.005,0.184 -0.166,4.501 -4.697,4.501 c-1.377,0 -2.462 -0.393 -3.224 -1.168 c-1.282 -1.304 -1.265 -3.292 -1.265 -3.312 c0.005 -0.273 -0.211 -0.5 -0.484 -0.508 c-0.324 -0.014 -0.503,0.204 -0.516,0.477 c-0.008,0.184 -0.256,4.511 -4.594,4.511 c-4.316,0 -4.384 -4.307 -4.385 -4.49 c-0.001 -0.275 -0.225 -0.499 -0.5 -0.499 H6.807 c-0.275,0 -0.499,0.224 -0.499,0.5 c0,0.055,0.062,5.489,5.385,5.489 c2.985,0,4.381 -1.715,5.031 -3.224 c0.229,0.589,0.578,1.21,1.106,1.75 c0.958,0.978,2.285,1.474,3.944,1.474 c3.148,0,4.559 -1.765,5.188 -3.291 c0.608,1.526,1.968,3.291,4.998,3.291 c2.954,0,4.288 -1.673,4.891 -3.172 c0.613,1.499,1.973,3.172,4.983,3.172 c3.038,0,4.411 -1.705,5.032 -3.214 c0.604,1.5,1.955,3.188,4.973,3.188 c3.027,0,4.377 -1.7,4.979 -3.203 c0.62,1.512,1.982,3.229,4.973,3.229 c2.988,0,4.352 -1.716,4.972 -3.227 c0.604,1.513,1.959,3.227,5.007,3.227 c3.054,0,4.441 -1.724,5.071 -3.238 c0.601,1.515,1.956,3.238,5.011,3.238 c5.416,0,5.592 -5.424,5.593 -5.479 C87.451,81.667,87.231,81.438,86.956,81.433 z"></path>
						<path d=" M93.18,72.927 c-0.004,0 -0.008,0 -0.011,0 c-0.271,0 -0.494,0.217 -0.5,0.49 c-0.004,0.184 -0.145,4.499 -4.593,4.499 c-4.419,0 -4.488 -4.307 -4.489 -4.49 c-0.001 -0.274 -0.223 -0.496 -0.496 -0.499 c-0.001,0 -0.003,0 -0.004,0 c-0.271,0 -0.494,0.217 -0.5,0.489 c-0.004,0.184 -0.145,4.499 -4.593,4.499 c-4.419,0 -4.488 -4.307 -4.489 -4.49 c-0.001 -0.273 -0.222 -0.495 -0.495 -0.498 c-0.31,0.025 -0.498,0.214 -0.505,0.487 c-0.005,0.184 -0.162,4.5 -4.489,4.5 s-4.484 -4.316 -4.489 -4.5 c-0.007 -0.273 -0.241 -0.478 -0.506 -0.488 c-0.274,0.003 -0.494,0.226 -0.494,0.5 c0,0.182 -0.051,4.462 -4.463,4.462 c-4.393,0 -4.462 -4.281 -4.463 -4.463 c-0.001 -0.274 -0.223 -0.497 -0.497 -0.498 c-0.256,0.033 -0.499,0.218 -0.503,0.493 c-0.003,0.184 -0.118,4.495 -4.542,4.495 c-4.418,0 -4.487 -4.307 -4.488 -4.49 v0 c-0.001 -0.275 -0.225 -0.499 -0.5 -0.499 c-0.269,0 -0.487,0.212 -0.499,0.478 c0,0 -0.001,0 -0.001,0 c0,0,0,0.001,0,0.002 v0 c0,0,0,0,0,0.001 v0.002 c0,0,0,0,0,0 c0,0,0,0.001,0,0.001 c0,0,0,0,0,0 c0,0,0,0.001,0,0.001 c0,0,0,0,0,0 c0,0,0,0,0,0.001 c0,0,0,0.001,0,0.002 s0,0.002,0,0.003 v0 c0,0.003,0,0.004,0,0.006 c0,0.183 -0.05,4.489 -4.386,4.489 c-4.327,0 -4.484 -4.316 -4.489 -4.5 c-0.007 -0.271 -0.229 -0.488 -0.5 -0.488 h-0.001 c-0.271,0 -0.493,0.217 -0.499,0.489 c-0.004,0.184 -0.146,4.499 -4.697,4.499 c-1.377,0 -2.462 -0.393 -3.224 -1.168 c-1.282 -1.304 -1.265 -3.292 -1.265 -3.312 c0.005 -0.273 -0.211 -0.5 -0.484 -0.508 c-0.304 -0.006 -0.502,0.204 -0.516,0.477 c-0.008,0.184 -0.256,4.511 -4.594,4.511 c-4.316,0 -4.384 -4.307 -4.385 -4.49 c-0.001 -0.275 -0.225 -0.499 -0.5 -0.499 H13.03 c-0.275,0 -0.499,0.224 -0.499,0.5 c0,0.055,0.062,5.489,5.385,5.489 c2.985,0,4.381 -1.715,5.031 -3.224 c0.229,0.589,0.577,1.21,1.106,1.75 c0.958,0.978,2.285,1.474,3.944,1.474 c3.148,0,4.559 -1.764,5.188 -3.291 c0.608,1.526,1.968,3.291,4.998,3.291 c2.954,0,4.288 -1.673,4.891 -3.172 c0.613,1.499,1.973,3.172,4.983,3.172 c3.038,0,4.411 -1.705,5.032 -3.214 c0.604,1.5,1.955,3.188,4.973,3.188 c3.027,0,4.377 -1.699,4.979 -3.203 c0.62,1.512,1.982,3.229,4.973,3.229 c2.988,0,4.352 -1.716,4.972 -3.227 c0.604,1.512,1.959,3.227,5.007,3.227 c3.054,0,4.441 -1.724,5.071 -3.237 c0.601,1.515,1.956,3.237,5.011,3.237 c5.416,0,5.592 -5.424,5.593 -5.479 C93.675,73.162,93.455,72.933,93.18,72.927 z"></path>
						<path d=" M27.261,64.422 L27.261,64.422 c-0.272,0 -0.494,0.217 -0.5,0.489 c-0.004,0.184 -0.146,4.5 -4.697,4.5 c-1.377,0 -2.462 -0.393 -3.224 -1.168 c-1.283 -1.304 -1.266 -3.292 -1.266 -3.312 c0.004 -0.273 -0.211 -0.5 -0.484 -0.508 c-0.314 -0.025 -0.503,0.205 -0.516,0.477 c-0.008,0.184 -0.256,4.511 -4.593,4.511 c-4.317,0 -4.385 -4.307 -4.386 -4.49 c-0.001 -0.275 -0.225 -0.499 -0.5 -0.499 H7.095 c-0.275,0 -0.499,0.224 -0.499,0.5 c0,0.055,0.062,5.489,5.386,5.489 c2.985,0,4.381 -1.715,5.031 -3.225 c0.229,0.589,0.577,1.21,1.106,1.75 c0.958,0.978,2.285,1.474,3.944,1.474 c3.147,0,4.558 -1.765,5.188 -3.291 c0.608,1.526,1.967,3.291,4.998,3.291 c0.073,0,0.141 -0.017,0.203 -0.045 c2.063,0.155,4.812 -0.327,8.01 -0.898 c3.751 -0.669,8.002 -1.429,12.427 -1.429 c4.596,0,8.729,0.834,12.051,1.505 c2.331,0.471,4.288,0.866,5.833,0.866 c0.368,0,0.704 -0.033,1.025 -0.082 c0.077,0.048,0.162,0.083,0.26,0.083 c3.054,0,4.441 -1.724,5.072 -3.238 c0.601,1.516,1.955,3.238,5.01,3.238 c5.416,0,5.593 -5.424,5.594 -5.479 c0.006 -0.276 -0.214 -0.504 -0.489 -0.51 c-0.004,0 -0.008,0 -0.011,0 c-0.271,0 -0.494,0.217 -0.5,0.49 c-0.004,0.184 -0.146,4.5 -4.594,4.5 c-4.418,0 -4.487 -4.307 -4.488 -4.49 c-0.001 -0.274 -0.223 -0.496 -0.496 -0.499 c-0.001,0 -0.003,0 -0.004,0 c-0.271,0 -0.494,0.217 -0.5,0.489 c-0.003,0.151 -0.107,3.105 -2.632,4.14 c0.425 -0.634,0.636 -1.492,0.636 -2.605 c0 -6.384 -7.73 -11.825 -18.453 -13.073 c0.362 -1.772,0.833 -3.648,1.437 -5.302 c1.532 -4.193,4.349 -11.351,5.25 -13.632 c1.132,1.187,3.74,4.025,4.594,5.846 c1.124,2.396,1.757,4.104,1.764,4.121 c0.087,0.237,0.337,0.373,0.585,0.313 c0.246 -0.059,0.41 -0.293,0.381 -0.544 c-0.142 -1.203 -0.751 -6.368 -1.087 -8.54 c1.551,0.898,4.967,3.331,5.563,4.088 c0.036,0.067,0.073,0.136,0.109,0.204 c0.12,0.226,0.39,0.323,0.628,0.229 c0.236 -0.095,0.364 -0.354,0.295 -0.599 c-0.016 -0.057 -0.046 -0.121 -0.089 -0.19 c-1.562 -2.913 -3.17 -4.87 -4.303 -6.042 c1.891,0.525,4.254,1.286,4.904,1.895 c0.198,0.185,0.506,0.181,0.697 -0.014 c0.19 -0.193,0.192 -0.502,0.005 -0.698 c-2.503 -2.604 -3.905 -4.024 -4.7 -4.802 c2.292,0.036,4.604,0.27,5.029,0.666 c0.2,0.185,0.509,0.177,0.697 -0.016 c0.19 -0.193,0.191 -0.502,0.003 -0.697 c-3.453 -3.579 -5.313 -4.089 -6.71 -4.142 c1.174 -0.566,2.314 -1.238,2.546 -1.795 c0.057 -0.137,0.05 -0.292 -0.019 -0.423 s-0.192 -0.226 -0.337 -0.257 c-4.671 -1.02 -7.073,0.253 -8.151,1.202 c-0.459 -2.064 -1.833 -6.527 -5.201 -6.976 c-0.18 -0.021 -0.351,0.048 -0.46,0.187 c-0.108,0.139 -0.137,0.326 -0.072,0.49 c0.525,1.351,0.848,2.074,1.062,2.553 c0.068,0.153,0.122,0.273,0.165,0.376 c-0.241 -0.146 -0.518 -0.318 -0.777 -0.482 c-2.13 -1.337 -5.34 -3.354 -7.408 -2.466 c-0.155,0.068 -0.267,0.21 -0.294,0.377 c-0.028,0.167,0.031,0.338,0.157,0.452 c0.933,0.847,1.634,1.461,2.174,1.934 c0.742,0.65,1.162,1.018,1.462,1.359 c-1.573 -0.681 -4.336 -1.528 -7.428,0.262 c-0.174,0.101 -0.271,0.296 -0.245,0.495 s0.167,0.364,0.36,0.419 c2.937,0.827,4.399,1.438,5.109,1.804 c-0.762,0.164 -1.977,0.349 -2.945,0.497 c-2.856,0.437 -4.058,0.65 -4.443,1.013 c-0.141,0.133 -0.192,0.334 -0.133,0.519 c0.06,0.184,0.22,0.317,0.411,0.342 c3.538,0.458,5.655,1.146,6.727,1.585 c-2.006,0.988 -6.346,3.313 -7.099,5.271 c-0.067,0.176 -0.03,0.374,0.095,0.514 c0.126,0.14,0.317,0.196,0.501,0.149 c7.805 -2.075,10.67 -2.319,11.617 -2.284 L51.43,53.105 c-1.177,0.005 -2.352,0.064 -3.505,0.17 L30.92,31.271 c0.962 -0.38,4.146 -1.24,14.073 -1.896 c0.188 -0.013,0.352 -0.129,0.426 -0.302 c0.074 -0.172,0.046 -0.372 -0.074 -0.517 c-1.611 -1.941 -7.609 -2.9 -10.122 -3.223 c0.983 -0.88,3.126 -2.527,7.132 -4.484 c0.174 -0.085,0.282 -0.262,0.28 -0.456 c-0.003 -0.193 -0.116 -0.368 -0.292 -0.448 c-0.544 -0.25 -2.039 -0.022 -5.323,0.556 c-1.251,0.22 -2.847,0.501 -3.746,0.585 c0.591 -0.652,1.987 -1.938,5.236 -4.161 c0.166 -0.113,0.248 -0.315,0.208 -0.512 c-0.04 -0.197 -0.194 -0.351 -0.392 -0.391 c-4.398 -0.888 -7.242,1.439 -8.658,2.772 c0.189 -0.595,0.526 -1.175,1.274 -2.465 c0.428 -0.737,0.982 -1.694,1.71 -3 c0.083 -0.148,0.085 -0.329,0.005 -0.479 s-0.23 -0.249 -0.4 -0.263 c-2.625 -0.242 -5.436,3.253 -7.309,5.549 c-0.296,0.362 -0.614,0.752 -0.869,1.043 c0.002 -0.187,0.023 -0.409,0.057 -0.759 c0.058 -0.619,0.146 -1.554,0.224 -3.268 c0.009 -0.177 -0.077 -0.345 -0.226 -0.441 c-0.147 -0.097 -0.337 -0.108 -0.494 -0.03 c-3.644,1.795 -3.405,7.487 -3.13,9.878 c-1.492 -0.675 -4.691 -1.318 -9.679,1.675 c-0.127,0.076 -0.214,0.205 -0.237,0.351 c-0.022,0.146,0.021,0.295,0.118,0.407 c0.492,0.563,2.275,0.886,3.887,1.065 c-1.603,0.534 -3.582,1.543 -6.3,7.289 c-0.115,0.245 -0.016,0.538,0.226,0.66 c0.245,0.123,0.538,0.03,0.666 -0.208 c0.383 -0.706,3.236 -1.924,5.669 -2.777 c-0.573,1.119 -1.621,3.259 -3.563,7.384 c-0.115,0.245 -0.015,0.538,0.228,0.66 c0.241,0.122,0.536,0.03,0.665 -0.21 c0.532 -0.992,3.13 -2.887,5.107 -4.217 c-0.842,1.708 -1.994,4.611 -2.682,8.701 c-0.021,0.09 -0.031,0.169 -0.027,0.235 c0.013,0.255,0.217,0.458,0.472,0.473 c0.256,0.021,0.479 -0.167,0.521 -0.418 c0.013 -0.075,0.025 -0.148,0.037 -0.223 c0.356 -1.088,3.508 -5.419,4.859 -6.937 c0.413,2.437,1.747,8.747,2.053,10.188 c0.053,0.247,0.287,0.419,0.534,0.394 c0.253 -0.023,0.448 -0.231,0.455 -0.484 c0 -0.021,0.064 -2.183,0.418 -5.308 c0.276 -2.445,2.225 -6.792,3.015 -8.475 c1.768,2.091,7.797,9.238,11.168,13.441 c1.459,1.819,2.84,4.014,4.002,6.058 c-8.254,2.15 -13.556,6.876 -13.556,12.164 c0,0.503,0.071,0.939,0.177,1.342 c-0.916 -1.246 -0.978 -2.771 -0.981 -2.878 C27.754,64.639,27.532,64.422,27.261,64.422 z M51.075,54.113 l-0.783,2.225 l-1.635 -2.115 C49.457,54.162,50.263,54.124,51.075,54.113 z M42.624,55.183 c1.682,3.058,2.796,5.575,2.815,5.618 c0.082,0.188,0.266,0.299,0.458,0.299 c0.067,0,0.136 -0.014,0.201 -0.042 c0.253 -0.111,0.367 -0.406,0.257 -0.659 c-0.02 -0.046 -1.241 -2.802 -3.066 -6.076 c-0.005 -0.008 -0.008 -0.017 -0.013 -0.024 c-1.242 -2.225 -2.758 -4.684 -4.377 -6.701 c-3.969 -4.948 -11.607 -13.961 -11.684 -14.051 c-0.109 -0.128 -0.283 -0.19 -0.442 -0.173 c-0.168,0.021 -0.313,0.124 -0.388,0.275 c-0.126,0.254 -3.076,6.261 -3.442,9.497 c-0.07,0.624 -0.13,1.21 -0.179,1.75 c-0.702 -3.393 -1.405 -6.917 -1.409 -7.331 c0 -0.182 -0.119 -0.402 -0.278 -0.49 c-0.109 -0.06 -0.332 -0.133 -0.614,0.043 c-0.496,0.31 -2.628,2.935 -4.181,5.218 c1.2 -4.551,2.851 -6.918,2.87 -6.947 c0.138 -0.194,0.12 -0.459 -0.044 -0.632 c-0.161 -0.172 -0.424 -0.209 -0.628 -0.082 c-0.422,0.263 -3.044,1.912 -5.029,3.517 c2.331 -4.896,2.783 -5.641,2.848 -5.738 c0.125 -0.156,0.146 -0.375,0.047 -0.555 c-0.117 -0.209 -0.364 -0.305 -0.589 -0.234 c-0.761,0.242 -3.63,1.186 -5.602,2.232 c2.25 -4.107,3.841 -4.606,5.15 -5.017 l1.98 -0.653 c0.229 -0.076,0.371 -0.304,0.338 -0.542 c-0.032 -0.239 -0.23 -0.42 -0.472 -0.432 c-1.844 -0.088 -3.924 -0.335 -4.998 -0.624 c5.804 -3.14,8.549 -0.832,8.667 -0.729 c0.158,0.143,0.392,0.169,0.58,0.065 c0.187 -0.105,0.286 -0.318,0.246 -0.529 c-0.014 -0.073 -1.245 -6.833,1.664 -9.347 c-0.063,1.087 -0.126,1.758 -0.171,2.237 c-0.076,0.813 -0.103,1.086,0.052,1.781 c0.054,0.243,0.221,0.42,0.444,0.473 c0.518,0.122,0.908 -0.366,2.087 -1.812 c1.415 -1.733,3.654 -4.478,5.579 -5.074 c-0.497,0.879 -0.897,1.57 -1.225,2.133 c-1.144,1.971 -1.415,2.439 -1.603,3.802 c-0.021,0.154 -0.086,0.622,0.301,0.818 c0.4,0.205,0.7 -0.079,1.236 -0.597 c1.032 -0.999,3.296 -3.198,6.867 -3.009 c-3.938,2.792 -4.77,4 -4.949,4.42 c-0.064,0.168 -0.024,0.44,0.09,0.579 c0.346,0.42,1.023,0.374,5.174 -0.355 c0.78 -0.137,1.742 -0.307,2.599 -0.438 c-4.536,2.484 -5.978,4.268 -6.045,4.353 c-0.113,0.143 -0.139,0.336 -0.068,0.504 c0.071,0.168,0.229,0.284,0.41,0.303 c2.067,0.213,7.16,0.985,9.52,2.261 c-11.977,0.864 -13.637,2.035 -13.858,2.383 c-0.113,0.178 -0.103,0.408,0.026,0.574 l20.287,26.251 c0.112,0.145,0.293,0.219,0.475,0.188 c0.182 -0.029,0.332 -0.155,0.393 -0.328 l8.842 -25.132 c0.07 -0.2,0.007 -0.422 -0.158 -0.555 c-0.729 -0.591 -4.899,0.048 -11.513,1.751 c1.632 -1.599,5.251 -3.46,6.779 -4.158 c0.166 -0.076,0.277 -0.236,0.291 -0.417 c0.013 -0.182 -0.073 -0.357 -0.227 -0.456 c-0.074 -0.048 -1.609 -1.023 -5.594 -1.777 c0.599 -0.1,1.227 -0.196,1.755 -0.276 c3.589 -0.548,4.109 -0.689,4.289 -1.161 c0.066 -0.175,0.016 -0.44 -0.109 -0.58 c-0.307 -0.342 -1.361 -1.051 -4.955 -2.141 c2.652 -0.968,4.88,0.088,6.024,0.632 c0.56,0.266,0.93,0.442,1.239,0.127 c0.294 -0.301,0.098 -0.695,0.033 -0.825 c-0.525 -1.051 -0.871 -1.354 -2.327 -2.63 c-0.378 -0.331 -0.835 -0.731 -1.396 -1.233 c1.665,0.079,4.049,1.576,5.575,2.535 c1.363,0.856,1.82,1.144,2.239,0.884 c0.19 -0.12,0.289 -0.333,0.264 -0.573 c-0.065 -0.608 -0.161 -0.823 -0.445 -1.46 c-0.149 -0.337 -0.361 -0.811 -0.665 -1.559 c2.813,1.352,3.618,6.817,3.627,6.878 c0.03,0.211,0.191,0.378,0.399,0.419 c0.216,0.039,0.423 -0.057,0.53 -0.241 c0.064 -0.112,1.583 -2.588,6.838 -1.753 c-0.818,0.509 -2.299,1.204 -3.639,1.729 c-0.224,0.088 -0.354,0.323 -0.309,0.56 c0.045,0.236,0.268,0.424,0.494,0.406 l1.759 -0.013 c1.108 -0.03,2.467 -0.055,5.216,2.417 c-1.737 -0.251 -3.942 -0.245 -4.828 -0.229 c-0.238,0.004 -0.44,0.176 -0.483,0.41 c-0.036,0.201,0.053,0.4,0.219,0.509 c0.081,0.063,0.635,0.534,3.577,3.563 c-1.965 -0.697 -4.269 -1.25 -4.656 -1.341 c-0.23 -0.053 -0.469,0.062 -0.568,0.278 c-0.1,0.217 -0.032,0.473,0.16,0.613 c0.023,0.017,1.811,1.339,3.876,4.35 c-1.797 -1.323 -3.927 -2.646 -4.393 -2.756 c-0.312 -0.074 -0.496,0.065 -0.578,0.154 c-0.12,0.132 -0.16,0.374 -0.106,0.543 c0.103,0.329,0.451,2.99,0.786,5.703 c-0.127 -0.279 -0.261 -0.571 -0.402 -0.874 c-1.172 -2.498 -5.157 -6.509 -5.327 -6.678 c-0.118 -0.119 -0.289 -0.171 -0.454 -0.137 s-0.302,0.149 -0.364,0.306 c-0.037,0.093 -3.707,9.353 -5.544,14.376 c-1.856,5.08 -2.48,11.965 -2.506,12.256 c-0.024,0.275,0.179,0.518,0.454,0.542 c0.272,0.026,0.519 -0.179,0.542 -0.454 c0.004 -0.042,0.238 -2.604,0.819 -5.715 c10.25,1.17,17.646,6.207,17.646,12.09 c0,1.191 -0.263,1.985 -0.803,2.427 c-1.224,1 -4.088,0.422 -7.715 -0.31 c-3.365 -0.68 -7.553 -1.525 -12.249 -1.525 c-4.514,0 -8.811,0.767 -12.603,1.444 c-4.678,0.835 -8.372,1.493 -9.903,0.211 c-0.552 -0.461 -0.819 -1.197 -0.819 -2.248 C29.565,61.577,34.681,57.184,42.624,55.183 z"></path>
					</g>
				</g>
			</g>
		</g>
		<path id="def-2" d="M290.446,505.79 L287.104,493.024 L269.925,493.024 L266.584,505.79 L253.26,505.79 L272.753,443.414 L284.277,443.414 L303.898,505.79 L290.446,505.79 Z M278.493,460.294 L272.667,482.528 L284.32,482.528 L278.493,460.294 Z M360.355,443.414 L360.355,505.79 L347.759,505.79 L329.338,464.878 L329.338,505.79 L316.743,505.79 L316.743,443.414 L329.338,443.414 L347.802,484.37 L347.802,443.414 L360.355,443.414 Z M393.635,505.79 L377.484,505.79 L377.484,443.414 L393.977,443.414 Q404.902,443.414,411.392,450.355 Q417.882,457.295,418.011,469.376 L418.011,469.376 L418.011,479.486 Q418.011,491.781,411.521,498.786 Q405.03,505.79,393.635,505.79 L393.635,505.79 Z M394.663,453.91 L390.079,453.91 L390.079,495.337 L393.849,495.337 Q400.146,495.337,402.717,492.017 Q405.287,488.697,405.416,480.557 L405.416,480.557 L405.416,469.718 Q405.416,460.979,402.974,457.53 Q400.532,454.082,394.663,453.91 L394.663,453.91 Z M462.344,505.79 L452.962,482.999 L446.707,482.999 L446.707,505.79 L434.112,505.79 L434.112,443.414 L454.204,443.414 Q463.672,443.414,468.834,448.32 Q473.996,453.225,473.996,462.264 L473.996,462.264 Q473.996,474.688,464.957,479.657 L464.957,479.657 L475.881,505.19 L475.881,505.79 L462.344,505.79 Z M446.707,453.91 L446.707,472.503 L453.861,472.503 Q457.631,472.503,459.516,469.997 Q461.401,467.491,461.401,463.292 L461.401,463.292 Q461.401,453.91,454.076,453.91 L454.076,453.91 L446.707,453.91 Z M521.885,468.647 L521.885,478.801 L502.264,478.801 L502.264,495.337 L525.484,495.337 L525.484,505.79 L489.669,505.79 L489.669,443.414 L525.398,443.414 L525.398,453.91 L502.264,453.91 L502.264,468.647 L521.885,468.647 Z M572.944,443.414 L580.27,482.613 L586.182,443.414 L598.648,443.414 L587.553,505.79 L574.915,505.79 L567.632,469.033 L560.435,505.79 L547.754,505.79 L536.615,443.414 L549.168,443.414 L555.037,482.571 L562.362,443.414 L572.944,443.414 Z M639.719,443.414 L656.169,443.414 L667.95,488.525 L679.689,443.414 L696.139,443.414 L696.139,505.79 L683.501,505.79 L683.501,488.911 L684.658,462.907 L672.192,505.79 L663.623,505.79 L651.157,462.907 L652.314,488.911 L652.314,505.79 L639.719,505.79 L639.719,443.414 Z M742.957,485.012 L755.552,485.012 Q755.081,495.68,749.554,501.163 Q744.028,506.647,733.961,506.647 L733.961,506.647 Q723.379,506.647,717.745,499.685 Q712.112,492.724,712.112,479.829 L712.112,479.829 L712.112,469.333 Q712.112,456.481,717.938,449.519 Q723.765,442.558,734.132,442.558 L734.132,442.558 Q744.328,442.558,749.619,448.255 Q754.91,453.953,755.638,464.62 L755.638,464.62 L743,464.62 Q742.829,458.023,740.965,455.517 Q739.101,453.011,734.132,453.011 L734.132,453.011 Q729.077,453.011,726.978,456.545 Q724.878,460.079,724.75,468.176 L724.75,468.176 L724.75,479.957 Q724.75,489.254,726.828,492.724 Q728.905,496.194,733.961,496.194 L733.961,496.194 Q738.93,496.194,740.815,493.773 Q742.7,491.353,742.957,485.012 L742.957,485.012 Z M800.014,485.012 L812.609,485.012 Q812.137,495.68,806.611,501.163 Q801.085,506.647,791.017,506.647 L791.017,506.647 Q780.436,506.647,774.802,499.685 Q769.169,492.724,769.169,479.829 L769.169,479.829 L769.169,469.333 Q769.169,456.481,774.995,449.519 Q780.821,442.558,791.188,442.558 L791.188,442.558 Q801.385,442.558,806.675,448.255 Q811.966,453.953,812.694,464.62 L812.694,464.62 L800.056,464.62 Q799.885,458.023,798.022,455.517 Q796.158,453.011,791.188,453.011 L791.188,453.011 Q786.133,453.011,784.034,456.545 Q781.935,460.079,781.806,468.176 L781.806,468.176 L781.806,479.957 Q781.806,489.254,783.884,492.724 Q785.962,496.194,791.017,496.194 L791.017,496.194 Q795.987,496.194,797.872,493.773 Q799.757,491.353,800.014,485.012 L800.014,485.012 Z M860.497,505.79 L857.156,493.024 L839.977,493.024 L836.635,505.79 L823.312,505.79 L842.804,443.414 L854.328,443.414 L873.949,505.79 L860.497,505.79 Z M848.545,460.294 L842.719,482.528 L854.371,482.528 L848.545,460.294 Z M899.39,443.414 L899.39,495.337 L921.495,495.337 L921.495,505.79 L886.795,505.79 L886.795,443.414 L899.39,443.414 Z M948.392,443.414 L948.392,495.337 L970.498,495.337 L970.498,505.79 L935.797,505.79 L935.797,443.414 L948.392,443.414 Z"></path>
		<path id="def-3" d="M271.099,524.886 L271.099,526.781 L255.99,526.781 L255.99,536.695 L269.309,536.695 L269.309,538.59 L255.99,538.59 L255.99,550.856 L253.779,550.856 L253.779,524.886 L271.099,524.886 Z M283.768,551.172 Q280.522,551.172,278.688,549.452 Q276.854,547.733,276.854,544.065 L276.854,544.065 L276.854,531.852 L279.03,531.852 L279.03,543.96 Q279.03,546.75,280.355,547.987 Q281.68,549.224,284.084,549.224 L284.084,549.224 Q285.874,549.224,287.628,548.514 Q289.383,547.803,290.682,546.417 L290.682,546.417 L290.682,531.852 L292.858,531.852 L292.858,550.856 L291.015,550.856 L290.857,548.698 L290.699,548.698 Q289.295,549.909,287.514,550.54 Q285.733,551.172,283.768,551.172 L283.768,551.172 Z M303.983,550.856 L301.807,550.856 L301.807,522.499 L303.983,522.499 L303.983,550.856 Z M315.09,550.856 L312.914,550.856 L312.914,522.499 L315.09,522.499 L315.09,550.856 Z M329.128,551.19 Q325.864,551.19,323.197,550.382 L323.197,550.382 L323.197,548.593 Q324.794,549.049,326.206,549.242 Q327.619,549.435,329.198,549.435 L329.198,549.435 Q332.216,549.435,333.568,548.531 Q334.919,547.627,334.919,545.89 L334.919,545.89 Q334.919,544.943,334.585,544.311 Q334.252,543.679,333.454,543.267 Q332.655,542.854,331.269,542.609 L331.269,542.609 L328.181,542.082 Q325.408,541.591,324.162,540.328 Q322.916,539.064,322.916,536.976 L322.916,536.976 Q322.916,534.502,324.882,533.037 Q326.847,531.571,330.9,531.571 L330.9,531.571 Q333.568,531.571,335.989,532.256 L335.989,532.256 L335.989,534.028 Q334.638,533.66,333.445,533.493 Q332.252,533.326,330.918,533.326 L330.918,533.326 Q327.795,533.326,326.443,534.274 Q325.092,535.221,325.092,536.906 L325.092,536.906 Q325.092,538.204,325.864,539.029 Q326.636,539.854,328.584,540.205 L328.584,540.205 L331.673,540.731 Q334.515,541.223,335.796,542.407 Q337.077,543.591,337.077,545.732 L337.077,545.732 Q337.077,548.294,335.085,549.742 Q333.094,551.19,329.128,551.19 L329.128,551.19 Z M352.308,549.277 Q352.975,549.277,353.624,549.198 Q354.274,549.119,355.133,548.926 L355.133,548.926 L355.133,550.803 Q354.238,551.014,353.493,551.102 Q352.747,551.19,351.905,551.19 L351.905,551.19 Q348.676,551.19,346.956,549.566 Q345.237,547.943,345.237,544.644 L345.237,544.644 L345.237,533.712 L341.183,533.712 L341.183,531.852 L345.237,531.852 L345.588,524.886 L347.413,524.886 L347.413,531.852 L354.765,531.852 L354.765,533.712 L347.413,533.712 L347.413,544.258 Q347.413,546.908,348.641,548.092 Q349.869,549.277,352.308,549.277 L352.308,549.277 Z M367.224,531.571 Q369.803,531.571,371.488,532.203 Q373.172,532.835,374.041,534.309 Q374.909,535.783,374.909,538.31 L374.909,538.31 L374.909,550.856 L373.049,550.856 L372.874,548.61 L372.716,548.61 Q371.628,549.768,369.9,550.461 Q368.171,551.154,366.258,551.154 L366.258,551.154 Q364.293,551.154,362.889,550.531 Q361.486,549.909,360.749,548.759 Q360.012,547.61,360.012,546.048 L360.012,546.048 Q360.012,543.627,361.722,542.311 Q363.433,540.994,367.259,540.573 L367.259,540.573 L372.751,539.942 L372.751,538.24 Q372.751,536.344,372.111,535.283 Q371.47,534.221,370.242,533.8 Q369.013,533.379,367.048,533.379 L367.048,533.379 Q365.679,533.379,364.17,533.607 Q362.661,533.835,361.24,534.344 L361.24,534.344 L361.24,532.519 Q362.521,532.063,364.109,531.817 Q365.697,531.571,367.224,531.571 L367.224,531.571 Z M366.645,549.435 Q368.364,549.435,369.935,548.777 Q371.505,548.119,372.751,546.82 L372.751,546.82 L372.751,541.521 L367.346,542.153 Q364.609,542.468,363.442,543.363 Q362.275,544.258,362.275,545.89 L362.275,545.89 Q362.275,547.592,363.354,548.514 Q364.434,549.435,366.645,549.435 L366.645,549.435 Z M391.439,551.19 Q387.052,551.19,384.727,548.742 Q382.402,546.294,382.402,541.363 L382.402,541.363 Q382.402,536.432,384.885,534.002 Q387.368,531.571,392.158,531.571 L392.158,531.571 Q394.615,531.571,396.668,532.186 L396.668,532.186 L396.668,534.081 Q394.44,533.449,392.264,533.449 L392.264,533.449 Q388.421,533.449,386.543,535.335 Q384.666,537.222,384.666,541.31 L384.666,541.31 Q384.666,545.452,386.42,547.382 Q388.175,549.312,391.65,549.312 L391.65,549.312 Q393.808,549.312,396.668,548.382 L396.668,548.382 L396.668,550.26 Q394.176,551.19,391.439,551.19 L391.439,551.19 Z M420.217,550.856 L417.672,550.856 L409.759,542.082 L405.547,542.082 L405.547,550.856 L403.371,550.856 L403.371,522.499 L405.547,522.499 L405.547,540.187 L409.741,540.187 L417.128,531.852 L419.655,531.852 L411.548,541.1 L420.217,550.856 Z M464.436,548.926 L472.175,524.886 L474.351,524.886 L465.928,550.856 L463.033,550.856 L455.171,527.132 L447.31,550.856 L444.397,550.856 L435.957,524.886 L438.256,524.886 L445.959,548.873 L453.838,524.886 L456.558,524.886 L464.436,548.926 Z M494.951,541.398 L494.951,542.118 L480.826,542.118 Q480.948,545.89,482.879,547.636 Q484.809,549.382,488.547,549.382 L488.547,549.382 Q490.915,549.382,493.986,548.487 L493.986,548.487 L493.986,550.295 Q490.951,551.19,488.301,551.19 L488.301,551.19 Q483.563,551.19,481.089,548.768 Q478.615,546.346,478.615,541.363 L478.615,541.363 Q478.615,538.169,479.606,535.976 Q480.598,533.782,482.458,532.677 Q484.318,531.571,486.915,531.571 L486.915,531.571 Q490.793,531.571,492.872,534.081 Q494.951,536.59,494.951,541.398 L494.951,541.398 Z M486.897,533.239 Q481.001,533.239,480.826,540.521 L480.826,540.521 L492.846,540.521 Q492.758,536.818,491.258,535.028 Q489.757,533.239,486.897,533.239 L486.897,533.239 Z M508.902,551.19 Q505.515,551.19,502.391,550.277 L502.391,550.277 L502.391,522.499 L504.567,522.499 L504.567,534.011 L504.708,534.011 Q505.848,532.852,507.463,532.212 Q509.077,531.571,511.025,531.571 L511.025,531.571 Q513.429,531.571,515.28,532.545 Q517.131,533.519,518.193,535.625 Q519.255,537.731,519.255,540.977 L519.255,540.977 Q519.255,546.066,516.649,548.628 Q514.043,551.19,508.902,551.19 L508.902,551.19 Z M509.112,549.347 Q513.078,549.347,515.052,547.347 Q517.026,545.346,517.026,541.187 L517.026,541.187 Q517.026,537.116,515.289,535.292 Q513.552,533.467,510.551,533.467 L510.551,533.467 Q508.796,533.467,507.243,534.098 Q505.69,534.73,504.567,536.064 L504.567,536.064 L504.567,548.733 Q506.62,549.347,509.112,549.347 L509.112,549.347 Z M546.593,551.049 Q544.804,551.049,543.172,550.944 Q541.54,550.839,539.539,550.575 L539.539,550.575 L539.539,525.395 Q541.294,525.026,543.286,524.833 Q545.277,524.64,547.085,524.64 L547.085,524.64 Q554.051,524.64,557.622,527.957 Q561.193,531.273,561.193,537.871 L561.193,537.871 Q561.193,544.522,557.543,547.785 Q553.893,551.049,546.593,551.049 L546.593,551.049 Z M546.944,549.136 Q552.981,549.136,555.946,546.382 Q558.912,543.627,558.912,537.853 L558.912,537.853 Q558.912,532.115,555.946,529.334 Q552.981,526.553,547.032,526.553 L547.032,526.553 Q544.628,526.553,541.75,527.009 L541.75,527.009 L541.75,548.786 Q543.909,549.136,546.944,549.136 L546.944,549.136 Z M584.355,541.398 L584.355,542.118 L570.23,542.118 Q570.353,545.89,572.283,547.636 Q574.213,549.382,577.951,549.382 L577.951,549.382 Q580.32,549.382,583.39,548.487 L583.39,548.487 L583.39,550.295 Q580.355,551.19,577.705,551.19 L577.705,551.19 Q572.967,551.19,570.493,548.768 Q568.019,546.346,568.019,541.363 L568.019,541.363 Q568.019,538.169,569.01,535.976 Q570.002,533.782,571.862,532.677 Q573.722,531.571,576.319,531.571 L576.319,531.571 Q580.197,531.571,582.276,534.081 Q584.355,536.59,584.355,541.398 L584.355,541.398 Z M576.301,533.239 Q570.405,533.239,570.23,540.521 L570.23,540.521 L582.25,540.521 Q582.162,536.818,580.662,535.028 Q579.161,533.239,576.301,533.239 L576.301,533.239 Z M598.867,549.066 L606.36,531.852 L608.536,531.852 L600.148,550.856 L597.393,550.856 L589.023,531.852 L591.374,531.852 L598.867,549.066 Z M629.874,541.398 L629.874,542.118 L615.748,542.118 Q615.871,545.89,617.801,547.636 Q619.731,549.382,623.469,549.382 L623.469,549.382 Q625.838,549.382,628.908,548.487 L628.908,548.487 L628.908,550.295 Q625.873,551.19,623.223,551.19 L623.223,551.19 Q618.485,551.19,616.011,548.768 Q613.537,546.346,613.537,541.363 L613.537,541.363 Q613.537,538.169,614.528,535.976 Q615.52,533.782,617.38,532.677 Q619.24,531.571,621.837,531.571 L621.837,531.571 Q625.715,531.571,627.794,534.081 Q629.874,536.59,629.874,541.398 L629.874,541.398 Z M621.819,533.239 Q615.923,533.239,615.748,540.521 L615.748,540.521 L627.768,540.521 Q627.68,536.818,626.18,535.028 Q624.679,533.239,621.819,533.239 L621.819,533.239 Z M639.49,550.856 L637.314,550.856 L637.314,522.499 L639.49,522.499 L639.49,550.856 Z M656.054,551.19 Q651.948,551.19,649.606,548.75 Q647.263,546.311,647.263,541.363 L647.263,541.363 Q647.263,538.082,648.342,535.897 Q649.421,533.712,651.395,532.642 Q653.37,531.571,656.054,531.571 L656.054,531.571 Q660.213,531.571,662.538,533.984 Q664.863,536.397,664.863,541.363 L664.863,541.363 Q664.863,544.627,663.766,546.829 Q662.67,549.031,660.696,550.11 Q658.721,551.19,656.054,551.19 L656.054,551.19 Z M656.054,549.329 Q662.635,549.329,662.635,541.381 L662.635,541.381 Q662.635,537.222,660.924,535.327 Q659.213,533.432,656.054,533.432 L656.054,533.432 Q649.492,533.432,649.492,541.328 L649.492,541.328 Q649.492,549.329,656.054,549.329 L656.054,549.329 Z M672.654,558.577 L672.654,531.852 L674.514,531.852 L674.69,534.133 L674.83,534.133 Q675.953,532.923,677.567,532.247 Q679.182,531.571,681.077,531.571 L681.077,531.571 Q683.551,531.571,685.446,532.545 Q687.341,533.519,688.429,535.616 Q689.517,537.713,689.517,540.994 L689.517,540.994 Q689.517,546.066,686.894,548.628 Q684.271,551.19,679.129,551.19 L679.129,551.19 Q677.252,551.19,674.83,550.803 L674.83,550.803 L674.83,558.577 L672.654,558.577 Z M679.112,549.347 Q683.253,549.347,685.271,547.355 Q687.289,545.364,687.289,541.187 L687.289,541.187 Q687.289,533.467,680.691,533.467 L680.691,533.467 Q678.971,533.467,677.453,534.142 Q675.936,534.818,674.83,536.274 L674.83,536.274 L674.83,548.821 Q675.743,549.066,676.866,549.207 Q677.989,549.347,679.112,549.347 L679.112,549.347 Z M712.557,541.398 L712.557,542.118 L698.431,542.118 Q698.554,545.89,700.484,547.636 Q702.415,549.382,706.152,549.382 L706.152,549.382 Q708.521,549.382,711.592,548.487 L711.592,548.487 L711.592,550.295 Q708.556,551.19,705.907,551.19 L705.907,551.19 Q701.169,551.19,698.695,548.768 Q696.22,546.346,696.22,541.363 L696.22,541.363 Q696.22,538.169,697.212,535.976 Q698.203,533.782,700.063,532.677 Q701.923,531.571,704.52,531.571 L704.52,531.571 Q708.398,531.571,710.478,534.081 Q712.557,536.59,712.557,541.398 L712.557,541.398 Z M704.503,533.239 Q698.607,533.239,698.431,540.521 L698.431,540.521 L710.451,540.521 Q710.364,536.818,708.863,535.028 Q707.363,533.239,704.503,533.239 L704.503,533.239 Z M719.997,550.856 L719.997,531.852 L721.822,531.852 L722.015,534.397 L722.173,534.397 Q723.314,533.151,725.077,532.423 Q726.841,531.694,728.648,531.694 L728.648,531.694 Q729.718,531.694,730.613,531.852 L730.613,531.852 L730.613,533.888 Q729.754,533.747,728.578,533.747 L728.578,533.747 Q726.893,533.747,725.112,534.449 Q723.331,535.151,722.173,536.555 L722.173,536.555 L722.173,550.856 L719.997,550.856 Z"></path>
		<mask id="mask-1" x="21.76" y="414.832" width="195.926" height="170.336" maskUnits="userSpaceOnUse" stroke-width="0">
			<rect x="29.502" y="422.574" width="180.44" height="154.851" fill="#000"></rect>
			<use xlink:href="#def-1" fill="#fff" stroke="#fff"></use>
		</mask>
		<mask id="mask-2" x="242.994" y="432.303" width="737.758" height="84.598" maskUnits="userSpaceOnUse" stroke-width="0">
			<rect x="246.839" y="436.149" width="730.067" height="76.907" fill="#000"></rect>
			<use xlink:href="#def-2" fill="#fff" stroke="#fff"></use>
		</mask>
		<mask id="mask-3" x="247.349" y="515.809" width="489.163" height="48.667" maskUnits="userSpaceOnUse" stroke-width="0">
			<rect x="249.561" y="518.021" width="484.739" height="44.243" fill="#000"></rect>
			<use xlink:href="#def-3" fill="#fff" stroke="#fff"></use>
		</mask>
	</defs>
	<rect id="background-1" x="0" y="-388.889" width="1000" height="1777.778" fill="#441446"></rect>
	<g mask="url(#mask-1)">
		<rect x="29.502" y="422.574" width="180.44" height="154.851" fill="#f17a82"></rect>
	</g>
	<g mask="url(#mask-2)">
		<rect x="246.839" y="436.149" width="730.067" height="76.907" fill="#f8dfb5"></rect>
	</g>
	<g mask="url(#mask-3)">
		<rect x="249.561" y="518.021" width="484.739" height="44.243" fill="#f8dfb5"></rect>
	</g>
</svg>
