<svg xmlns="http://www.w3.org/2000/svg" xmlns:xlink="http://www.w3.org/1999/xlink" version="1.1" width="1200" height="600" viewBox="0 0 1200 600" xml:space="preserve">
<desc>Created with Fabric.js 3.5.0</desc>
<defs>
</defs>
<rect x="0" y="0" width="100%" height="100%" fill="#39216e"/>
<g transform="matrix(1 0 0 1 600 300)" style="" id="440807">
		
<path xml:space="preserve" font-family="Poppins" font-size="98" font-weight="bold" style="stroke: none; stroke-width: 0; stroke-dasharray: none; stroke-linecap: butt; stroke-dashoffset: 0; stroke-linejoin: miter; stroke-miterlimit: 4; is-custom-font: none; font-file-url: none; fill: rgb(234,207,19); fill-rule: nonzero; opacity: 1; white-space: pre;" d="M-383.28-38.01L-365.25-38.01L-383.18 30.79L-403.47 30.79L-414.44-14.49L-425.81 30.79L-446.10 30.79L-463.54-38.01L-445.61-38.01L-435.71 12.07L-423.46-38.01L-405.03-38.01L-393.27 12.07L-383.28-38.01ZM-305.27 2.56Q-305.27 4.91-305.56 7.46L-305.56 7.46L-343.49 7.46Q-343.10 12.56-340.21 15.25Q-337.32 17.95-333.10 17.95L-333.10 17.95Q-326.83 17.95-324.38 12.66L-324.38 12.66L-306.54 12.66Q-307.92 18.05-311.49 22.36Q-315.07 26.67-320.46 29.12Q-325.85 31.57-332.51 31.57L-332.51 31.57Q-340.55 31.57-346.82 28.14Q-353.09 24.71-356.62 18.34Q-360.15 11.97-360.15 3.44L-360.15 3.44Q-360.15-5.08-356.67-11.45Q-353.19-17.82-346.92-21.25Q-340.65-24.68-332.51-24.68L-332.51-24.68Q-324.58-24.68-318.40-21.35Q-312.23-18.02-308.75-11.84Q-305.27-5.67-305.27 2.56L-305.27 2.56ZM-343.39-1.85L-322.42-1.85Q-322.42-6.16-325.36-8.71Q-328.30-11.26-332.71-11.26L-332.71-11.26Q-336.92-11.26-339.81-8.81Q-342.71-6.36-343.39-1.85L-343.39-1.85ZM-279.69-16.16Q-277.34-19.98-272.93-22.33Q-268.52-24.68-262.84-24.68L-262.84-24.68Q-256.07-24.68-250.59-21.25Q-245.10-17.82-241.91-11.45Q-238.73-5.08-238.73 3.35L-238.73 3.35Q-238.73 11.77-241.91 18.19Q-245.10 24.61-250.59 28.09Q-256.07 31.57-262.84 31.57L-262.84 31.57Q-268.62 31.57-272.93 29.27Q-277.24 26.96-279.69 23.14L-279.69 23.14L-279.69 30.79L-296.45 30.79L-296.45-41.73L-279.69-41.73L-279.69-16.16ZM-255.78 3.35Q-255.78-2.93-259.26-6.50Q-262.74-10.08-267.83-10.08L-267.83-10.08Q-272.83-10.08-276.31-6.45Q-279.79-2.83-279.79 3.44L-279.79 3.44Q-279.79 9.72-276.31 13.34Q-272.83 16.97-267.83 16.97L-267.83 16.97Q-262.84 16.97-259.31 13.29Q-255.78 9.62-255.78 3.35L-255.78 3.35ZM-183.36-38.01Q-172.48-38.01-164.35-33.70Q-156.21-29.39-151.75-21.60Q-147.29-13.80-147.29-3.61L-147.29-3.61Q-147.29 6.48-151.75 14.32Q-156.21 22.16-164.39 26.47Q-172.58 30.79-183.36 30.79L-183.36 30.79L-209.13 30.79L-209.13-38.01L-183.36-38.01ZM-184.44 16.28Q-174.93 16.28-169.64 11.09Q-164.35 5.89-164.35-3.61L-164.35-3.61Q-164.35-13.12-169.64-18.41Q-174.93-23.70-184.44-23.70L-184.44-23.70L-192.37-23.70L-192.37 16.28L-184.44 16.28ZM-86.34 2.56Q-86.34 4.91-86.63 7.46L-86.63 7.46L-124.56 7.46Q-124.17 12.56-121.27 15.25Q-118.38 17.95-114.17 17.95L-114.17 17.95Q-107.90 17.95-105.45 12.66L-105.45 12.66L-87.61 12.66Q-88.98 18.05-92.56 22.36Q-96.14 26.67-101.53 29.12Q-106.92 31.57-113.58 31.57L-113.58 31.57Q-121.62 31.57-127.89 28.14Q-134.16 24.71-137.69 18.34Q-141.22 11.97-141.22 3.44L-141.22 3.44Q-141.22-5.08-137.74-11.45Q-134.26-17.82-127.99-21.25Q-121.72-24.68-113.58-24.68L-113.58-24.68Q-105.64-24.68-99.47-21.35Q-93.30-18.02-89.82-11.84Q-86.34-5.67-86.34 2.56L-86.34 2.56ZM-124.46-1.85L-103.49-1.85Q-103.49-6.16-106.43-8.71Q-109.37-11.26-113.78-11.26L-113.78-11.26Q-117.99-11.26-120.88-8.81Q-123.77-6.36-124.46-1.85L-124.46-1.85ZM-64.78-23.90L-52.92 15.11L-41.06-23.90L-23.23-23.90L-42.63 30.79L-63.31 30.79L-82.71-23.90L-64.78-23.90ZM35.38 2.56Q35.38 4.91 35.08 7.46L35.08 7.46L-2.84 7.46Q-2.45 12.56 0.44 15.25Q3.33 17.95 7.55 17.95L7.55 17.95Q13.82 17.95 16.27 12.66L16.27 12.66L34.10 12.66Q32.73 18.05 29.16 22.36Q25.58 26.67 20.19 29.12Q14.80 31.57 8.13 31.57L8.13 31.57Q0.10 31.57-6.17 28.14Q-12.45 24.71-15.97 18.34Q-19.50 11.97-19.50 3.44L-19.50 3.44Q-19.50-5.08-16.02-11.45Q-12.54-17.82-6.27-21.25Q0.00-24.68 8.13-24.68L8.13-24.68Q16.07-24.68 22.25-21.35Q28.42-18.02 31.90-11.84Q35.38-5.67 35.38 2.56L35.38 2.56ZM-2.74-1.85L18.23-1.85Q18.23-6.16 15.29-8.71Q12.35-11.26 7.94-11.26L7.94-11.26Q3.72-11.26 0.83-8.81Q-2.06-6.36-2.74-1.85L-2.74-1.85ZM44.20-41.73L60.96-41.73L60.96 30.79L44.20 30.79L44.20-41.73ZM98.00 31.57Q89.96 31.57 83.55 28.14Q77.13 24.71 73.45 18.34Q69.78 11.97 69.78 3.44L69.78 3.44Q69.78-4.98 73.50-11.40Q77.22-17.82 83.69-21.25Q90.16-24.68 98.20-24.68L98.20-24.68Q106.23-24.68 112.70-21.25Q119.17-17.82 122.89-11.40Q126.62-4.98 126.62 3.44L126.62 3.44Q126.62 11.87 122.84 18.29Q119.07 24.71 112.55 28.14Q106.04 31.57 98.00 31.57L98.00 31.57ZM98.00 17.07Q102.80 17.07 106.18 13.54Q109.56 10.01 109.56 3.44L109.56 3.44Q109.56-3.12 106.28-6.65Q103.00-10.18 98.20-10.18L98.20-10.18Q93.30-10.18 90.06-6.70Q86.83-3.22 86.83 3.44L86.83 3.44Q86.83 10.01 90.01 13.54Q93.20 17.07 98.00 17.07L98.00 17.07ZM152.29-16.16Q154.74-19.98 159.05-22.33Q163.37-24.68 169.15-24.68L169.15-24.68Q175.91-24.68 181.40-21.25Q186.89-17.82 190.07-11.45Q193.26-5.08 193.26 3.35L193.26 3.35Q193.26 11.77 190.07 18.19Q186.89 24.61 181.40 28.09Q175.91 31.57 169.15 31.57L169.15 31.57Q163.46 31.57 159.10 29.22Q154.74 26.87 152.29 23.14L152.29 23.14L152.29 56.85L135.53 56.85L135.53-23.90L152.29-23.90L152.29-16.16ZM176.20 3.35Q176.20-2.93 172.73-6.50Q169.25-10.08 164.15-10.08L164.15-10.08Q159.15-10.08 155.67-6.45Q152.19-2.83 152.19 3.44L152.19 3.44Q152.19 9.72 155.67 13.34Q159.15 16.97 164.15 16.97L164.15 16.97Q169.15 16.97 172.68 13.29Q176.20 9.62 176.20 3.35L176.20 3.35ZM271.85-24.49Q282.04-24.49 288.07-18.31Q294.10-12.14 294.10-1.16L294.10-1.16L294.10 30.79L277.44 30.79L277.44 1.09Q277.44-4.20 274.65-7.09Q271.85-9.98 266.95-9.98L266.95-9.98Q262.05-9.98 259.26-7.09Q256.47-4.20 256.47 1.09L256.47 1.09L256.47 30.79L239.81 30.79L239.81 1.09Q239.81-4.20 237.01-7.09Q234.22-9.98 229.32-9.98L229.32-9.98Q224.42-9.98 221.63-7.09Q218.83-4.20 218.83 1.09L218.83 1.09L218.83 30.79L202.08 30.79L202.08-23.90L218.83-23.90L218.83-17.04Q221.38-20.47 225.50-22.48Q229.61-24.49 234.81-24.49L234.81-24.49Q240.98-24.49 245.83-21.84Q250.68-19.19 253.43-14.29L253.43-14.29Q256.27-18.80 261.17-21.64Q266.07-24.49 271.85-24.49L271.85-24.49ZM357.41 2.56Q357.41 4.91 357.11 7.46L357.11 7.46L319.19 7.46Q319.58 12.56 322.47 15.25Q325.36 17.95 329.57 17.95L329.57 17.95Q335.85 17.95 338.30 12.66L338.30 12.66L356.13 12.66Q354.76 18.05 351.18 22.36Q347.61 26.67 342.22 29.12Q336.83 31.57 330.16 31.57L330.16 31.57Q322.13 31.57 315.85 28.14Q309.58 24.71 306.05 18.34Q302.53 11.97 302.53 3.44L302.53 3.44Q302.53-5.08 306.01-11.45Q309.48-17.82 315.76-21.25Q322.03-24.68 330.16-24.68L330.16-24.68Q338.10-24.68 344.27-21.35Q350.45-18.02 353.93-11.84Q357.41-5.67 357.41 2.56L357.41 2.56ZM319.28-1.85L340.26-1.85Q340.26-6.16 337.32-8.71Q334.38-11.26 329.97-11.26L329.97-11.26Q325.75-11.26 322.86-8.81Q319.97-6.36 319.28-1.85L319.28-1.85ZM399.55-24.49Q409.15-24.49 414.88-18.26Q420.62-12.04 420.62-1.16L420.62-1.16L420.62 30.79L403.96 30.79L403.96 1.09Q403.96-4.40 401.11-7.43Q398.27-10.47 393.47-10.47L393.47-10.47Q388.67-10.47 385.83-7.43Q382.98-4.40 382.98 1.09L382.98 1.09L382.98 30.79L366.23 30.79L366.23-23.90L382.98-23.90L382.98-16.65Q385.53-20.27 389.84-22.38Q394.16-24.49 399.55-24.49L399.55-24.49ZM456.78 16.58L462.76 16.58L462.76 30.79L454.23 30.79Q445.12 30.79 440.02 26.33Q434.92 21.87 434.92 11.77L434.92 11.77L434.92-9.98L428.26-9.98L428.26-23.90L434.92-23.90L434.92-37.23L451.68-37.23L451.68-23.90L462.66-23.90L462.66-9.98L451.68-9.98L451.68 11.97Q451.68 14.42 452.86 15.50Q454.03 16.58 456.78 16.58L456.78 16.58Z"/></g>
<g transform="matrix(1 0 0 1 599.745 383.245)" style="" id="672130">
		
<path xml:space="preserve" font-family="Poppins" font-size="73" font-weight="bold" style="stroke: none; stroke-width: 0; stroke-dasharray: none; stroke-linecap: butt; stroke-dashoffset: 0; stroke-linejoin: miter; stroke-miterlimit: 4; is-custom-font: none; font-file-url: none; fill: rgb(255,255,255); fill-rule: nonzero; opacity: 1; white-space: pre;" d="M-221.74-28.31L-182.10-28.31L-182.10-18.31L-195.68-18.31L-195.68 22.93L-208.16 22.93L-208.16-18.31L-221.74-18.31L-221.74-28.31ZM-163.34-11.01Q-161.15-14.37-157.86-16.31Q-154.58-18.24-150.56-18.24L-150.56-18.24L-150.56-5.03L-153.99-5.03Q-158.67-5.03-161.00-3.02Q-163.34-1.01-163.34 4.03L-163.34 4.03L-163.34 22.93L-175.82 22.93L-175.82-17.80L-163.34-17.80L-163.34-11.01ZM-106.18 1.91Q-106.18 3.66-106.40 5.56L-106.40 5.56L-134.65 5.56Q-134.36 9.35-132.20 11.36Q-130.05 13.37-126.91 13.37L-126.91 13.37Q-122.24 13.37-120.41 9.43L-120.41 9.43L-107.13 9.43Q-108.15 13.44-110.81 16.65Q-113.48 19.87-117.49 21.69Q-121.51 23.52-126.47 23.52L-126.47 23.52Q-132.46 23.52-137.13 20.96Q-141.80 18.41-144.43 13.66Q-147.06 8.92-147.06 2.57L-147.06 2.57Q-147.06-3.79-144.47-8.53Q-141.88-13.28-137.20-15.83Q-132.53-18.39-126.47-18.39L-126.47-18.39Q-120.56-18.39-115.96-15.90Q-111.36-13.42-108.77-8.82Q-106.18-4.22-106.18 1.91L-106.18 1.91ZM-134.58-1.38L-118.95-1.38Q-118.95-4.59-121.14-6.49Q-123.33-8.38-126.62-8.38L-126.62-8.38Q-129.76-8.38-131.91-6.56Q-134.06-4.73-134.58-1.38L-134.58-1.38ZM-74.79-18.24Q-67.63-18.24-63.36-13.60Q-59.09-8.97-59.09-0.87L-59.09-0.87L-59.09 22.93L-71.50 22.93L-71.50 0.81Q-71.50-3.27-73.62-5.54Q-75.74-7.80-79.31-7.80L-79.31-7.80Q-82.89-7.80-85.01-5.54Q-87.13-3.27-87.13 0.81L-87.13 0.81L-87.13 22.93L-99.61 22.93L-99.61-17.80L-87.13-17.80L-87.13-12.40Q-85.23-15.10-82.02-16.67Q-78.80-18.24-74.79-18.24L-74.79-18.24ZM-52.89 2.49Q-52.89-3.79-50.52-8.53Q-48.14-13.28-44.06-15.83Q-39.97-18.39-34.93-18.39L-34.93-18.39Q-30.92-18.39-27.59-16.71Q-24.27-15.03-22.37-12.18L-22.37-12.18L-22.37-31.09L-9.89-31.09L-9.89 22.93L-22.37 22.93L-22.37 17.09Q-24.13 20.01-27.38 21.76Q-30.62 23.52-34.93 23.52L-34.93 23.52Q-39.97 23.52-44.06 20.92Q-48.14 18.33-50.52 13.55Q-52.89 8.77-52.89 2.49L-52.89 2.49ZM-22.37 2.57Q-22.37-2.11-24.97-4.81Q-27.56-7.51-31.28-7.51L-31.28-7.51Q-35.00-7.51-37.60-4.84Q-40.19-2.18-40.19 2.49L-40.19 2.49Q-40.19 7.16-37.60 9.90Q-35.00 12.64-31.28 12.64L-31.28 12.64Q-27.56 12.64-24.97 9.94Q-22.37 7.24-22.37 2.57L-22.37 2.57ZM15.73 23.52Q10.40 23.52 6.24 21.69Q2.08 19.87-0.33 16.69Q-2.74 13.52-3.03 9.57L-3.03 9.57L9.31 9.57Q9.53 11.69 11.28 13.00Q13.03 14.32 15.59 14.32L15.59 14.32Q17.92 14.32 19.20 13.41Q20.48 12.49 20.48 11.03L20.48 11.03Q20.48 9.28 18.65 8.44Q16.83 7.60 12.74 6.58L12.74 6.58Q8.36 5.56 5.44 4.43Q2.52 3.30 0.40 0.85Q-1.72-1.60-1.72-5.76L-1.72-5.76Q-1.72-9.26 0.22-12.14Q2.15-15.03 5.91-16.71Q9.67-18.39 14.86-18.39L14.86-18.39Q22.52-18.39 26.94-14.59Q31.35-10.79 32.01-4.52L32.01-4.52L20.48-4.52Q20.18-6.63 18.61-7.87Q17.05-9.11 14.49-9.11L14.49-9.11Q12.30-9.11 11.13-8.28Q9.96-7.44 9.96-5.98L9.96-5.98Q9.96-4.22 11.83-3.35Q13.69-2.47 17.63-1.60L17.63-1.60Q22.16-0.43 25.00 0.70Q27.85 1.84 30.00 4.35Q32.16 6.87 32.23 11.11L32.23 11.11Q32.23 14.68 30.22 17.49Q28.21 20.30 24.45 21.91Q20.70 23.52 15.73 23.52L15.73 23.52ZM53.69 12.93Q56.17 10.96 55.95 11.11L55.95 11.11Q63.11 5.19 67.23 1.40Q71.36-2.40 74.20-6.56Q77.05-10.72 77.05-14.66L77.05-14.66Q77.05-17.66 75.66-19.33Q74.28-21.01 71.50-21.01L71.50-21.01Q68.73-21.01 67.16-18.93Q65.59-16.85 65.59-13.06L65.59-13.06L53.55-13.06Q53.69-19.26 56.21-23.42Q58.73-27.58 62.85-29.55Q66.98-31.53 72.01-31.53L72.01-31.53Q80.70-31.53 85.12-27.07Q89.53-22.62 89.53-15.47L89.53-15.47Q89.53-7.65 84.21-0.98Q78.88 5.70 70.63 12.06L70.63 12.06L90.34 12.06L90.34 22.20L53.69 22.20L53.69 12.93ZM95.81-4.44Q95.81-17.00 100.67-24.23Q105.52-31.45 116.33-31.45L116.33-31.45Q127.13-31.45 131.98-24.23Q136.84-17.00 136.84-4.44L136.84-4.44Q136.84 8.26 131.98 15.49Q127.13 22.71 116.33 22.71L116.33 22.71Q105.52 22.71 100.67 15.49Q95.81 8.26 95.81-4.44L95.81-4.44ZM124.57-4.44Q124.57-11.82 122.97-15.79Q121.36-19.77 116.33-19.77L116.33-19.77Q111.29-19.77 109.68-15.79Q108.08-11.82 108.08-4.44L108.08-4.44Q108.08 0.52 108.66 3.77Q109.24 7.02 111.03 9.03Q112.82 11.03 116.33 11.03L116.33 11.03Q119.83 11.03 121.62 9.03Q123.41 7.02 123.99 3.77Q124.57 0.52 124.57-4.44L124.57-4.44ZM142.97 12.93Q145.45 10.96 145.23 11.11L145.23 11.11Q152.39 5.19 156.51 1.40Q160.64-2.40 163.48-6.56Q166.33-10.72 166.33-14.66L166.33-14.66Q166.33-17.66 164.94-19.33Q163.56-21.01 160.78-21.01L160.78-21.01Q158.01-21.01 156.44-18.93Q154.87-16.85 154.87-13.06L154.87-13.06L142.82-13.06Q142.97-19.26 145.49-23.42Q148.01-27.58 152.13-29.55Q156.26-31.53 161.29-31.53L161.29-31.53Q169.98-31.53 174.40-27.07Q178.81-22.62 178.81-15.47L178.81-15.47Q178.81-7.65 173.48-0.98Q168.16 5.70 159.91 12.06L159.91 12.06L179.62 12.06L179.62 22.20L142.97 22.20L142.97 12.93ZM184.65 12.93Q187.14 10.96 186.92 11.11L186.92 11.11Q194.07 5.19 198.19 1.40Q202.32-2.40 205.17-6.56Q208.01-10.72 208.01-14.66L208.01-14.66Q208.01-17.66 206.63-19.33Q205.24-21.01 202.47-21.01L202.47-21.01Q199.69-21.01 198.12-18.93Q196.55-16.85 196.55-13.06L196.55-13.06L184.51-13.06Q184.65-19.26 187.17-23.42Q189.69-27.58 193.81-29.55Q197.94-31.53 202.98-31.53L202.98-31.53Q211.66-31.53 216.08-27.07Q220.50-22.62 220.50-15.47L220.50-15.47Q220.50-7.65 215.17-0.98Q209.84 5.70 201.59 12.06L201.59 12.06L221.30 12.06L221.30 22.20L184.65 22.20L184.65 12.93Z"/></g>
<g transform="matrix(1 0 0 1 600.2211 466.8375)" style="" id="280622">
		
<path xml:space="preserve" font-family="Poppins" font-size="25" style="stroke: none; stroke-width: 0; stroke-dasharray: none; stroke-linecap: butt; stroke-dashoffset: 0; stroke-linejoin: miter; stroke-miterlimit: 4; is-custom-font: none; font-file-url: none; fill: rgb(255,255,255); fill-rule: nonzero; opacity: 1; white-space: pre;" d="M-133.34-22.28L-123.49-22.28L-123.49-20.43L-131.06-20.43L-131.06-14.56L-124.91-14.56L-124.91-12.71L-131.06-12.71L-131.06-4.86L-133.34-4.86L-133.34-22.28ZM-114.76-4.63Q-116.69-4.63-118.25-5.51Q-119.81-6.38-120.70-8.00Q-121.59-9.61-121.59-11.73L-121.59-11.73Q-121.59-13.83-120.67-15.45Q-119.76-17.06-118.19-17.92Q-116.61-18.78-114.66-18.78L-114.66-18.78Q-112.71-18.78-111.14-17.92Q-109.56-17.06-108.65-15.46Q-107.74-13.86-107.74-11.73L-107.74-11.73Q-107.74-9.61-108.67-8.00Q-109.61-6.38-111.21-5.51Q-112.81-4.63-114.76-4.63L-114.76-4.63ZM-114.76-6.63Q-113.54-6.63-112.46-7.21Q-111.39-7.78-110.72-8.93Q-110.06-10.08-110.06-11.73L-110.06-11.73Q-110.06-13.38-110.71-14.53Q-111.36-15.68-112.41-16.25Q-113.46-16.81-114.69-16.81L-114.69-16.81Q-115.94-16.81-116.97-16.25Q-118.01-15.68-118.64-14.53Q-119.26-13.38-119.26-11.73L-119.26-11.73Q-119.26-10.06-118.65-8.91Q-118.04-7.76-117.01-7.20Q-115.99-6.63-114.76-6.63L-114.76-6.63ZM-102.46-16.33Q-101.86-17.51-100.75-18.16Q-99.64-18.81-98.04-18.81L-98.04-18.81L-98.04-16.46L-98.64-16.46Q-102.46-16.46-102.46-12.31L-102.46-12.31L-102.46-4.86L-104.74-4.86L-104.74-18.56L-102.46-18.56L-102.46-16.33ZM-89.81-22.28L-78.01-22.28L-78.01-20.43L-82.76-20.43L-82.76-4.86L-85.04-4.86L-85.04-20.43L-89.81-20.43L-89.81-22.28ZM-72.94-16.33Q-72.34-17.51-71.22-18.16Q-70.11-18.81-68.51-18.81L-68.51-18.81L-68.51-16.46L-69.11-16.46Q-72.94-16.46-72.94-12.31L-72.94-12.31L-72.94-4.86L-75.21-4.86L-75.21-18.56L-72.94-18.56L-72.94-16.33ZM-66.74-11.76Q-66.74-13.86-65.89-15.45Q-65.04-17.03-63.55-17.91Q-62.06-18.78-60.24-18.78L-60.24-18.78Q-58.44-18.78-57.11-18.01Q-55.79-17.23-55.14-16.06L-55.14-16.06L-55.14-18.56L-52.84-18.56L-52.84-4.86L-55.14-4.86L-55.14-7.41Q-55.81-6.21-57.15-5.42Q-58.49-4.63-60.26-4.63L-60.26-4.63Q-62.09-4.63-63.56-5.53Q-65.04-6.43-65.89-8.06Q-66.74-9.68-66.74-11.76L-66.74-11.76ZM-55.14-11.73Q-55.14-13.28-55.76-14.43Q-56.39-15.58-57.45-16.20Q-58.51-16.81-59.79-16.81L-59.79-16.81Q-61.06-16.81-62.11-16.21Q-63.16-15.61-63.79-14.46Q-64.41-13.31-64.41-11.76L-64.41-11.76Q-64.41-10.18-63.79-9.02Q-63.16-7.86-62.11-7.25Q-61.06-6.63-59.79-6.63L-59.79-6.63Q-58.51-6.63-57.45-7.25Q-56.39-7.86-55.76-9.02Q-55.14-10.18-55.14-11.73L-55.14-11.73ZM-48.16-18.56L-43.89-6.96L-39.64-18.56L-37.21-18.56L-42.59-4.86L-45.24-4.86L-50.61-18.56L-48.16-18.56ZM-22.46-12.23Q-22.46-11.58-22.54-10.86L-22.54-10.86L-33.49-10.86Q-33.36-8.83-32.10-7.70Q-30.84-6.56-29.04-6.56L-29.04-6.56Q-27.56-6.56-26.57-7.25Q-25.59-7.93-25.19-9.08L-25.19-9.08L-22.74-9.08Q-23.29-7.11-24.94-5.87Q-26.59-4.63-29.04-4.63L-29.04-4.63Q-30.99-4.63-32.52-5.51Q-34.06-6.38-34.94-8.00Q-35.81-9.61-35.81-11.73L-35.81-11.73Q-35.81-13.86-34.96-15.46Q-34.11-17.06-32.57-17.92Q-31.04-18.78-29.04-18.78L-29.04-18.78Q-27.09-18.78-25.59-17.93Q-24.09-17.08-23.27-15.60Q-22.46-14.11-22.46-12.23L-22.46-12.23ZM-24.81-12.71Q-24.81-14.01-25.39-14.95Q-25.96-15.88-26.95-16.37Q-27.94-16.86-29.14-16.86L-29.14-16.86Q-30.86-16.86-32.07-15.76Q-33.29-14.66-33.46-12.71L-33.46-12.71L-24.81-12.71ZM-17.19-16.33Q-16.59-17.51-15.47-18.16Q-14.36-18.81-12.76-18.81L-12.76-18.81L-12.76-16.46L-13.36-16.46Q-17.19-16.46-17.19-12.31L-17.19-12.31L-17.19-4.86L-19.46-4.86L-19.46-18.56L-17.19-18.56L-17.19-16.33ZM-5.29-4.63Q-6.86-4.63-8.11-5.17Q-9.36-5.71-10.09-6.67Q-10.81-7.63-10.89-8.88L-10.89-8.88L-8.54-8.88Q-8.44-7.86-7.57-7.21Q-6.71-6.56-5.31-6.56L-5.31-6.56Q-4.01-6.56-3.26-7.13Q-2.51-7.71-2.51-8.58L-2.51-8.58Q-2.51-9.48-3.31-9.92Q-4.11-10.36-5.79-10.78L-5.79-10.78Q-7.31-11.18-8.27-11.60Q-9.24-12.01-9.92-12.82Q-10.61-13.63-10.61-14.96L-10.61-14.96Q-10.61-16.01-9.99-16.88Q-9.36-17.76-8.21-18.27Q-7.06-18.78-5.59-18.78L-5.59-18.78Q-3.31-18.78-1.91-17.63Q-0.51-16.48-0.41-14.48L-0.41-14.48L-2.69-14.48Q-2.76-15.56-3.55-16.21Q-4.34-16.86-5.66-16.86L-5.66-16.86Q-6.89-16.86-7.61-16.33Q-8.34-15.81-8.34-14.96L-8.34-14.96Q-8.34-14.28-7.90-13.85Q-7.46-13.41-6.80-13.15Q-6.14-12.88-4.96-12.56L-4.96-12.56Q-3.49-12.16-2.56-11.77Q-1.64-11.38-0.97-10.61Q-0.31-9.83-0.29-8.58L-0.29-8.58Q-0.29-7.46-0.91-6.56Q-1.54-5.66-2.67-5.15Q-3.81-4.63-5.29-4.63L-5.29-4.63ZM15.41-12.23Q15.41-11.58 15.34-10.86L15.34-10.86L4.39-10.86Q4.51-8.83 5.78-7.70Q7.04-6.56 8.84-6.56L8.84-6.56Q10.31-6.56 11.30-7.25Q12.29-7.93 12.69-9.08L12.69-9.08L15.14-9.08Q14.59-7.11 12.94-5.87Q11.29-4.63 8.84-4.63L8.84-4.63Q6.89-4.63 5.35-5.51Q3.81-6.38 2.94-8.00Q2.06-9.61 2.06-11.73L2.06-11.73Q2.06-13.86 2.91-15.46Q3.76-17.06 5.30-17.92Q6.84-18.78 8.84-18.78L8.84-18.78Q10.79-18.78 12.29-17.93Q13.79-17.08 14.60-15.60Q15.41-14.11 15.41-12.23L15.41-12.23ZM13.06-12.71Q13.06-14.01 12.49-14.95Q11.91-15.88 10.93-16.37Q9.94-16.86 8.74-16.86L8.74-16.86Q7.01-16.86 5.80-15.76Q4.59-14.66 4.41-12.71L4.41-12.71L13.06-12.71ZM24.24-13.58Q24.24-16.13 25.39-18.17Q26.54-20.21 28.53-21.36Q30.51-22.51 32.94-22.51L32.94-22.51Q35.79-22.51 37.91-21.13Q40.04-19.76 41.01-17.23L41.01-17.23L38.29-17.23Q37.56-18.81 36.20-19.66Q34.84-20.51 32.94-20.51L32.94-20.51Q31.11-20.51 29.66-19.66Q28.21-18.81 27.39-17.25Q26.56-15.68 26.56-13.58L26.56-13.58Q26.56-11.51 27.39-9.95Q28.21-8.38 29.66-7.53Q31.11-6.68 32.94-6.68L32.94-6.68Q34.84-6.68 36.20-7.52Q37.56-8.36 38.29-9.93L38.29-9.93L41.01-9.93Q40.04-7.43 37.91-6.07Q35.79-4.71 32.94-4.71L32.94-4.71Q30.51-4.71 28.53-5.85Q26.54-6.98 25.39-9.01Q24.24-11.03 24.24-13.58L24.24-13.58ZM45.56-20.78Q44.91-20.78 44.46-21.23Q44.01-21.68 44.01-22.33L44.01-22.33Q44.01-22.98 44.46-23.43Q44.91-23.88 45.56-23.88L45.56-23.88Q46.19-23.88 46.63-23.43Q47.06-22.98 47.06-22.33L47.06-22.33Q47.06-21.68 46.63-21.23Q46.19-20.78 45.56-20.78L45.56-20.78ZM44.39-18.56L46.66-18.56L46.66-4.86L44.39-4.86L44.39-18.56ZM56.89-16.68L53.31-16.68L53.31-8.61Q53.31-7.61 53.74-7.20Q54.16-6.78 55.21-6.78L55.21-6.78L56.89-6.78L56.89-4.86L54.84-4.86Q52.94-4.86 51.99-5.73Q51.04-6.61 51.04-8.61L51.04-8.61L51.04-16.68L49.26-16.68L49.26-18.56L51.04-18.56L51.04-22.01L53.31-22.01L53.31-18.56L56.89-18.56L56.89-16.68ZM69.09-18.56L71.44-18.56L63.19 1.59L60.84 1.59L63.54-5.01L58.01-18.56L60.54-18.56L64.84-7.46L69.09-18.56ZM99.84-22.28L102.29-22.28L97.24-4.86L94.69-4.86L90.64-18.88L86.44-4.86L83.91-4.83L79.04-22.28L81.46-22.28L85.26-7.51L89.46-22.28L92.01-22.28L96.01-7.56L99.84-22.28ZM117.29-12.23Q117.29-11.58 117.21-10.86L117.21-10.86L106.26-10.86Q106.39-8.83 107.65-7.70Q108.91-6.56 110.71-6.56L110.71-6.56Q112.19-6.56 113.18-7.25Q114.16-7.93 114.56-9.08L114.56-9.08L117.01-9.08Q116.46-7.11 114.81-5.87Q113.16-4.63 110.71-4.63L110.71-4.63Q108.76-4.63 107.23-5.51Q105.69-6.38 104.81-8.00Q103.94-9.61 103.94-11.73L103.94-11.73Q103.94-13.86 104.79-15.46Q105.64-17.06 107.18-17.92Q108.71-18.78 110.71-18.78L110.71-18.78Q112.66-18.78 114.16-17.93Q115.66-17.08 116.48-15.60Q117.29-14.11 117.29-12.23L117.29-12.23ZM114.94-12.71Q114.94-14.01 114.36-14.95Q113.79-15.88 112.80-16.37Q111.81-16.86 110.61-16.86L110.61-16.86Q108.89-16.86 107.68-15.76Q106.46-14.66 106.29-12.71L106.29-12.71L114.94-12.71ZM122.56-16.01Q123.26-17.23 124.61-18.01Q125.96-18.78 127.69-18.78L127.69-18.78Q129.54-18.78 131.01-17.91Q132.49-17.03 133.34-15.45Q134.19-13.86 134.19-11.76L134.19-11.76Q134.19-9.68 133.34-8.06Q132.49-6.43 131.00-5.53Q129.51-4.63 127.69-4.63L127.69-4.63Q125.91-4.63 124.58-5.41Q123.24-6.18 122.56-7.38L122.56-7.38L122.56-4.86L120.29-4.86L120.29-23.36L122.56-23.36L122.56-16.01ZM131.86-11.76Q131.86-13.31 131.24-14.46Q130.61-15.61 129.55-16.21Q128.49-16.81 127.21-16.81L127.21-16.81Q125.96-16.81 124.90-16.20Q123.84-15.58 123.20-14.42Q122.56-13.26 122.56-11.73L122.56-11.73Q122.56-10.18 123.20-9.02Q123.84-7.86 124.90-7.25Q125.96-6.63 127.21-6.63L127.21-6.63Q128.49-6.63 129.55-7.25Q130.61-7.86 131.24-9.02Q131.86-10.18 131.86-11.76L131.86-11.76Z"/><path xml:space="preserve" font-family="Poppins" font-size="25" style="stroke: none; stroke-width: 0; stroke-dasharray: none; stroke-linecap: butt; stroke-dashoffset: 0; stroke-linejoin: miter; stroke-miterlimit: 4; is-custom-font: none; font-file-url: none; fill: rgb(255,255,255); fill-rule: nonzero; opacity: 1; white-space: pre;" d="M-76.70 3.14Q-73.85 3.14-71.76 4.20Q-69.67 5.27-68.56 7.24Q-67.45 9.22-67.45 11.89L-67.45 11.89Q-67.45 14.57-68.56 16.53Q-69.67 18.49-71.76 19.53Q-73.85 20.57-76.70 20.57L-76.70 20.57L-82.13 20.57L-82.13 3.14L-76.70 3.14ZM-76.70 18.69Q-73.32 18.69-71.55 16.90Q-69.77 15.12-69.77 11.89L-69.77 11.89Q-69.77 8.64-71.56 6.82Q-73.35 4.99-76.70 4.99L-76.70 4.99L-79.85 4.99L-79.85 18.69L-76.70 18.69ZM-51.95 13.19Q-51.95 13.84-52.02 14.57L-52.02 14.57L-62.98 14.57Q-62.85 16.59-61.59 17.73Q-60.33 18.87-58.52 18.87L-58.52 18.87Q-57.05 18.87-56.06 18.18Q-55.08 17.49-54.67 16.34L-54.67 16.34L-52.23 16.34Q-52.77 18.32-54.42 19.55Q-56.08 20.79-58.52 20.79L-58.52 20.79Q-60.48 20.79-62.01 19.92Q-63.55 19.04-64.42 17.43Q-65.30 15.82-65.30 13.69L-65.30 13.69Q-65.30 11.57-64.45 9.97Q-63.60 8.37-62.06 7.50Q-60.52 6.64-58.52 6.64L-58.52 6.64Q-56.58 6.64-55.08 7.49Q-53.58 8.34-52.76 9.83Q-51.95 11.32-51.95 13.19L-51.95 13.19ZM-54.30 12.72Q-54.30 11.42-54.88 10.48Q-55.45 9.54-56.44 9.05Q-57.42 8.57-58.63 8.57L-58.63 8.57Q-60.35 8.57-61.56 9.67Q-62.77 10.77-62.95 12.72L-62.95 12.72L-54.30 12.72ZM-48.13 6.87L-43.85 18.47L-39.60 6.87L-37.17 6.87L-42.55 20.57L-45.20 20.57L-50.58 6.87L-48.13 6.87ZM-22.43 13.19Q-22.43 13.84-22.50 14.57L-22.50 14.57L-33.45 14.57Q-33.33 16.59-32.06 17.73Q-30.80 18.87-29 18.87L-29 18.87Q-27.52 18.87-26.54 18.18Q-25.55 17.49-25.15 16.34L-25.15 16.34L-22.70 16.34Q-23.25 18.32-24.90 19.55Q-26.55 20.79-29 20.79L-29 20.79Q-30.95 20.79-32.49 19.92Q-34.02 19.04-34.90 17.43Q-35.77 15.82-35.77 13.69L-35.77 13.69Q-35.77 11.57-34.93 9.97Q-34.08 8.37-32.54 7.50Q-31 6.64-29 6.64L-29 6.64Q-27.05 6.64-25.55 7.49Q-24.05 8.34-23.24 9.83Q-22.43 11.32-22.43 13.19L-22.43 13.19ZM-24.77 12.72Q-24.77 11.42-25.35 10.48Q-25.93 9.54-26.91 9.05Q-27.90 8.57-29.10 8.57L-29.10 8.57Q-30.83 8.57-32.04 9.67Q-33.25 10.77-33.43 12.72L-33.43 12.72L-24.77 12.72ZM-19.43 2.07L-17.15 2.07L-17.15 20.57L-19.43 20.57L-19.43 2.07ZM-7.30 20.79Q-9.23 20.79-10.79 19.92Q-12.35 19.04-13.24 17.43Q-14.13 15.82-14.13 13.69L-14.13 13.69Q-14.13 11.59-13.21 9.98Q-12.30 8.37-10.73 7.50Q-9.15 6.64-7.20 6.64L-7.20 6.64Q-5.25 6.64-3.68 7.50Q-2.10 8.37-1.19 9.97Q-0.28 11.57-0.28 13.69L-0.28 13.69Q-0.28 15.82-1.21 17.43Q-2.15 19.04-3.75 19.92Q-5.35 20.79-7.30 20.79L-7.30 20.79ZM-7.30 18.79Q-6.08 18.79-5 18.22Q-3.93 17.64-3.26 16.49Q-2.60 15.34-2.60 13.69L-2.60 13.69Q-2.60 12.04-3.25 10.89Q-3.90 9.74-4.95 9.18Q-6 8.62-7.23 8.62L-7.23 8.62Q-8.48 8.62-9.51 9.18Q-10.55 9.74-11.18 10.89Q-11.80 12.04-11.80 13.69L-11.80 13.69Q-11.80 15.37-11.19 16.52Q-10.58 17.67-9.55 18.23Q-8.53 18.79-7.30 18.79L-7.30 18.79ZM5.00 9.39Q5.67 8.22 7.01 7.43Q8.35 6.64 10.13 6.64L10.13 6.64Q11.95 6.64 13.44 7.52Q14.92 8.39 15.78 9.98Q16.63 11.57 16.63 13.67L16.63 13.67Q16.63 15.74 15.78 17.37Q14.92 18.99 13.44 19.89Q11.95 20.79 10.13 20.79L10.13 20.79Q8.38 20.79 7.04 20.00Q5.70 19.22 5.00 18.04L5.00 18.04L5.00 27.07L2.72 27.07L2.72 6.87L5.00 6.87L5.00 9.39ZM14.30 13.67Q14.30 12.12 13.67 10.97Q13.05 9.82 11.99 9.22Q10.92 8.62 9.65 8.62L9.65 8.62Q8.40 8.62 7.34 9.23Q6.27 9.84 5.64 11.00Q5.00 12.17 5.00 13.69L5.00 13.69Q5.00 15.24 5.64 16.40Q6.27 17.57 7.34 18.18Q8.40 18.79 9.65 18.79L9.65 18.79Q10.92 18.79 11.99 18.18Q13.05 17.57 13.67 16.40Q14.30 15.24 14.30 13.67L14.30 13.67ZM36.10 6.62Q37.70 6.62 38.95 7.28Q40.20 7.94 40.93 9.27Q41.65 10.59 41.65 12.49L41.65 12.49L41.65 20.57L39.40 20.57L39.40 12.82Q39.40 10.77 38.39 9.68Q37.38 8.59 35.65 8.59L35.65 8.59Q33.88 8.59 32.83 9.73Q31.78 10.87 31.78 13.02L31.78 13.02L31.78 20.57L29.53 20.57L29.53 12.82Q29.53 10.77 28.51 9.68Q27.50 8.59 25.78 8.59L25.78 8.59Q24.00 8.59 22.95 9.73Q21.90 10.87 21.90 13.02L21.90 13.02L21.90 20.57L19.63 20.57L19.63 6.87L21.90 6.87L21.90 8.84Q22.58 7.77 23.71 7.19Q24.85 6.62 26.23 6.62L26.23 6.62Q27.95 6.62 29.28 7.39Q30.60 8.17 31.25 9.67L31.25 9.67Q31.83 8.22 33.15 7.42Q34.48 6.62 36.10 6.62L36.10 6.62ZM57.88 13.19Q57.88 13.84 57.80 14.57L57.80 14.57L46.85 14.57Q46.98 16.59 48.24 17.73Q49.50 18.87 51.30 18.87L51.30 18.87Q52.78 18.87 53.76 18.18Q54.75 17.49 55.15 16.34L55.15 16.34L57.60 16.34Q57.05 18.32 55.40 19.55Q53.75 20.79 51.30 20.79L51.30 20.79Q49.35 20.79 47.81 19.92Q46.28 19.04 45.40 17.43Q44.53 15.82 44.53 13.69L44.53 13.69Q44.53 11.57 45.38 9.97Q46.23 8.37 47.76 7.50Q49.30 6.64 51.30 6.64L51.30 6.64Q53.25 6.64 54.75 7.49Q56.25 8.34 57.06 9.83Q57.88 11.32 57.88 13.19L57.88 13.19ZM55.53 12.72Q55.53 11.42 54.95 10.48Q54.38 9.54 53.39 9.05Q52.40 8.57 51.20 8.57L51.20 8.57Q49.48 8.57 48.26 9.67Q47.05 10.77 46.88 12.72L46.88 12.72L55.53 12.72ZM67.55 6.62Q70.05 6.62 71.60 8.13Q73.15 9.64 73.15 12.49L73.15 12.49L73.15 20.57L70.90 20.57L70.90 12.82Q70.90 10.77 69.88 9.68Q68.85 8.59 67.08 8.59L67.08 8.59Q65.28 8.59 64.21 9.72Q63.15 10.84 63.15 12.99L63.15 12.99L63.15 20.57L60.88 20.57L60.88 6.87L63.15 6.87L63.15 8.82Q63.83 7.77 64.99 7.19Q66.15 6.62 67.55 6.62L67.55 6.62ZM83.23 8.74L79.65 8.74L79.65 16.82Q79.65 17.82 80.08 18.23Q80.50 18.64 81.55 18.64L81.55 18.64L83.23 18.64L83.23 20.57L81.17 20.57Q79.28 20.57 78.33 19.69Q77.38 18.82 77.38 16.82L77.38 16.82L77.38 8.74L75.60 8.74L75.60 6.87L77.38 6.87L77.38 3.42L79.65 3.42L79.65 6.87L83.23 6.87L83.23 8.74Z"/></g>
<g transform="matrix(1 0 0 1 599.559 122.4803)" id="693671">
<g style="">
		<g transform="matrix(0.6136 0 0 0.6136 -504.6741 -11.0842)" id="93053">
<line style="stroke: none; stroke-width: 1; stroke-dasharray: none; stroke-linecap: butt; stroke-dashoffset: 0; stroke-linejoin: miter; stroke-miterlimit: 4; is-custom-font: none; font-file-url: none; fill: rgb(245,245,245); fill-rule: nonzero; opacity: 1;" x1="50.1" y1="-51.10499999999999" x2="-50.1" y2="51.10499999999999"/>
</g>
		<g transform="matrix(0.6136 0 0 0.6136 -504.6742 -11.1059)" id="694839">
<path style="stroke: none; stroke-width: 1; stroke-dasharray: none; stroke-linecap: butt; stroke-dashoffset: 0; stroke-linejoin: miter; stroke-miterlimit: 4; is-custom-font: none; font-file-url: none; fill: rgb(0,235,234); fill-rule: nonzero; opacity: 1;" transform=" translate(-138.2098, -243.8896)" d="M 88.11 302 a 7 7 0 0 1 -5 -11.9 l 100.2 -102.22 a 7 7 0 0 1 10 9.8 L 93.11 299.93 A 7 7 0 0 1 88.11 302 Z" stroke-linecap="round"/>
</g>
		<g transform="matrix(0.6136 0 0 0.6136 -420.5375 -96.9144)" id="486334">
<line style="stroke: none; stroke-width: 1; stroke-dasharray: none; stroke-linecap: butt; stroke-dashoffset: 0; stroke-linejoin: miter; stroke-miterlimit: 4; is-custom-font: none; font-file-url: none; fill: rgb(245,245,245); fill-rule: nonzero; opacity: 1;" x1="36.27000000000001" y1="-37.005" x2="-36.27000000000001" y2="37.005"/>
</g>
		<g transform="matrix(0.6136 0 0 0.6136 -420.5408 -96.9116)" id="645503">
<path style="stroke: none; stroke-width: 1; stroke-dasharray: none; stroke-linecap: butt; stroke-dashoffset: 0; stroke-linejoin: miter; stroke-miterlimit: 4; is-custom-font: none; font-file-url: none; fill: rgb(0,235,234); fill-rule: nonzero; opacity: 1;" transform=" translate(-275.3248, -104.0496)" d="M 239.05 148.05 a 7 7 0 0 1 -5 -11.9 l 72.55 -74 a 7 7 0 0 1 10 9.8 l -72.55 74 A 7 7 0 0 1 239.05 148.05 Z" stroke-linecap="round"/>
</g>
		<g transform="matrix(0.6136 0 0 0.6136 185.5874 -18.9724)" id="525289">
<path style="stroke: none; stroke-width: 1; stroke-dasharray: none; stroke-linecap: butt; stroke-dashoffset: 0; stroke-linejoin: miter; stroke-miterlimit: 4; is-custom-font: none; font-file-url: none; fill: rgb(246,2,97); fill-rule: nonzero; opacity: 1;" transform=" translate(-1263.1496, -231.0693)" d="M 1214.1 289.1 a 8 8 0 0 1 -5.71 -13.6 l 98.09 -100.06 a 8 8 0 1 1 11.43 11.2 L 1219.82 286.7 A 8 8 0 0 1 1214.1 289.1 Z" stroke-linecap="round"/>
</g>
		<g transform="matrix(0.6136 0 0 0.6136 168.2532 -89.886)" id="627232">
<path style="stroke: none; stroke-width: 1; stroke-dasharray: none; stroke-linecap: butt; stroke-dashoffset: 0; stroke-linejoin: miter; stroke-miterlimit: 4; is-custom-font: none; font-file-url: none; fill: rgb(253,203,1); fill-rule: nonzero; opacity: 1;" transform=" translate(-1234.8996, -115.4993)" d="M 1170.7 189 a 8 8 0 0 1 -5.71 -13.6 l 128.39 -131 a 8 8 0 1 1 11.43 11.2 l -128.39 131 A 8 8 0 0 1 1170.7 189 Z" stroke-linecap="round"/>
</g>
		<g transform="matrix(0.6136 0 0 0.6136 279.5315 -11.0064)" id="267556">
<path style="stroke: none; stroke-width: 1; stroke-dasharray: none; stroke-linecap: butt; stroke-dashoffset: 0; stroke-linejoin: miter; stroke-miterlimit: 4; is-custom-font: none; font-file-url: none; fill: rgb(255,255,255); fill-rule: nonzero; opacity: 1;" transform=" translate(-1416.9696, -244.0393)" d="M 1357 313.21 a 8 8 0 0 1 -5.71 -13.6 l 119.93 -122.34 a 8 8 0 1 1 11.43 11.2 L 1362.67 310.81 A 8 8 0 0 1 1357 313.21 Z" stroke-linecap="round"/>
</g>
		<g transform="matrix(0.6136 0 0 0.6136 467.9226 -59.8134)" id="384">
<path style="stroke: none; stroke-width: 1; stroke-dasharray: none; stroke-linecap: butt; stroke-dashoffset: 0; stroke-linejoin: miter; stroke-miterlimit: 4; is-custom-font: none; font-file-url: none; fill: rgb(0,235,234); fill-rule: nonzero; opacity: 1;" transform=" translate(-1723.2796, -164.5093)" d="M 1611.53 286.51 a 8 8 0 0 1 -5.71 -13.6 l 223.49 -228 a 8 8 0 1 1 11.43 11.2 l -223.49 228 A 8 8 0 0 1 1611.53 286.51 Z" stroke-linecap="round"/>
</g>
		<g transform="matrix(0.6136 0 0 0.6136 -544.0674 121.5049)" id="916703">
<path style="stroke: none; stroke-width: 1; stroke-dasharray: none; stroke-linecap: butt; stroke-dashoffset: 0; stroke-linejoin: miter; stroke-miterlimit: 4; is-custom-font: none; font-file-url: none; fill: rgb(253,203,1); fill-rule: nonzero; opacity: 1;" transform=" translate(-74.0096, -460.0093)" d="M 26.47 516.51 a 8 8 0 0 1 -5.71 -13.6 l 95.07 -97 a 8 8 0 0 1 11.43 11.2 l -95.07 97 A 8 8 0 0 1 26.47 516.51 Z" stroke-linecap="round"/>
</g>
		<g transform="matrix(0.6136 0 0 0.6136 -458.0869 33.7971)" id="443254">
<path style="stroke: none; stroke-width: 1; stroke-dasharray: none; stroke-linecap: butt; stroke-dashoffset: 0; stroke-linejoin: miter; stroke-miterlimit: 4; is-custom-font: none; font-file-url: none; fill: rgb(253,203,1); fill-rule: nonzero; opacity: 1;" transform=" translate(-214.1346, -317.0693)" d="M 178.3 361.62 a 8 8 0 0 1 -5.71 -13.6 l 71.66 -73.1 a 8 8 0 1 1 11.43 11.2 L 184 359.22 A 8 8 0 0 1 178.3 361.62 Z" stroke-linecap="round"/>
</g>
		<g transform="matrix(0.6136 0 0 0.6136 538.1059 -19.7516)" id="272665">
<path style="stroke: none; stroke-width: 1; stroke-dasharray: none; stroke-linecap: butt; stroke-dashoffset: 0; stroke-linejoin: miter; stroke-miterlimit: 4; is-custom-font: none; font-file-url: none; fill: rgb(253,203,1); fill-rule: nonzero; opacity: 1;" transform=" translate(-1837.6596, -229.7994)" d="M 1773.71 303 a 8 8 0 0 1 -5.71 -13.6 L 1895.89 159 a 8 8 0 1 1 11.43 11.2 L 1779.43 300.63 A 8 8 0 0 1 1773.71 303 Z" stroke-linecap="round"/>
</g>
		<g transform="matrix(0.6136 0 0 0.6136 -534.1669 -97.5803)" id="646839">
<path style="stroke: none; stroke-width: 1; stroke-dasharray: none; stroke-linecap: butt; stroke-dashoffset: 0; stroke-linejoin: miter; stroke-miterlimit: 4; is-custom-font: none; font-file-url: none; fill: rgb(246,2,97); fill-rule: nonzero; opacity: 1;" transform=" translate(-90.1448, -102.9596)" d="M 18.78 182.76 a 7 7 0 0 1 -5 -11.9 L 156.51 25.26 a 7 7 0 0 1 10 9.8 L 23.78 180.66 A 7 7 0 0 1 18.78 182.76 Z" stroke-linecap="round"/>
</g>
		<g transform="matrix(0.6136 0 0 0.6136 541.3979 86.8489)" id="687694">
<path style="stroke: none; stroke-width: 1; stroke-dasharray: none; stroke-linecap: butt; stroke-dashoffset: 0; stroke-linejoin: miter; stroke-miterlimit: 4; is-custom-font: none; font-file-url: none; fill: rgb(255,255,255); fill-rule: nonzero; opacity: 1;" transform=" translate(-1843.0246, -403.5293)" d="M 1791.84 463.74 a 8 8 0 0 1 -5.71 -13.6 l 102.36 -104.42 a 8 8 0 1 1 11.43 11.2 L 1797.55 461.34 A 8 8 0 0 1 1791.84 463.74 Z" stroke-linecap="round"/>
</g>
		<g transform="matrix(0.6136 0 0 0.6136 -506.7405 24.7741)" id="834950">
<path style="stroke: none; stroke-width: 1; stroke-dasharray: none; stroke-linecap: butt; stroke-dashoffset: 0; stroke-linejoin: miter; stroke-miterlimit: 4; is-custom-font: none; font-file-url: none; fill: rgb(253,203,1); fill-rule: nonzero; opacity: 1;" transform=" translate(-134.8423, -302.3642)" d="M 23.09 424.36 a 8 8 0 0 1 -5.71 -13.6 l 223.49 -228 A 8 8 0 1 1 252.29 194 L 28.8 422 A 8 8 0 0 1 23.09 424.36 Z" stroke-linecap="round"/>
</g>
		<g transform="matrix(0.6136 0 0 0.6136 311.3037 -75.5899)" id="628927">
<path style="stroke: none; stroke-width: 1; stroke-dasharray: none; stroke-linecap: butt; stroke-dashoffset: 0; stroke-linejoin: miter; stroke-miterlimit: 4; is-custom-font: none; font-file-url: none; fill: rgb(0,235,234); fill-rule: nonzero; opacity: 1;" transform=" translate(-1464.3696, -140.9993)" d="M 1352.62 263 a 8 8 0 0 1 -5.71 -13.6 l 223.49 -228 a 8 8 0 1 1 11.43 11.2 l -223.49 228 A 8 8 0 0 1 1352.62 263 Z" stroke-linecap="round"/>
</g>
		<g transform="matrix(0.6136 0 0 0.6136 318.8026 -129.6288)" id="819016">
<path style="stroke: none; stroke-width: 1; stroke-dasharray: none; stroke-linecap: butt; stroke-dashoffset: 0; stroke-linejoin: miter; stroke-miterlimit: 4; is-custom-font: none; font-file-url: none; fill: rgb(253,203,1); fill-rule: nonzero; opacity: 1;" transform=" translate(-1480.2546, -50.7293)" d="M 1454.25 85.23 a 8 8 0 0 1 -5.71 -13.6 l 52 -53 a 8 8 0 1 1 11.43 11.2 l -52 53 A 8 8 0 0 1 1454.25 85.23 Z" stroke-linecap="round"/>
</g>
		<g transform="matrix(0.6136 0 0 0.6136 -217.2647 -77.0019)" id="108336">
<path style="stroke: none; stroke-width: 1; stroke-dasharray: none; stroke-linecap: butt; stroke-dashoffset: 0; stroke-linejoin: miter; stroke-miterlimit: 4; is-custom-font: none; font-file-url: none; fill: rgb(0,235,234); fill-rule: nonzero; opacity: 1;" transform=" translate(-601.8546, -132.4793)" d="M 557.85 185.36 a 8 8 0 0 1 -5.71 -13.6 l 88 -89.76 a 8 8 0 0 1 11.43 11.2 l -88 89.76 A 8 8 0 0 1 557.85 185.36 Z" stroke-linecap="round"/>
</g>
		<g transform="matrix(0.6136 0 0 0.6136 -212.9052 -17.96)" id="960455">
<path style="stroke: none; stroke-width: 1; stroke-dasharray: none; stroke-linecap: butt; stroke-dashoffset: 0; stroke-linejoin: miter; stroke-miterlimit: 4; is-custom-font: none; font-file-url: none; fill: rgb(255,255,255); fill-rule: nonzero; opacity: 1;" transform=" translate(-613.7146, -232.7193)" d="M 557.85 297.72 a 8 8 0 0 1 -5.71 -13.6 l 111.72 -114 a 8 8 0 1 1 11.43 11.2 l -111.72 114 A 8 8 0 0 1 557.85 297.72 Z" stroke-linecap="round"/>
</g>
		<g transform="matrix(0.6136 0 0 0.6136 86.2581 -68.8579)" id="503916">
<path style="stroke: none; stroke-width: 1; stroke-dasharray: none; stroke-linecap: butt; stroke-dashoffset: 0; stroke-linejoin: miter; stroke-miterlimit: 4; is-custom-font: none; font-file-url: none; fill: rgb(253,203,1); fill-rule: nonzero; opacity: 1;" transform=" translate(-1101.2696, -149.7693)" d="M 989.52 271.77 a 8 8 0 0 1 -5.71 -13.6 l 223.49 -228 a 8 8 0 1 1 11.43 11.2 l -223.49 228 A 8 8 0 0 1 989.52 271.77 Z" stroke-linecap="round"/>
</g>
		<g transform="matrix(0.6136 0 0 0.6136 -365.0559 -59.804)" id="648376">
<line style="stroke: none; stroke-width: 1; stroke-dasharray: none; stroke-linecap: butt; stroke-dashoffset: 0; stroke-linejoin: miter; stroke-miterlimit: 4; is-custom-font: none; font-file-url: none; fill: rgb(245,245,245); fill-rule: nonzero; opacity: 1;" x1="31.410000000000025" y1="-32.045" x2="-31.410000000000025" y2="32.045"/>
</g>
		<g transform="matrix(0.6136 0 0 0.6136 -365.0591 -59.8042)" id="19198">
<path style="stroke: none; stroke-width: 1; stroke-dasharray: none; stroke-linecap: butt; stroke-dashoffset: 0; stroke-linejoin: miter; stroke-miterlimit: 4; is-custom-font: none; font-file-url: none; fill: rgb(0,235,234); fill-rule: nonzero; opacity: 1;" transform=" translate(-365.7448, -164.5246)" d="M 334.33 203.57 a 7 7 0 0 1 -5 -11.9 l 62.83 -64.09 a 7 7 0 1 1 10 9.8 l -62.83 64.09 A 7 7 0 0 1 334.33 203.57 Z" stroke-linecap="round"/>
</g>
		<g transform="matrix(0.6136 0 0 0.6136 -352.5235 -122.8762)" id="793342">
<path style="stroke: none; stroke-width: 1; stroke-dasharray: none; stroke-linecap: butt; stroke-dashoffset: 0; stroke-linejoin: miter; stroke-miterlimit: 4; is-custom-font: none; font-file-url: none; fill: rgb(246,2,97); fill-rule: nonzero; opacity: 1;" transform=" translate(-386.1745, -61.7343)" d="M 365.75 90.58 A 8 8 0 0 1 360 77 L 400.9 35.29 a 8 8 0 1 1 11.43 11.2 L 371.46 88.18 A 8 8 0 0 1 365.75 90.58 Z" stroke-linecap="round"/>
</g>
		<g transform="matrix(0.6136 0 0 0.6136 -504.6682 -74.2055)" id="910286">
<path style="stroke: none; stroke-width: 1; stroke-dasharray: none; stroke-linecap: butt; stroke-dashoffset: 0; stroke-linejoin: miter; stroke-miterlimit: 4; is-custom-font: none; font-file-url: none; fill: rgb(255,255,255); fill-rule: nonzero; opacity: 1;" transform=" translate(-138.2196, -141.0543)" d="M 117.78 169.9 a 8 8 0 0 1 -5.71 -13.6 l 40.87 -41.69 a 8 8 0 1 1 11.43 11.2 L 123.49 167.5 A 8 8 0 0 1 117.78 169.9 Z" stroke-linecap="round"/>
</g>
		<g transform="matrix(0.6136 0 0 0.6136 -442.7929 -129.7546)" id="779485">
<path style="stroke: none; stroke-width: 1; stroke-dasharray: none; stroke-linecap: butt; stroke-dashoffset: 0; stroke-linejoin: miter; stroke-miterlimit: 4; is-custom-font: none; font-file-url: none; fill: rgb(253,203,1); fill-rule: nonzero; opacity: 1;" transform=" translate(-239.0596, -50.5244)" d="M 218.62 79.37 a 8 8 0 0 1 -5.71 -13.6 l 40.87 -41.69 a 8 8 0 1 1 11.43 11.2 L 224.34 77 A 8 8 0 0 1 218.62 79.37 Z" stroke-linecap="round"/>
</g>
		<g transform="matrix(0.6136 0 0 0.6136 -127.6057 -59.8044)" id="729837">
<path style="stroke: none; stroke-width: 1; stroke-dasharray: none; stroke-linecap: butt; stroke-dashoffset: 0; stroke-linejoin: miter; stroke-miterlimit: 4; is-custom-font: none; font-file-url: none; fill: rgb(246,2,97); fill-rule: nonzero; opacity: 1;" transform=" translate(-752.7296, -164.5244)" d="M 732.29 193.37 a 8 8 0 0 1 -5.71 -13.6 l 40.87 -41.69 a 8 8 0 1 1 11.43 11.2 L 738 191 A 8 8 0 0 1 732.29 193.37 Z" stroke-linecap="round"/>
</g>
		<g transform="matrix(0.6136 0 0 0.6136 -21.4225 -40.1385)" id="959769">
<path style="stroke: none; stroke-width: 1; stroke-dasharray: none; stroke-linecap: butt; stroke-dashoffset: 0; stroke-linejoin: miter; stroke-miterlimit: 4; is-custom-font: none; font-file-url: none; fill: rgb(255,255,255); fill-rule: nonzero; opacity: 1;" transform=" translate(-925.7796, -196.5743)" d="M 905.34 225.42 a 8 8 0 0 1 -5.71 -13.6 l 40.87 -41.69 a 8 8 0 1 1 11.43 11.2 L 911.05 223 A 8 8 0 0 1 905.34 225.42 Z" stroke-linecap="round"/>
</g>
		<g transform="matrix(0.6136 0 0 0.6136 -21.4256 -119.618)" id="564574">
<path style="stroke: none; stroke-width: 1; stroke-dasharray: none; stroke-linecap: butt; stroke-dashoffset: 0; stroke-linejoin: miter; stroke-miterlimit: 4; is-custom-font: none; font-file-url: none; fill: rgb(253,203,1); fill-rule: nonzero; opacity: 1;" transform=" translate(-925.7746, -67.0443)" d="M 905.34 95.89 a 8 8 0 0 1 -5.71 -13.6 L 940.49 40.6 a 8 8 0 1 1 11.43 11.2 L 911.05 93.49 A 8 8 0 0 1 905.34 95.89 Z" stroke-linecap="round"/>
</g>
		<g transform="matrix(0.6136 0 0 0.6136 -285.1877 -83.7692)" id="758430">
<path style="stroke: none; stroke-width: 1; stroke-dasharray: none; stroke-linecap: butt; stroke-dashoffset: 0; stroke-linejoin: miter; stroke-miterlimit: 4; is-custom-font: none; font-file-url: none; fill: rgb(253,203,1); fill-rule: nonzero; opacity: 1;" transform=" translate(-495.9135, -125.468)" d="M 450.54 179.74 a 8 8 0 0 1 -5.71 -13.6 l 90.7 -92.53 A 8 8 0 0 1 547 84.82 l -90.7 92.53 A 8 8 0 0 1 450.54 179.74 Z" stroke-linecap="round"/>
</g>
		<g transform="matrix(0.6136 0 0 0.6136 371.4218 -61.4181)" id="118309">
<path style="stroke: none; stroke-width: 1; stroke-dasharray: none; stroke-linecap: butt; stroke-dashoffset: 0; stroke-linejoin: miter; stroke-miterlimit: 4; is-custom-font: none; font-file-url: none; fill: rgb(246,2,97); fill-rule: nonzero; opacity: 1;" transform=" translate(-1566.0096, -161.8943)" d="M 1545.57 190.74 a 8 8 0 0 1 -5.71 -13.6 l 40.87 -41.69 a 8 8 0 1 1 11.43 11.2 l -40.87 41.69 A 8 8 0 0 1 1545.57 190.74 Z" stroke-linecap="round"/>
</g>
		<g transform="matrix(0.6136 0 0 0.6136 -46.2701 -61.4273)" id="242129">
<path style="stroke: none; stroke-width: 1; stroke-dasharray: none; stroke-linecap: butt; stroke-dashoffset: 0; stroke-linejoin: miter; stroke-miterlimit: 4; is-custom-font: none; font-file-url: none; fill: rgb(253,203,1); fill-rule: nonzero; opacity: 1;" transform=" translate(-885.2846, -161.8793)" d="M 839.93 216.16 a 8 8 0 0 1 -5.71 -13.6 L 924.92 110 a 8 8 0 1 1 11.43 11.2 l -90.7 92.53 A 8 8 0 0 1 839.93 216.16 Z" stroke-linecap="round"/>
</g>
		<g transform="matrix(0.6136 0 0 0.6136 414.1774 26.5228)" id="490911">
<path style="stroke: none; stroke-width: 1; stroke-dasharray: none; stroke-linecap: butt; stroke-dashoffset: 0; stroke-linejoin: miter; stroke-miterlimit: 4; is-custom-font: none; font-file-url: none; fill: rgb(246,2,97); fill-rule: nonzero; opacity: 1;" transform=" translate(-1635.6896, -305.2144)" d="M 1615.25 334.06 a 8 8 0 0 1 -5.71 -13.6 l 40.87 -41.69 a 8 8 0 1 1 11.43 11.2 L 1621 331.66 A 8 8 0 0 1 1615.25 334.06 Z" stroke-linecap="round"/>
</g>
		<g transform="matrix(0.6136 0 0 0.6136 -107.5901 -129.7546)" id="260500">
<path style="stroke: none; stroke-width: 1; stroke-dasharray: none; stroke-linecap: butt; stroke-dashoffset: 0; stroke-linejoin: miter; stroke-miterlimit: 4; is-custom-font: none; font-file-url: none; fill: rgb(255,255,255); fill-rule: nonzero; opacity: 1;" transform=" translate(-785.3496, -50.5244)" d="M 764.91 79.37 a 8 8 0 0 1 -5.71 -13.6 l 40.87 -41.69 a 8 8 0 1 1 11.43 11.2 L 770.62 77 A 8 8 0 0 1 764.91 79.37 Z" stroke-linecap="round"/>
</g>
		<g transform="matrix(0.6136 0 0 0.6136 433.8463 -122.8761)" id="28843">
<path style="stroke: none; stroke-width: 1; stroke-dasharray: none; stroke-linecap: butt; stroke-dashoffset: 0; stroke-linejoin: miter; stroke-miterlimit: 4; is-custom-font: none; font-file-url: none; fill: rgb(253,203,1); fill-rule: nonzero; opacity: 1;" transform=" translate(-1667.7446, -61.7343)" d="M 1622.39 116 a 8 8 0 0 1 -5.71 -13.6 l 90.7 -92.53 a 8 8 0 1 1 11.43 11.2 l -90.7 92.53 A 8 8 0 0 1 1622.39 116 Z" stroke-linecap="round"/>
</g>
		<g transform="matrix(0.6136 0 0 0.6136 57.2073 -110.0853)" id="749218">
<line style="stroke: none; stroke-width: 1; stroke-dasharray: none; stroke-linecap: butt; stroke-dashoffset: 0; stroke-linejoin: miter; stroke-miterlimit: 4; is-custom-font: none; font-file-url: none; fill: rgb(245,245,245); fill-rule: nonzero; opacity: 1;" x1="31.414999999999964" y1="-32.05" x2="-31.414999999999964" y2="32.05"/>
</g>
		<g transform="matrix(0.6136 0 0 0.6136 57.2072 -110.0825)" id="676141">
<path style="stroke: none; stroke-width: 1; stroke-dasharray: none; stroke-linecap: butt; stroke-dashoffset: 0; stroke-linejoin: miter; stroke-miterlimit: 4; is-custom-font: none; font-file-url: none; fill: rgb(0,235,234); fill-rule: nonzero; opacity: 1;" transform=" translate(-1053.9248, -82.5846)" d="M 1022.51 121.63 a 7 7 0 0 1 -5 -11.9 l 62.83 -64.09 a 7 7 0 0 1 10 9.8 l -62.83 64.09 A 7 7 0 0 1 1022.51 121.63 Z" stroke-linecap="round"/>
</g>
		<g transform="matrix(0.6136 0 0 0.6136 446.787 81.3142)" id="537327">
<path style="stroke: none; stroke-width: 1; stroke-dasharray: none; stroke-linecap: butt; stroke-dashoffset: 0; stroke-linejoin: miter; stroke-miterlimit: 4; is-custom-font: none; font-file-url: none; fill: rgb(253,203,1); fill-rule: nonzero; opacity: 1;" transform=" translate(-1688.8346, -394.5093)" d="M 1653 439.06 a 8 8 0 0 1 -5.71 -13.6 l 71.66 -73.1 a 8 8 0 1 1 11.43 11.2 l -71.66 73.1 A 8 8 0 0 1 1653 439.06 Z" stroke-linecap="round"/>
</g>
</g>
</g>
</svg>