<svg xmlns="http://www.w3.org/2000/svg" xmlns:xlink="http://www.w3.org/1999/xlink" version="1.1" width="1200" height="600" viewBox="0 0 1200 600" xml:space="preserve">
<desc>Created with Fabric.js 3.5.0</desc>
<defs>
</defs>
<rect x="0" y="0" width="100%" height="100%" fill="#ede8e8"/>
<g transform="matrix(0 -4.927 4.927 0 -5.0204 307.188)" id="747292">
<path style="stroke: none; stroke-width: 0; stroke-dasharray: none; stroke-linecap: butt; stroke-dashoffset: 0; stroke-linejoin: miter; stroke-miterlimit: 4; is-custom-font: none; font-file-url: none; fill: rgb(89,92,212); fill-rule: nonzero; opacity: 1;" vector-effect="non-scaling-stroke" transform=" translate(-76.9999, -63.4999)" d="M 3.54986 95.6336 C 9.08981 112.685 28.0129 140.039 41.0198 119.894 C 54.0266 99.7486 79.1521 109.873 99.9721 119.317 C 120.792 128.76 142.109 115.172 150.208 95.7373 C 156.997 79.47 155.432 57.1783 139.248 33.7914 C 111.504 -6.30695 61.4032 -7.75753 31.2797 13.9716 C -5.9644 40.8223 -1.99009 78.5967 3.54986 95.6336 Z" stroke-linecap="round"/>
</g>
<g transform="matrix(1.0332 0 0 1.0332 317.6379 405.612)" id="601032">
<g style="" vector-effect="non-scaling-stroke">
		<g transform="matrix(1 0 0 1 194.0995 146.9309)" id="892932">
<path style="stroke: none; stroke-width: 1; stroke-dasharray: none; stroke-linecap: butt; stroke-dashoffset: 0; stroke-linejoin: miter; stroke-miterlimit: 4; is-custom-font: none; font-file-url: none; fill: rgb(57,95,254); fill-rule: nonzero; opacity: 1;" transform=" translate(-684.0995, -483.4309)" d="M 734.516 472.221 C 734.516 472.221 698.122 478.704 684.811 443.055 L 633.683 522.288 C 633.683 522.288 709.318 537.41 734.516 472.221 Z" stroke-linecap="round"/>
</g>
		<g transform="matrix(1 0 0 1 194.01 145.253)" id="319570">
<path style="stroke: none; stroke-width: 1; stroke-dasharray: none; stroke-linecap: butt; stroke-dashoffset: 0; stroke-linejoin: miter; stroke-miterlimit: 4; is-custom-font: none; font-file-url: none; fill: rgb(0,0,0); fill-rule: nonzero; opacity: 1;" transform=" translate(-684.01, -481.753)" d="M 652.412 526.588 C 641.271 526.588 633.642 525.095 633.144 524.998 L 629.163 524.196 L 685.475 436.918 L 687.396 442.074 C 699.726 475.083 732.637 469.734 734.033 469.485 L 738.857 468.642 L 737.101 473.203 C 723.625 508.051 695.994 520.27 675.191 524.39 C 666.87 526.062 659.019 526.588 652.412 526.588 Z M 638.327 520.188 C 644.976 521.003 658.922 522.026 674.279 518.957 C 700.942 513.635 719.74 498.969 730.218 475.373 C 720.031 475.747 696.229 473.742 684.3 448.944 L 638.327 520.188 Z" stroke-linecap="round"/>
</g>
		<g transform="matrix(1 0 0 1 91.0899 -79.1672)" id="374476">
<path style="stroke: none; stroke-width: 1; stroke-dasharray: none; stroke-linecap: butt; stroke-dashoffset: 0; stroke-linejoin: miter; stroke-miterlimit: 4; is-custom-font: none; font-file-url: none; fill: rgb(173,188,255); fill-rule: nonzero; opacity: 1;" transform=" translate(-581.0899, -257.3328)" d="M 508.964 311.074 C 508.964 311.074 506.421 259.169 502.73 240.715 C 499.04 222.262 475.086 146.595 598.781 143.471 C 612.963 144.894 647.574 149.995 655.522 190.289 C 663.47 230.583 659.212 257.814 656.945 275.411 C 654.679 293.008 648.998 361.943 662.903 370.458 C 676.808 378.959 508.964 311.074 508.964 311.074 Z" stroke-linecap="round"/>
</g>
		<g transform="matrix(1 0 0 1 91.0575 -79.2045)" id="994968">
<path style="stroke: none; stroke-width: 1; stroke-dasharray: none; stroke-linecap: butt; stroke-dashoffset: 0; stroke-linejoin: miter; stroke-miterlimit: 4; is-custom-font: none; font-file-url: none; fill: rgb(0,0,0); fill-rule: nonzero; opacity: 1;" transform=" translate(-581.0576, -257.2955)" d="M 663.677 373.913 C 662.06 373.913 659.641 373.07 655.853 371.756 C 651.748 370.333 645.777 368.121 638.106 365.204 C 625.209 360.311 607.323 353.317 584.917 344.442 C 546.796 329.334 508.301 313.769 507.913 313.617 L 506.269 312.953 L 506.186 311.184 C 506.158 310.673 503.615 259.265 500.007 241.226 C 499.814 240.245 499.551 239.097 499.261 237.798 C 496.206 224.086 489.875 195.541 507.844 172.554 C 523.491 152.524 554.066 141.811 598.698 140.678 H 598.864 L 599.03 140.692 C 632.549 144.037 652.453 160.541 658.203 189.722 C 665.847 228.467 662.322 255.312 660 273.06 L 659.654 275.714 C 656.047 303.734 653.6 361.486 664.313 368.052 C 666.966 369.683 666.607 371.438 666.151 372.337 C 665.64 373.457 664.879 373.913 663.677 373.913 Z M 511.632 309.166 C 561.627 329.375 632.867 357.754 656.254 366.061 C 645.888 342.77 654.112 275.797 654.209 275.037 L 654.554 272.369 C 656.835 254.966 660.277 228.675 652.812 190.814 C 647.519 163.983 629.812 149.4 598.684 146.235 C 555.877 147.34 526.781 157.348 512.226 175.982 C 495.86 196.91 501.818 223.726 504.679 236.623 C 504.983 237.964 505.246 239.153 505.439 240.176 C 508.784 256.901 511.148 299.78 511.632 309.166 Z" stroke-linecap="round"/>
</g>
		<g transform="matrix(1 0 0 1 94.8471 -166.1925)" id="81384">
<path style="stroke: none; stroke-width: 1; stroke-dasharray: none; stroke-linecap: butt; stroke-dashoffset: 0; stroke-linejoin: miter; stroke-miterlimit: 4; is-custom-font: none; font-file-url: none; fill: rgb(173,188,255); fill-rule: nonzero; opacity: 1;" transform=" translate(-584.8471, -170.3075)" d="M 584.379 159.436 C 584.379 159.436 581.739 172.567 586.106 181.179 L 584.379 159.436 Z" stroke-linecap="round"/>
</g>
		<g transform="matrix(1 0 0 1 94.8471 -166.1925)" id="625789">
<path style="stroke: rgb(0,0,0); stroke-width: 3.2233; stroke-dasharray: none; stroke-linecap: round; stroke-dashoffset: 0; stroke-linejoin: round; stroke-miterlimit: 10; is-custom-font: none; font-file-url: none; fill: none; fill-rule: nonzero; opacity: 1;" transform=" translate(-584.8471, -170.3075)" d="M 584.379 159.436 C 584.379 159.436 581.739 172.567 586.106 181.179" stroke-linecap="round"/>
</g>
		<g transform="matrix(1 0 0 1 73.604 -23.3675)" id="605585">
<path style="stroke: none; stroke-width: 1; stroke-dasharray: none; stroke-linecap: butt; stroke-dashoffset: 0; stroke-linejoin: miter; stroke-miterlimit: 4; is-custom-font: none; font-file-url: none; fill: rgb(253,253,253); fill-rule: nonzero; opacity: 1;" transform=" translate(-563.604, -313.1325)" d="M 538.351 278.52 C 534.951 286.468 527.293 306.041 527.293 306.041 L 593.391 347.745 L 599.915 310.865 L 569.838 310.008 L 580.619 282.21 L 538.351 278.52 Z" stroke-linecap="round"/>
</g>
		<g transform="matrix(1 0 0 1 73.6049 -23.3652)" id="152766">
<path style="stroke: none; stroke-width: 1; stroke-dasharray: none; stroke-linecap: butt; stroke-dashoffset: 0; stroke-linejoin: miter; stroke-miterlimit: 4; is-custom-font: none; font-file-url: none; fill: rgb(0,0,0); fill-rule: nonzero; opacity: 1;" transform=" translate(-563.6049, -313.1348)" d="M 593.391 350.51 C 592.88 350.51 592.368 350.372 591.912 350.081 L 525.814 308.377 C 524.694 307.672 524.238 306.263 524.722 305.032 C 524.805 304.839 532.435 285.321 535.821 277.428 C 536.291 276.336 537.411 275.672 538.6 275.769 L 580.868 279.46 C 581.739 279.529 582.513 280.013 582.969 280.745 C 583.425 281.478 583.508 282.39 583.204 283.206 L 573.846 307.355 L 599.998 308.101 C 600.8 308.129 601.56 308.502 602.058 309.124 C 602.569 309.746 602.776 310.561 602.638 311.349 L 596.114 348.229 C 595.948 349.141 595.354 349.902 594.511 350.275 C 594.151 350.427 593.778 350.51 593.391 350.51 Z M 530.693 304.922 L 591.387 343.211 L 596.639 313.533 L 569.769 312.773 C 568.87 312.745 568.041 312.289 567.543 311.543 C 567.046 310.796 566.949 309.856 567.267 309.013 L 576.721 284.643 L 540.12 281.45 C 537.273 288.251 532.587 300.097 530.693 304.922 Z" stroke-linecap="round"/>
</g>
		<g transform="matrix(1 0 0 1 135.928 60.2412)" id="908810">
<path style="stroke: rgb(0,0,0); stroke-width: 4; stroke-dasharray: none; stroke-linecap: round; stroke-dashoffset: 0; stroke-linejoin: round; stroke-miterlimit: 10; is-custom-font: none; font-file-url: none; fill: rgb(57,95,254); fill-rule: nonzero; opacity: 1;" transform=" translate(-625.928, -396.7413)" d="M 583.259 310.382 C 583.259 310.382 601.988 318.8 586.134 348.685 C 570.28 378.571 635.465 483.418 635.465 483.418 L 668.597 376.774 C 668.611 376.788 640.165 304.715 583.259 310.382 Z" stroke-linecap="round"/>
</g>
		<g transform="matrix(1 0 0 1 134.5558 52.825)" id="104739">
<path style="stroke: rgb(0,0,0); stroke-width: 4; stroke-dasharray: none; stroke-linecap: round; stroke-dashoffset: 0; stroke-linejoin: round; stroke-miterlimit: 10; is-custom-font: none; font-file-url: none; fill: none; fill-rule: nonzero; opacity: 1;" transform=" translate(-624.5558, -389.325)" d="M 605.928 352.957 C 605.928 352.957 654.181 366.282 640.857 425.693" stroke-linecap="round"/>
</g>
		<g transform="matrix(1 0 0 1 194.8115 52.3683)" id="11438">
<path style="stroke: none; stroke-width: 1; stroke-dasharray: none; stroke-linecap: butt; stroke-dashoffset: 0; stroke-linejoin: miter; stroke-miterlimit: 4; is-custom-font: none; font-file-url: none; fill: rgb(255,255,255); fill-rule: nonzero; opacity: 1;" transform=" translate(-684.8115, -388.8682)" d="M 717.238 309.429 C 701.384 311.488 691.653 316.63 680.139 337.157 C 668.625 357.685 637.622 426.993 637.622 426.993 L 680.126 468.572 L 732.001 353.731 C 732.001 353.731 721.551 321.316 690.589 344.014 C 690.589 344.014 711.115 326.721 718.676 324.924 C 726.237 323.127 736.686 306.913 717.238 309.429 Z" stroke-linecap="round"/>
</g>
		<g transform="matrix(1 0 0 1 194.7988 52.3676)" id="390345">
<path style="stroke: none; stroke-width: 1; stroke-dasharray: none; stroke-linecap: butt; stroke-dashoffset: 0; stroke-linejoin: miter; stroke-miterlimit: 4; is-custom-font: none; font-file-url: none; fill: rgb(0,0,0); fill-rule: nonzero; opacity: 1;" transform=" translate(-684.7988, -388.8677)" d="M 680.126 471.337 C 679.407 471.337 678.716 471.061 678.191 470.549 L 635.687 428.97 C 634.858 428.168 634.623 426.924 635.093 425.86 C 636.364 423.026 666.276 356.206 677.721 335.803 C 689.953 314.004 700.915 308.751 716.879 306.678 C 727.979 305.24 730.48 309.678 730.992 312.456 C 732.084 318.441 725.228 326.196 719.312 327.606 C 717.073 328.145 713.285 330.398 709.166 333.218 C 712.028 333.025 714.764 333.37 717.391 334.213 C 729.775 338.222 734.434 352.28 734.613 352.874 C 734.821 353.524 734.779 354.229 734.503 354.865 L 682.628 469.706 C 682.254 470.522 681.508 471.116 680.623 471.282 C 680.458 471.324 680.292 471.337 680.126 471.337 Z M 640.926 426.371 L 679.227 463.831 L 729.001 353.635 C 727.826 350.746 723.721 342.065 715.663 339.48 C 709.111 337.365 701.219 339.646 692.22 346.239 C 691.018 347.124 689.331 346.889 688.419 345.714 C 687.493 344.539 687.673 342.853 688.806 341.885 C 690.962 340.074 710.065 324.123 718.04 322.229 C 721.731 321.344 726.002 315.884 725.56 313.465 C 725.352 312.332 722.809 311.502 717.598 312.18 C 702.794 314.101 693.768 318.524 682.559 338.526 C 672.233 356.883 645.833 415.451 640.926 426.371 Z" stroke-linecap="round"/>
</g>
		<g transform="matrix(1 0 0 1 217.397 15.4608)" id="171769">
<path style="stroke: none; stroke-width: 1; stroke-dasharray: none; stroke-linecap: butt; stroke-dashoffset: 0; stroke-linejoin: miter; stroke-miterlimit: 4; is-custom-font: none; font-file-url: none; fill: rgb(255,255,255); fill-rule: nonzero; opacity: 1;" transform=" translate(-707.397, -351.9608)" d="M 698.44 355.763 C 698.44 355.763 703.195 346.779 716.354 348.341 L 698.44 355.763 Z" stroke-linecap="round"/>
</g>
		<g transform="matrix(1 0 0 1 217.397 15.4608)" id="900381">
<path style="stroke: rgb(0,0,0); stroke-width: 4; stroke-dasharray: none; stroke-linecap: round; stroke-dashoffset: 0; stroke-linejoin: round; stroke-miterlimit: 10; is-custom-font: none; font-file-url: none; fill: none; fill-rule: nonzero; opacity: 1;" transform=" translate(-707.397, -351.9608)" d="M 698.44 355.763 C 698.44 355.763 703.195 346.779 716.354 348.341" stroke-linecap="round"/>
</g>
		<g transform="matrix(1 0 0 1 220.079 27.0115)" id="990482">
<path style="stroke: none; stroke-width: 1; stroke-dasharray: none; stroke-linecap: butt; stroke-dashoffset: 0; stroke-linejoin: miter; stroke-miterlimit: 4; is-custom-font: none; font-file-url: none; fill: rgb(255,255,255); fill-rule: nonzero; opacity: 1;" transform=" translate(-710.079, -363.5114)" d="M 701.537 366.435 C 701.537 366.435 710.079 357.146 718.621 361.984 L 701.537 366.435 Z" stroke-linecap="round"/>
</g>
		<g transform="matrix(1 0 0 1 220.079 27.0115)" id="12041">
<path style="stroke: rgb(0,0,0); stroke-width: 4; stroke-dasharray: none; stroke-linecap: round; stroke-dashoffset: 0; stroke-linejoin: round; stroke-miterlimit: 10; is-custom-font: none; font-file-url: none; fill: none; fill-rule: nonzero; opacity: 1;" transform=" translate(-710.079, -363.5114)" d="M 701.537 366.435 C 701.537 366.435 710.079 357.146 718.621 361.984" stroke-linecap="round"/>
</g>
		<g transform="matrix(1 0 0 1 258.7695 25.4846)" id="216875">
<path style="stroke: none; stroke-width: 1; stroke-dasharray: none; stroke-linecap: butt; stroke-dashoffset: 0; stroke-linejoin: miter; stroke-miterlimit: 4; is-custom-font: none; font-file-url: none; fill: rgb(26,26,26); fill-rule: nonzero; opacity: 1;" transform=" translate(-748.7696, -361.9846)" d="M 744.026 304.563 L 683.443 400.425 C 680.084 405.733 682.987 412.88 688.875 413.834 L 747.191 423.219 C 750.412 423.745 753.646 422.155 755.402 419.183 L 814.229 319.92 C 817.478 314.447 814.257 307.314 808.258 306.678 L 751.683 300.693 C 748.684 300.375 745.726 301.868 744.026 304.563 Z" stroke-linecap="round"/>
</g>
		<g transform="matrix(1 0 0 1 99.6716 80.8975)" id="205798">
<path style="stroke: rgb(0,0,0); stroke-width: 4; stroke-dasharray: none; stroke-linecap: round; stroke-dashoffset: 0; stroke-linejoin: round; stroke-miterlimit: 10; is-custom-font: none; font-file-url: none; fill: rgb(57,95,254); fill-rule: nonzero; opacity: 1;" transform=" translate(-589.6716, -417.3975)" d="M 680.126 468.571 C 680.126 468.571 658.812 509.377 648.805 517.795 C 643.746 522.066 642.253 523.366 642.018 523.614 C 642.184 523.504 642.75 523.062 642.75 523.062 L 645.377 531.494 H 499.206 V 321.357 C 499.206 322.628 500.422 320.292 503.076 316.933 C 508.702 309.773 520.824 297.927 541.475 306.027 C 571.842 317.942 595.575 347.178 617.967 396.153 C 627.394 416.763 631.776 426.605 633.711 431.083 C 634.042 431.857 634.291 432.48 634.499 432.963 L 639.848 422.762 C 639.848 422.762 680.914 425.651 680.126 468.571 Z" stroke-linecap="round"/>
</g>
		<g transform="matrix(1 0 0 1 107.102 136.5834)" id="175619">
<path style="stroke: rgb(0,0,0); stroke-width: 4; stroke-dasharray: none; stroke-linecap: round; stroke-dashoffset: 0; stroke-linejoin: round; stroke-miterlimit: 10; is-custom-font: none; font-file-url: none; fill: none; fill-rule: nonzero; opacity: 1;" transform=" translate(-597.102, -473.0834)" d="M 551.025 423.467 C 551.025 423.467 597.759 535.06 643.179 521.568" stroke-linecap="round"/>
</g>
		<g transform="matrix(1 0 0 1 78.2545 33.0348)" id="528231">
<path style="stroke: none; stroke-width: 1; stroke-dasharray: none; stroke-linecap: butt; stroke-dashoffset: 0; stroke-linejoin: miter; stroke-miterlimit: 4; is-custom-font: none; font-file-url: none; fill: rgb(255,255,255); fill-rule: nonzero; opacity: 1;" transform=" translate(-568.2545, -369.5347)" d="M 629.163 432.562 C 597.109 343.777 536.774 300.207 504.651 319.78 C 510.208 312.814 522.178 301.271 542.58 309.164 C 572.574 320.762 596.017 349.237 618.132 396.94 C 627.449 417.011 629.95 428.208 631.858 432.562 H 629.163 Z" stroke-linecap="round"/>
</g>
		<g transform="matrix(1 0 0 1 85.8339 -104.8145)" id="123463">
<path style="stroke: rgb(0,0,0); stroke-width: 4; stroke-dasharray: none; stroke-linecap: butt; stroke-dashoffset: 0; stroke-linejoin: round; stroke-miterlimit: 10; is-custom-font: none; font-file-url: none; fill: rgb(253,253,253); fill-rule: nonzero; opacity: 1;" transform=" translate(-575.8339, -231.6854)" d="M 581.089 169 C 589.327 166.747 584.31 249.574 613.253 254.689 C 630.559 257.329 632.549 265.18 631.692 268.871 C 630.835 272.562 624.657 284.477 606.467 276.819 C 601.048 276.819 591.4 294.416 568.704 294.416 C 546.008 294.416 517.921 284.201 519.912 243.63 C 521.902 203.046 542.677 179.492 581.089 169 Z" stroke-linecap="round"/>
</g>
		<g transform="matrix(1 0 0 1 56.8252 -110.6735)" id="696733">
<path style="stroke: rgb(0,0,0); stroke-width: 4; stroke-dasharray: none; stroke-linecap: round; stroke-dashoffset: 0; stroke-linejoin: round; stroke-miterlimit: 10; is-custom-font: none; font-file-url: none; fill: none; fill-rule: nonzero; opacity: 1;" transform=" translate(-546.8252, -225.8265)" d="M 542.608 203.613 C 542.608 203.613 573.819 220.132 538.351 248.04" stroke-linecap="round"/>
</g>
		<g transform="matrix(1 0 0 1 51.4666 -74.1677)" id="185135">
<path style="stroke: none; stroke-width: 1; stroke-dasharray: none; stroke-linecap: butt; stroke-dashoffset: 0; stroke-linejoin: miter; stroke-miterlimit: 4; is-custom-font: none; font-file-url: none; fill: rgb(255,255,255); fill-rule: nonzero; opacity: 1;" transform=" translate(-541.4667, -262.3323)" d="M 534.094 257.314 C 534.094 257.314 533.527 271.704 548.842 266.023 L 534.094 257.314 Z" stroke-linecap="round"/>
</g>
		<g transform="matrix(1 0 0 1 51.4666 -74.1677)" id="949057">
<path style="stroke: rgb(0,0,0); stroke-width: 4; stroke-dasharray: none; stroke-linecap: round; stroke-dashoffset: 0; stroke-linejoin: round; stroke-miterlimit: 10; is-custom-font: none; font-file-url: none; fill: none; fill-rule: nonzero; opacity: 1;" transform=" translate(-541.4667, -262.3323)" d="M 534.094 257.314 C 534.094 257.314 533.527 271.704 548.842 266.023" stroke-linecap="round"/>
</g>
		<g transform="matrix(1 0 0 1 93.6045 -112.3375)" id="33583">
<path style="stroke: rgb(0,0,0); stroke-width: 5; stroke-dasharray: none; stroke-linecap: round; stroke-dashoffset: 0; stroke-linejoin: round; stroke-miterlimit: 10; is-custom-font: none; font-file-url: none; fill: none; fill-rule: nonzero; opacity: 1;" transform=" translate(-583.6045, -224.1624)" d="M 573.818 220.353 C 573.818 220.353 586.867 219.482 593.391 227.997" stroke-linecap="round"/>
</g>
		<g transform="matrix(1 0 0 1 88.5435 -92.8415)" id="814734">
<path style="stroke: none; stroke-width: 1; stroke-dasharray: none; stroke-linecap: butt; stroke-dashoffset: 0; stroke-linejoin: miter; stroke-miterlimit: 4; is-custom-font: none; font-file-url: none; fill: rgb(0,0,0); fill-rule: nonzero; opacity: 1;" transform=" translate(-578.5435, -243.6585)" d="M 582.846 245.617 C 584.56 241.85 584.023 237.921 581.647 236.839 C 579.27 235.758 575.955 237.934 574.241 241.7 C 572.527 245.466 573.064 249.396 575.44 250.478 C 577.817 251.559 581.132 249.383 582.846 245.617 Z" stroke-linecap="round"/>
</g>
		<g transform="matrix(1 0 0 1 49.4045 -112.3475)" id="670008">
<path style="stroke: none; stroke-width: 1; stroke-dasharray: none; stroke-linecap: butt; stroke-dashoffset: 0; stroke-linejoin: miter; stroke-miterlimit: 4; is-custom-font: none; font-file-url: none; fill: rgb(0,0,0); fill-rule: nonzero; opacity: 1;" transform=" translate(-539.4045, -224.1525)" d="M 543.707 226.111 C 545.421 222.344 544.884 218.415 542.508 217.333 C 540.132 216.252 536.816 218.428 535.102 222.194 C 533.388 225.961 533.925 229.89 536.302 230.972 C 538.678 232.053 541.994 229.877 543.707 226.111 Z" stroke-linecap="round"/>
</g>
		<g transform="matrix(1 0 0 1 294.5059 11.2504)" id="899096">
<path style="stroke: none; stroke-width: 1; stroke-dasharray: none; stroke-linecap: butt; stroke-dashoffset: 0; stroke-linejoin: miter; stroke-miterlimit: 4; is-custom-font: none; font-file-url: none; fill: rgb(255,255,255); fill-rule: nonzero; opacity: 1;" transform=" translate(-784.5059, -347.7504)" d="M 810.291 328.808 C 802.025 326.61 776.564 320.528 773.371 327.826 C 769.556 336.562 794.436 342.299 794.436 342.299 C 794.436 342.299 767.524 337.171 763.875 341.58 C 759.825 346.474 762.438 350.8 762.438 350.8 L 785.963 356.454 C 785.963 356.454 764.981 355.984 760.447 359.495 C 759.079 360.559 756.923 364.623 761.47 366.738 C 766.018 368.853 774.878 369.461 774.878 369.461 L 781.043 370.512 L 784.816 371.161" stroke-linecap="round"/>
</g>
		<g transform="matrix(1 0 0 1 294.5059 11.2504)" id="448391">
<path style="stroke: rgb(0,0,0); stroke-width: 4; stroke-dasharray: none; stroke-linecap: round; stroke-dashoffset: 0; stroke-linejoin: round; stroke-miterlimit: 10; is-custom-font: none; font-file-url: none; fill: none; fill-rule: nonzero; opacity: 1;" transform=" translate(-784.5059, -347.7504)" d="M 810.291 328.808 C 802.025 326.61 776.564 320.528 773.371 327.826 C 769.556 336.562 794.436 342.299 794.436 342.299 C 794.436 342.299 767.524 337.171 763.875 341.58 C 759.825 346.474 762.438 350.8 762.438 350.8 L 785.963 356.454 C 785.963 356.454 764.981 355.984 760.447 359.495 C 759.079 360.559 756.923 364.623 761.47 366.738 C 766.018 368.853 774.878 369.461 774.878 369.461 L 781.043 370.512 L 784.816 371.161" stroke-linecap="round"/>
</g>
		<g transform="matrix(1 0 0 1 283.8895 66.405)" id="860226">
<path style="stroke: none; stroke-width: 1; stroke-dasharray: none; stroke-linecap: butt; stroke-dashoffset: 0; stroke-linejoin: miter; stroke-miterlimit: 4; is-custom-font: none; font-file-url: none; fill: rgb(255,255,255); fill-rule: nonzero; opacity: 1;" transform=" translate(-773.8895, -402.905)" d="M 734.517 472.22 C 790.262 377.118 813.262 333.59 813.262 333.59 L 734.517 472.22 Z" stroke-linecap="round"/>
</g>
		<g transform="matrix(1 0 0 1 283.8895 66.405)" id="394367">
<path style="stroke: rgb(0,0,0); stroke-width: 4; stroke-dasharray: none; stroke-linecap: round; stroke-dashoffset: 0; stroke-linejoin: round; stroke-miterlimit: 10; is-custom-font: none; font-file-url: none; fill: none; fill-rule: nonzero; opacity: 1;" transform=" translate(-773.8895, -402.905)" d="M 734.517 472.22 C 790.262 377.118 813.262 333.59 813.262 333.59" stroke-linecap="round"/>
</g>
		<g transform="matrix(1 0 0 1 -230.3619 87.5203)" id="210060">
<path style="stroke: rgb(26,26,26); stroke-width: 4.0049; stroke-dasharray: none; stroke-linecap: round; stroke-dashoffset: 0; stroke-linejoin: round; stroke-miterlimit: 10; is-custom-font: none; font-file-url: none; fill: none; fill-rule: nonzero; opacity: 1;" transform=" translate(-259.638, -424.0202)" d="M 193.015 339.949 C 193.015 339.949 276.971 477.446 284.532 485.519 C 292.093 493.592 304.782 509.253 326.261 508.023" stroke-linecap="round"/>
</g>
		<g transform="matrix(1 0 0 1 -74.0204 71.4045)" id="541769">
<path style="stroke: none; stroke-width: 1; stroke-dasharray: none; stroke-linecap: butt; stroke-dashoffset: 0; stroke-linejoin: miter; stroke-miterlimit: 4; is-custom-font: none; font-file-url: none; fill: rgb(173,188,255); fill-rule: nonzero; opacity: 1;" transform=" translate(-415.9796, -407.9044)" d="M 511.508 325.213 C 511.508 325.213 498.888 285.817 460.67 284.366 C 422.451 282.915 378.109 292.674 378.109 292.674 C 378.109 292.674 322.944 308.943 320.788 341.469 C 318.618 373.994 327.644 472.317 327.644 472.317 L 320.456 531.59 H 496.732 L 511.508 325.213 Z" stroke-linecap="round"/>
</g>
		<g transform="matrix(1 0 0 1 -74.184 71.4269)" id="509310">
<path style="stroke: none; stroke-width: 1; stroke-dasharray: none; stroke-linecap: butt; stroke-dashoffset: 0; stroke-linejoin: miter; stroke-miterlimit: 4; is-custom-font: none; font-file-url: none; fill: rgb(0,0,0); fill-rule: nonzero; opacity: 1;" transform=" translate(-415.816, -407.9269)" d="M 499.289 534.383 H 317.318 L 324.852 472.29 C 324.216 465.254 315.908 373.11 318.023 341.303 C 318.977 327.038 329.634 313.616 348.875 302.488 C 363.056 294.291 376.754 290.2 377.321 290.034 L 377.514 289.993 C 377.957 289.896 422.644 280.178 460.78 281.616 C 500.477 283.122 514.009 323.969 514.148 324.384 L 514.314 324.896 L 499.289 534.383 Z M 323.566 528.84 H 494.147 L 508.702 325.587 C 507.085 320.984 494.52 288.444 460.559 287.159 C 423.985 285.776 381.15 294.886 378.786 295.383 C 376.312 296.144 325.501 312.04 323.525 341.677 C 321.396 373.622 330.284 471.101 330.367 472.083 L 330.394 472.373 L 323.566 528.84 Z" stroke-linecap="round"/>
</g>
		<g transform="matrix(1 0 0 1 -53.5081 -55.2535)" id="878020">
<path style="stroke: rgb(0,0,0); stroke-width: 4.0049; stroke-dasharray: none; stroke-linecap: butt; stroke-dashoffset: 0; stroke-linejoin: round; stroke-miterlimit: 10; is-custom-font: none; font-file-url: none; fill: rgb(253,253,253); fill-rule: nonzero; opacity: 1;" transform=" translate(-436.4919, -281.2465)" d="M 400.127 258.366 L 413.051 288.79 C 413.051 288.79 397.321 297.236 400.127 311.888 C 402.933 326.54 421.206 318.647 421.206 318.647 L 473.192 287.38 L 455.403 241.723 L 400.127 258.366 Z" stroke-linecap="round"/>
</g>
		<g transform="matrix(1 0 0 1 -42.7474 -29.0076)" id="534113">
<path style="stroke: none; stroke-width: 1; stroke-dasharray: none; stroke-linecap: butt; stroke-dashoffset: 0; stroke-linejoin: miter; stroke-miterlimit: 4; is-custom-font: none; font-file-url: none; fill: rgb(173,188,255); fill-rule: nonzero; opacity: 1;" transform=" translate(-447.2525, -307.4924)" d="M 478.721 291.333 C 478.721 291.333 467.857 285.542 464.125 285.389 C 455.693 285.03 420.101 305.405 415.968 325.213 C 411.835 345.022 478.721 291.333 478.721 291.333 Z" stroke-linecap="round"/>
</g>
		<g transform="matrix(1 0 0 1 -65.9536 8.1626)" id="770355">
<path style="stroke: rgb(0,0,0); stroke-width: 4.0049; stroke-dasharray: none; stroke-linecap: round; stroke-dashoffset: 0; stroke-linejoin: round; stroke-miterlimit: 10; is-custom-font: none; font-file-url: none; fill: none; fill-rule: nonzero; opacity: 1;" transform=" translate(-424.0465, -344.6625)" d="M 375.938 404.571 C 375.938 404.571 401.648 355.141 406.735 341.511 C 411.821 327.882 430.454 291.458 472.155 284.754" stroke-linecap="round"/>
</g>
		<g transform="matrix(1 0 0 1 -34.597 80.5405)" id="848722">
<path style="stroke: rgb(0,0,0); stroke-width: 4.0049; stroke-dasharray: none; stroke-linecap: round; stroke-dashoffset: 0; stroke-linejoin: round; stroke-miterlimit: 10; is-custom-font: none; font-file-url: none; fill: none; fill-rule: nonzero; opacity: 1;" transform=" translate(-455.403, -417.0405)" d="M 441.553 445.944 C 441.553 445.944 462.3 413.847 469.253 388.137" stroke-linecap="round"/>
</g>
		<g transform="matrix(1 0 0 1 -133.1567 66.8079)" id="787695">
<path style="stroke: rgb(0,0,0); stroke-width: 4.0049; stroke-dasharray: none; stroke-linecap: butt; stroke-dashoffset: 0; stroke-linejoin: round; stroke-miterlimit: 10; is-custom-font: none; font-file-url: none; fill: rgb(253,253,253); fill-rule: nonzero; opacity: 1;" transform=" translate(-356.8433, -403.3079)" d="M 273.184 296.296 C 269.963 297.927 274.622 309.303 280.759 311.114 C 286.882 312.925 297.345 321.233 297.345 322.325 C 297.345 323.417 276.073 320.514 276.792 328.476 C 277.51 336.438 294.097 398.6 294.097 398.6 C 294.097 398.6 330.519 483.542 337.361 490.412 C 344.217 497.282 371.612 543.548 419.921 478.842 C 440.116 449.206 441.553 445.943 441.553 445.943 C 441.553 445.943 393.604 443.441 375.939 404.571 L 367.286 418.118 C 367.286 418.118 327.271 333.176 323.663 327.757 C 320.055 322.325 298.064 283.648 273.184 296.296 Z" stroke-linecap="round"/>
</g>
		<g transform="matrix(1 0 0 1 -200.277 16.317)" id="95880">
<path style="stroke: rgb(0,0,0); stroke-width: 4.0049; stroke-dasharray: none; stroke-linecap: round; stroke-dashoffset: 0; stroke-linejoin: round; stroke-miterlimit: 10; is-custom-font: none; font-file-url: none; fill: none; fill-rule: nonzero; opacity: 1;" transform=" translate(-289.723, -352.817)" d="M 281.561 349.693 C 281.561 349.693 293.586 350.343 297.885 355.941" stroke-linecap="round"/>
</g>
		<g transform="matrix(1 0 0 1 -197.5895 1.8783)" id="597901">
<path style="stroke: rgb(0,0,0); stroke-width: 4.0049; stroke-dasharray: none; stroke-linecap: round; stroke-dashoffset: 0; stroke-linejoin: round; stroke-miterlimit: 10; is-custom-font: none; font-file-url: none; fill: none; fill-rule: nonzero; opacity: 1;" transform=" translate(-292.4105, -338.3783)" d="M 278.989 335.705 C 278.989 335.705 299.819 332.872 305.832 341.497" stroke-linecap="round"/>
</g>
		<g transform="matrix(1 0 0 1 -245.5026 5.0045)" id="562792">
<path style="stroke: none; stroke-width: 1; stroke-dasharray: none; stroke-linecap: butt; stroke-dashoffset: 0; stroke-linejoin: miter; stroke-miterlimit: 4; is-custom-font: none; font-file-url: none; fill: rgb(26,26,26); fill-rule: nonzero; opacity: 1;" transform=" translate(-244.4974, -341.5045)" d="M 189.227 281.893 C 189.227 281.893 178.238 286.233 181.901 295.923 C 185.564 305.613 231.537 389.421 231.537 389.421 C 231.537 389.421 237.204 399.775 249.188 399.443 C 261.185 399.111 302.486 401.116 302.486 401.116 C 302.486 401.116 310.144 395.103 307.145 388.095 C 304.145 381.086 258.518 293.78 258.518 293.78 C 258.518 293.78 253.141 284.56 244.502 284.229 C 235.863 283.897 189.227 281.893 189.227 281.893 Z" stroke-linecap="round"/>
</g>
		<g transform="matrix(1 0 0 1 -270.5519 18.9039)" id="311415">
<path style="stroke: none; stroke-width: 1; stroke-dasharray: none; stroke-linecap: butt; stroke-dashoffset: 0; stroke-linejoin: miter; stroke-miterlimit: 4; is-custom-font: none; font-file-url: none; fill: rgb(255,255,255); fill-rule: nonzero; opacity: 1;" transform=" translate(-219.4481, -355.4039)" d="M 194.383 331.558 C 194.383 331.558 231.053 326.43 236.541 341.497 C 237.246 344.648 238.462 349.376 214.01 349.694 C 214.01 349.694 237.425 349.666 241.931 353.661 C 246.438 357.656 244.364 364.789 240.895 365.134 C 237.425 365.48 220.424 367.221 220.424 367.221 C 220.424 367.221 240.549 366.876 242.457 371.05 C 244.364 375.225 232.049 378.003 229.616 378.694 C 227.183 379.386 226.326 380.091 226.326 380.091" stroke-linecap="round"/>
</g>
		<g transform="matrix(1 0 0 1 -270.5519 18.9039)" id="679182">
<path style="stroke: rgb(26,26,26); stroke-width: 4.0049; stroke-dasharray: none; stroke-linecap: round; stroke-dashoffset: 0; stroke-linejoin: round; stroke-miterlimit: 10; is-custom-font: none; font-file-url: none; fill: none; fill-rule: nonzero; opacity: 1;" transform=" translate(-219.4481, -355.4039)" d="M 194.383 331.558 C 194.383 331.558 231.053 326.43 236.541 341.497 C 237.246 344.648 238.462 349.376 214.01 349.694 C 214.01 349.694 237.425 349.666 241.931 353.661 C 246.438 357.656 244.364 364.789 240.895 365.134 C 237.425 365.48 220.424 367.221 220.424 367.221 C 220.424 367.221 240.549 366.876 242.457 371.05 C 244.364 375.225 232.049 378.003 229.616 378.694 C 227.183 379.386 226.326 380.091 226.326 380.091" stroke-linecap="round"/>
</g>
		<g transform="matrix(1 0 0 1 -91.9317 -164.176)" id="205407">
<path style="stroke: rgb(0,0,0); stroke-width: 4.0049; stroke-dasharray: none; stroke-linecap: round; stroke-dashoffset: 0; stroke-linejoin: round; stroke-miterlimit: 10; is-custom-font: none; font-file-url: none; fill: rgb(57,95,254); fill-rule: nonzero; opacity: 1;" transform=" translate(-398.0683, -172.324)" d="M 359.711 239.193 C 359.711 239.193 331.956 207.746 333.753 185.698 C 335.549 163.65 345.294 149.551 367.645 135.452 C 389.995 121.352 418.483 101.115 420.639 101.115 C 422.796 101.115 428.573 105.096 426.403 120.633 C 426.403 120.633 443.349 105.815 444.068 115.933 C 444.787 126.052 441.898 131.111 446.598 140.151 C 451.284 149.192 462.106 177.017 462.466 185.339 C 462.825 193.66 388.558 243.533 388.558 243.533 L 359.711 239.193 Z" stroke-linecap="round"/>
</g>
		<g transform="matrix(1 0 0 1 -25.9021 -138.8529)" id="492666">
<path style="stroke: none; stroke-width: 1; stroke-dasharray: none; stroke-linecap: butt; stroke-dashoffset: 0; stroke-linejoin: miter; stroke-miterlimit: 4; is-custom-font: none; font-file-url: none; fill: rgb(253,253,253); fill-rule: nonzero; opacity: 1;" transform=" translate(-464.0979, -197.647)" d="M 453.896 190.067 C 453.896 190.067 457.145 180.473 465.576 180.667 C 473.994 180.86 475.819 197.932 473.179 202.922 C 470.552 207.912 466.143 213.275 459.826 214.63" stroke-linecap="round"/>
</g>
		<g transform="matrix(1 0 0 1 -25.902 -138.853)" id="498579">
<path style="stroke: rgb(0,0,0); stroke-width: 4.0049; stroke-dasharray: none; stroke-linecap: butt; stroke-dashoffset: 0; stroke-linejoin: round; stroke-miterlimit: 10; is-custom-font: none; font-file-url: none; fill: none; fill-rule: nonzero; opacity: 1;" transform=" translate(-464.0979, -197.647)" d="M 453.896 190.067 C 453.896 190.067 457.145 180.473 465.576 180.667 C 473.994 180.86 475.819 197.932 473.179 202.922 C 470.552 207.912 466.143 213.275 459.826 214.63" stroke-linecap="round"/>
</g>
		<g transform="matrix(1 0 0 1 -121.6987 -92.1964)" id="867660">
<path style="stroke: rgb(0,0,0); stroke-width: 4.0049; stroke-dasharray: none; stroke-linecap: butt; stroke-dashoffset: 0; stroke-linejoin: miter; stroke-miterlimit: 10; is-custom-font: none; font-file-url: none; fill: rgb(255,255,255); fill-rule: nonzero; opacity: 1;" transform=" translate(-368.3013, -244.3037)" d="M 355.246 233.734 C 355.246 233.734 351.141 243.714 355.246 249.202 C 359.352 254.676 371.266 259.611 383.181 252.077 L 372.828 232.684 L 355.246 233.734 Z" stroke-linecap="round"/>
</g>
		<g transform="matrix(1 0 0 1 -81.5564 -127.3247)" id="783165">
<path style="stroke: rgb(0,0,0); stroke-width: 4.0049; stroke-dasharray: none; stroke-linecap: butt; stroke-dashoffset: 0; stroke-linejoin: round; stroke-miterlimit: 10; is-custom-font: none; font-file-url: none; fill: rgb(253,253,253); fill-rule: nonzero; opacity: 1;" transform=" translate(-408.4436, -209.1754)" d="M 360.07 203.046 C 357.154 192.112 352.136 181.358 362.24 178.828 C 372.331 176.299 419.589 180.902 430.025 146.662 C 430.025 146.662 460.309 170.88 460.669 233.042 C 461.028 295.218 395.773 264.849 391.087 260.149 C 386.388 255.463 363.927 217.477 360.07 203.046 Z" stroke-linecap="round"/>
</g>
		<g transform="matrix(1 0 0 1 -90.2045 -128.961)" id="617294">
<path style="stroke: none; stroke-width: 1; stroke-dasharray: none; stroke-linecap: butt; stroke-dashoffset: 0; stroke-linejoin: miter; stroke-miterlimit: 4; is-custom-font: none; font-file-url: none; fill: rgb(0,0,0); fill-rule: nonzero; opacity: 1;" transform=" translate(-399.7955, -207.539)" d="M 399.796 215.031 C 402.406 215.031 404.523 211.677 404.523 207.539 C 404.523 203.401 402.406 200.047 399.796 200.047 C 397.185 200.047 395.068 203.401 395.068 207.539 C 395.068 211.677 397.185 215.031 399.796 215.031 Z" stroke-linecap="round"/>
</g>
		<g transform="matrix(1 0 0 1 -53.52 -138.8595)" id="984489">
<path style="stroke: none; stroke-width: 1; stroke-dasharray: none; stroke-linecap: butt; stroke-dashoffset: 0; stroke-linejoin: miter; stroke-miterlimit: 4; is-custom-font: none; font-file-url: none; fill: rgb(0,0,0); fill-rule: nonzero; opacity: 1;" transform=" translate(-436.48, -197.6405)" d="M 436.48 205.133 C 439.091 205.133 441.207 201.778 441.207 197.641 C 441.207 193.503 439.091 190.148 436.48 190.148 C 433.869 190.148 431.753 193.503 431.753 197.641 C 431.753 201.778 433.869 205.133 436.48 205.133 Z" stroke-linecap="round"/>
</g>
		<g transform="matrix(1 0 0 1 -100.7255 -137.6399)" id="132467">
<path style="stroke: rgb(0,0,0); stroke-width: 4.0049; stroke-dasharray: none; stroke-linecap: round; stroke-dashoffset: 0; stroke-linejoin: round; stroke-miterlimit: 10; is-custom-font: none; font-file-url: none; fill: none; fill-rule: nonzero; opacity: 1;" transform=" translate(-389.2745, -198.8601)" d="M 374.501 209.183 C 374.501 209.183 372.704 182.809 404.067 189.679" stroke-linecap="round"/>
</g>
		<g transform="matrix(1 0 0 1 -61.1813 -132.1891)" id="376645">
<path style="stroke: rgb(0,0,0); stroke-width: 4.0049; stroke-dasharray: none; stroke-linecap: round; stroke-dashoffset: 0; stroke-linejoin: round; stroke-miterlimit: 10; is-custom-font: none; font-file-url: none; fill: none; fill-rule: nonzero; opacity: 1;" transform=" translate(-428.8187, -204.311)" d="M 440.115 175.939 C 440.115 175.939 409.471 181.33 419.561 209.184 C 430.011 220.767 436.507 219.316 436.148 224.375 C 435.789 229.434 431.822 232.683 431.822 232.683" stroke-linecap="round"/>
</g>
		<g transform="matrix(1 0 0 1 -74.9516 -91.0397)" id="635411">
<path style="stroke: rgb(0,0,0); stroke-width: 4.0049; stroke-dasharray: none; stroke-linecap: round; stroke-dashoffset: 0; stroke-linejoin: round; stroke-miterlimit: 10; is-custom-font: none; font-file-url: none; fill: none; fill-rule: nonzero; opacity: 1;" transform=" translate(-415.0485, -245.4603)" d="M 404.053 241.723 C 404.053 241.723 413.065 257.26 426.044 243.533" stroke-linecap="round"/>
</g>
		<g transform="matrix(1 0 0 1 -285.534 -92.192)" id="550730">
<path style="stroke: none; stroke-width: 1; stroke-dasharray: none; stroke-linecap: butt; stroke-dashoffset: 0; stroke-linejoin: miter; stroke-miterlimit: 4; is-custom-font: none; font-file-url: none; fill: rgb(0,0,0); fill-rule: nonzero; opacity: 1;" transform=" translate(-204.466, -244.308)" d="M 198.018 250.874 C 199.843 250.874 201.626 250.404 203.174 249.506 C 206.367 251.33 210.306 251.33 213.499 249.506 C 215.061 250.39 216.83 250.874 218.669 250.874 C 220.161 250.874 221.364 249.658 221.364 248.179 C 221.364 246.686 220.148 245.483 218.669 245.483 C 217.425 245.483 216.236 245.027 215.31 244.198 C 214.287 243.285 212.739 243.285 211.702 244.198 C 209.781 245.912 206.892 245.912 204.971 244.198 C 203.948 243.285 202.4 243.285 201.363 244.198 C 200.437 245.027 199.234 245.483 198.004 245.483 C 195.226 245.483 192.959 243.216 192.959 240.438 C 192.959 238.945 191.743 237.742 190.264 237.742 C 188.771 237.742 187.568 238.959 187.568 240.438 C 187.568 246.188 192.254 250.874 198.018 250.874 Z" stroke-linecap="round"/>
</g>
		<g transform="matrix(1 0 0 1 -203.0355 -155.834)" id="994045">
<path style="stroke: none; stroke-width: 1; stroke-dasharray: none; stroke-linecap: butt; stroke-dashoffset: 0; stroke-linejoin: miter; stroke-miterlimit: 4; is-custom-font: none; font-file-url: none; fill: rgb(0,0,0); fill-rule: nonzero; opacity: 1;" transform=" translate(-286.9645, -180.666)" d="M 276.653 188.531 C 278.145 188.531 279.348 187.315 279.348 185.836 C 279.348 181.634 282.776 178.206 286.978 178.206 C 291.18 178.206 294.608 181.634 294.608 185.836 C 294.608 187.329 295.824 188.531 297.303 188.531 C 298.796 188.531 299.999 187.315 299.999 185.836 C 299.999 178.648 294.152 172.801 286.964 172.801 C 279.777 172.801 273.93 178.648 273.93 185.836 C 273.957 187.329 275.16 188.531 276.653 188.531 Z" stroke-linecap="round"/>
</g>
		<g transform="matrix(1 0 0 1 -200.319 -92.966)" id="47464">
<path style="stroke: none; stroke-width: 1; stroke-dasharray: none; stroke-linecap: butt; stroke-dashoffset: 0; stroke-linejoin: miter; stroke-miterlimit: 4; is-custom-font: none; font-file-url: none; fill: rgb(0,0,0); fill-rule: nonzero; opacity: 1;" transform=" translate(-289.681, -243.534)" d="M 292.383 243.534 C 292.383 247.142 286.979 247.142 286.979 243.534 C 286.979 239.926 292.383 239.926 292.383 243.534 Z" stroke-linecap="round"/>
</g>
		<g transform="matrix(1 0 0 1 -3.794 -239.878)" id="434480">
<path style="stroke: none; stroke-width: 1; stroke-dasharray: none; stroke-linecap: butt; stroke-dashoffset: 0; stroke-linejoin: miter; stroke-miterlimit: 4; is-custom-font: none; font-file-url: none; fill: rgb(0,0,0); fill-rule: nonzero; opacity: 1;" transform=" translate(-486.206, -96.622)" d="M 488.908 96.6218 C 488.908 100.23 483.504 100.23 483.504 96.6218 C 483.504 93.0141 488.908 93.0141 488.908 96.6218 Z" stroke-linecap="round"/>
</g>
		<g transform="matrix(1 0 0 1 217.708 -178.1152)" id="547224">
<path style="stroke: none; stroke-width: 1; stroke-dasharray: none; stroke-linecap: butt; stroke-dashoffset: 0; stroke-linejoin: miter; stroke-miterlimit: 4; is-custom-font: none; font-file-url: none; fill: rgb(0,0,0); fill-rule: nonzero; opacity: 1;" transform=" translate(-707.708, -158.3848)" d="M 710.41 158.382 C 710.41 161.99 705.006 161.99 705.006 158.382 C 705.006 154.775 710.41 154.788 710.41 158.382 Z" stroke-linecap="round"/>
</g>
		<g transform="matrix(1 0 0 1 -261.9395 -88.3234)" id="20571">
<path style="stroke: none; stroke-width: 1; stroke-dasharray: none; stroke-linecap: butt; stroke-dashoffset: 0; stroke-linejoin: miter; stroke-miterlimit: 4; is-custom-font: none; font-file-url: none; fill: rgb(0,0,0); fill-rule: nonzero; opacity: 1;" transform=" translate(-228.0605, -248.1766)" d="M 230.763 248.177 C 230.763 251.784 225.358 251.784 225.358 248.177 C 225.358 244.569 230.763 244.569 230.763 248.177 Z" stroke-linecap="round"/>
</g>
		<g transform="matrix(1 0 0 1 251.5585 -75.425)" id="150719">
<path style="stroke: none; stroke-width: 1; stroke-dasharray: none; stroke-linecap: butt; stroke-dashoffset: 0; stroke-linejoin: miter; stroke-miterlimit: 4; is-custom-font: none; font-file-url: none; fill: rgb(0,0,0); fill-rule: nonzero; opacity: 1;" transform=" translate(-741.5585, -261.075)" d="M 744.261 261.075 C 744.261 264.683 738.856 264.683 738.856 261.075 C 738.856 257.467 744.261 257.467 744.261 261.075 Z" stroke-linecap="round"/>
</g>
		<g transform="matrix(1 0 0 1 267.758 -115.9234)" id="820714">
<path style="stroke: none; stroke-width: 1; stroke-dasharray: none; stroke-linecap: butt; stroke-dashoffset: 0; stroke-linejoin: miter; stroke-miterlimit: 4; is-custom-font: none; font-file-url: none; fill: rgb(0,0,0); fill-rule: nonzero; opacity: 1;" transform=" translate(-757.758, -220.5766)" d="M 760.46 220.574 C 760.46 224.182 755.056 224.182 755.056 220.574 C 755.056 216.966 760.46 216.98 760.46 220.574 Z" stroke-linecap="round"/>
</g>
		<g transform="matrix(1 0 0 1 -231.406 -125.3684)" id="712348">
<path style="stroke: none; stroke-width: 1; stroke-dasharray: none; stroke-linecap: butt; stroke-dashoffset: 0; stroke-linejoin: miter; stroke-miterlimit: 4; is-custom-font: none; font-file-url: none; fill: rgb(0,0,0); fill-rule: nonzero; opacity: 1;" transform=" translate(-258.594, -211.1316)" d="M 261.296 211.132 C 261.296 214.739 255.892 214.739 255.892 211.132 C 255.892 207.524 261.296 207.524 261.296 211.132 Z" stroke-linecap="round"/>
</g>
		<g transform="matrix(1 0 0 1 220.0824 -69.1391)" id="834696">
<path style="stroke: none; stroke-width: 1; stroke-dasharray: none; stroke-linecap: butt; stroke-dashoffset: 0; stroke-linejoin: miter; stroke-miterlimit: 4; is-custom-font: none; font-file-url: none; fill: rgb(0,0,0); fill-rule: nonzero; opacity: 1;" transform=" translate(-710.0823, -267.3608)" d="M 702.145 261.047 C 702.836 259.527 704.633 258.808 706.195 259.513 C 707.397 260.052 707.978 260.619 708.089 263.466 C 708.171 265.692 710.77 266.853 712.484 265.457 C 713.811 264.379 714.682 263.922 715.414 263.922 C 715.788 263.922 716.202 264.033 716.7 264.254 C 718.248 264.945 718.939 266.77 718.234 268.304 C 716.686 271.732 712.083 272.589 705.642 274.76 C 705.227 273.751 704.799 272.783 704.37 271.843 C 702.117 266.77 700.901 263.784 702.145 261.047 Z M 701.564 279.128 C 702.09 280.524 703.651 281.229 705.048 280.704 C 712.581 277.856 720.211 277.068 723.155 270.53 C 725.076 266.272 723.182 261.255 718.911 259.333 C 716.893 258.421 714.848 258.227 712.733 259.015 C 712.056 257.26 710.798 255.656 708.42 254.592 C 704.121 252.657 699.132 254.62 697.224 258.822 C 694.943 263.881 697.127 268.816 699.436 274.027 C 700.141 275.658 700.887 277.331 701.564 279.128 Z" stroke-linecap="round"/>
</g>
		<g transform="matrix(1 0 0 1 -228.1998 -99.0656)" id="94950">
<path style="stroke: none; stroke-width: 1; stroke-dasharray: none; stroke-linecap: butt; stroke-dashoffset: 0; stroke-linejoin: miter; stroke-miterlimit: 4; is-custom-font: none; font-file-url: none; fill: rgb(0,0,0); fill-rule: nonzero; opacity: 1;" transform=" translate(-261.8002, -237.4343)" d="M 257.965 241.929 C 257.399 241.666 257.136 240.989 257.399 240.422 C 257.606 239.966 257.703 239.759 259.251 239.69 C 261.476 239.607 262.637 237.008 261.241 235.294 C 260.26 234.091 260.357 233.884 260.564 233.414 C 260.813 232.847 261.49 232.571 262.071 232.834 C 263.826 233.621 264.448 236.262 265.623 239.911 C 262.071 241.459 259.721 242.717 257.965 241.929 Z M 264.282 227.899 C 260.979 226.406 257.108 227.885 255.629 231.175 C 254.952 232.681 254.883 234.008 255.159 235.17 C 254.109 235.736 253.155 236.662 252.464 238.169 C 250.985 241.459 252.45 245.343 255.74 246.822 C 260.509 248.979 264.876 245.855 269.963 243.933 C 271.359 243.408 272.064 241.846 271.539 240.45 C 271.096 239.303 269.078 230.069 264.282 227.899 Z" stroke-linecap="round"/>
</g>
		<g transform="matrix(1 0 0 1 220.0785 -152.4608)" id="635606">
<path style="stroke: none; stroke-width: 1; stroke-dasharray: none; stroke-linecap: butt; stroke-dashoffset: 0; stroke-linejoin: miter; stroke-miterlimit: 4; is-custom-font: none; font-file-url: none; fill: rgb(0,0,0); fill-rule: nonzero; opacity: 1;" transform=" translate(-710.0785, -184.0391)" d="M 714.35 182.131 L 711.53 179.312 L 714.35 176.492 C 715.4 175.441 715.4 173.727 714.35 172.677 C 713.299 171.626 711.585 171.626 710.535 172.677 L 705.807 177.404 C 704.757 178.455 704.757 180.169 705.807 181.219 L 708.627 184.039 L 705.807 186.859 C 704.757 187.909 704.757 189.624 705.807 190.674 L 710.535 195.402 C 711.585 196.452 713.299 196.452 714.35 195.402 C 715.4 194.351 715.4 192.637 714.35 191.586 L 711.53 188.767 L 714.35 185.947 C 715.4 184.896 715.4 183.182 714.35 182.131 Z" stroke-linecap="round"/>
</g>
		<g transform="matrix(1 0 0 1 -1.0806 -221.8794)" id="561944">
<path style="stroke: none; stroke-width: 1; stroke-dasharray: none; stroke-linecap: butt; stroke-dashoffset: 0; stroke-linejoin: miter; stroke-miterlimit: 4; is-custom-font: none; font-file-url: none; fill: rgb(0,0,0); fill-rule: nonzero; opacity: 1;" transform=" translate(-488.9194, -114.6206)" d="M 482.992 112.767 L 487.042 113.582 L 485.217 115.407 C 483.738 116.886 484.443 119.429 486.475 119.941 C 494.05 121.807 493.745 121.821 494.326 121.821 C 495.542 121.821 496.634 121.005 496.938 119.775 C 497.298 118.324 496.413 116.858 494.976 116.499 L 492.405 115.863 L 494.437 113.831 C 495.957 112.311 495.169 109.698 493.054 109.27 L 484.056 107.473 C 482.591 107.182 481.167 108.122 480.877 109.587 C 480.573 111.053 481.526 112.476 482.992 112.767 Z" stroke-linecap="round"/>
</g>
		<g transform="matrix(1 0 0 1 12.412 -247.9778)" id="376784">
<path style="stroke: none; stroke-width: 1; stroke-dasharray: none; stroke-linecap: butt; stroke-dashoffset: 0; stroke-linejoin: miter; stroke-miterlimit: 4; is-custom-font: none; font-file-url: none; fill: rgb(0,0,0); fill-rule: nonzero; opacity: 1;" transform=" translate(-502.412, -88.5221)" d="M 502.412 85.8267 C 503.905 85.8267 505.108 87.0431 505.108 88.5221 C 505.108 90.0012 503.891 91.2176 502.412 91.2176 C 500.933 91.2176 499.717 90.0012 499.717 88.5221 C 499.717 87.0431 500.933 85.8267 502.412 85.8267 Z M 502.412 96.6224 C 506.877 96.6224 510.512 92.987 510.512 88.5221 C 510.512 84.0573 506.877 80.4219 502.412 80.4219 C 497.948 80.4219 494.312 84.0573 494.312 88.5221 C 494.312 92.987 497.948 96.6224 502.412 96.6224 Z" stroke-linecap="round"/>
</g>
		<g transform="matrix(1 0 0 1 262.3605 -94.3215)" id="368378">
<path style="stroke: none; stroke-width: 1; stroke-dasharray: none; stroke-linecap: butt; stroke-dashoffset: 0; stroke-linejoin: miter; stroke-miterlimit: 4; is-custom-font: none; font-file-url: none; fill: rgb(0,0,0); fill-rule: nonzero; opacity: 1;" transform=" translate(-752.3605, -242.1785)" d="M 752.361 247.57 C 749.389 247.57 746.956 245.151 746.956 242.165 C 746.956 239.179 749.375 236.76 752.361 236.76 C 755.332 236.76 757.765 239.179 757.765 242.165 C 757.765 245.151 755.332 247.57 752.361 247.57 Z M 752.361 231.383 C 746.403 231.383 741.565 236.221 741.565 242.179 C 741.565 248.136 746.403 252.974 752.361 252.974 C 758.318 252.974 763.156 248.136 763.156 242.179 C 763.156 236.221 758.318 231.383 752.361 231.383 Z" stroke-linecap="round"/>
</g>
</g>
</g>
<g transform="matrix(1 0 0 1 889.6615 103.8352)" style="" id="288200">
		
<path xml:space="preserve" font-family="Montserrat" font-size="83" font-weight="bold" style="stroke: none; stroke-width: 0; stroke-dasharray: none; stroke-linecap: butt; stroke-dashoffset: 0; stroke-linejoin: miter; stroke-miterlimit: 4; is-custom-font: none; font-file-url: none; fill: rgb(0,0,0); fill-rule: nonzero; opacity: 1; white-space: pre;" d="M-141.06 27.07Q-149.94 27.07-157.12 23.21Q-164.30 19.35-168.41 12.50Q-172.52 5.66-172.52-2.98L-172.52-2.98Q-172.52-11.61-168.41-18.46Q-164.30-25.30-157.12-29.16Q-149.94-33.02-140.98-33.02L-140.98-33.02Q-133.42-33.02-127.32-30.37Q-121.22-27.71-117.07-22.73L-117.07-22.73L-125.70-14.76Q-131.60-21.57-140.31-21.57L-140.31-21.57Q-145.71-21.57-149.94-19.20Q-154.17-16.84-156.54-12.60Q-158.90-8.37-158.90-2.98L-158.90-2.98Q-158.90 2.42-156.54 6.65Q-154.17 10.88-149.94 13.25Q-145.71 15.62-140.31 15.62L-140.31 15.62Q-131.60 15.62-125.70 8.73L-125.70 8.73L-117.07 16.69Q-121.22 21.76-127.36 24.41Q-133.51 27.07-141.06 27.07L-141.06 27.07ZM-89.27 26.74Q-96.32 26.74-101.92 23.79Q-107.53 20.84-110.68 15.62Q-113.83 10.39-113.83 3.75L-113.83 3.75Q-113.83-2.89-110.68-8.12Q-107.53-13.35-101.92-16.30Q-96.32-19.24-89.27-19.24L-89.27-19.24Q-82.21-19.24-76.65-16.30Q-71.09-13.35-67.94-8.12Q-64.78-2.89-64.78 3.75L-64.78 3.75Q-64.78 10.39-67.94 15.62Q-71.09 20.84-76.65 23.79Q-82.21 26.74-89.27 26.74L-89.27 26.74ZM-89.27 16.11Q-84.29 16.11-81.09 12.75Q-77.90 9.39-77.90 3.75L-77.90 3.75Q-77.90-1.90-81.09-5.26Q-84.29-8.62-89.27-8.62L-89.27-8.62Q-94.25-8.62-97.48-5.26Q-100.72-1.90-100.72 3.75L-100.72 3.75Q-100.72 9.39-97.48 12.75Q-94.25 16.11-89.27 16.11L-89.27 16.11ZM-29.01-19.24Q-20.71-19.24-15.60-14.26Q-10.50-9.28-10.50 0.51L-10.50 0.51L-10.50 26.07L-23.45 26.07L-23.45 2.50Q-23.45-2.81-25.77-5.42Q-28.10-8.04-32.49-8.04L-32.49-8.04Q-37.39-8.04-40.30-5.01Q-43.20-1.98-43.20 4.00L-43.20 4.00L-43.20 26.07L-56.15 26.07L-56.15-18.58L-43.78-18.58L-43.78-13.35Q-41.21-16.17-37.39-17.71Q-33.57-19.24-29.01-19.24L-29.01-19.24ZM26.52 14.79L30.00 23.92Q28.10 25.33 25.32 26.03Q22.53 26.74 19.46 26.74L19.46 26.74Q11.50 26.74 7.14 22.67Q2.78 18.60 2.78 10.72L2.78 10.72L2.78-7.62L-4.11-7.62L-4.11-17.58L2.78-17.58L2.78-28.46L15.73-28.46L15.73-17.58L26.85-17.58L26.85-7.62L15.73-7.62L15.73 10.55Q15.73 13.37 17.18 14.91Q18.63 16.45 21.29 16.45L21.29 16.45Q24.36 16.45 26.52 14.79L26.52 14.79ZM79.64 3.91Q79.64 4.16 79.39 7.40L79.39 7.40L45.61 7.40Q46.52 11.55 49.92 13.96Q53.33 16.36 58.39 16.36L58.39 16.36Q61.88 16.36 64.57 15.33Q67.27 14.29 69.60 12.05L69.60 12.05L76.48 19.52Q70.18 26.74 58.06 26.74L58.06 26.74Q50.51 26.74 44.70 23.79Q38.89 20.84 35.73 15.62Q32.58 10.39 32.58 3.75L32.58 3.75Q32.58-2.81 35.69-8.08Q38.80-13.35 44.24-16.30Q49.68-19.24 56.40-19.24L56.40-19.24Q62.96-19.24 68.27-16.42Q73.58-13.60 76.61-8.33Q79.64-3.06 79.64 3.91L79.64 3.91ZM56.48-9.45Q52.08-9.45 49.09-6.96Q46.11-4.47 45.44-0.15L45.44-0.15L67.44-0.15Q66.77-4.39 63.79-6.92Q60.80-9.45 56.48-9.45L56.48-9.45ZM115.41-19.24Q123.71-19.24 128.82-14.26Q133.92-9.28 133.92 0.51L133.92 0.51L133.92 26.07L120.97 26.07L120.97 2.50Q120.97-2.81 118.65-5.42Q116.32-8.04 111.93-8.04L111.93-8.04Q107.03-8.04 104.12-5.01Q101.22-1.98 101.22 4.00L101.22 4.00L101.22 26.07L88.27 26.07L88.27-18.58L100.64-18.58L100.64-13.35Q103.21-16.17 107.03-17.71Q110.85-19.24 115.41-19.24L115.41-19.24ZM170.94 14.79L174.42 23.92Q172.52 25.33 169.74 26.03Q166.95 26.74 163.88 26.74L163.88 26.74Q155.92 26.74 151.56 22.67Q147.20 18.60 147.20 10.72L147.20 10.72L147.20-7.62L140.31-7.62L140.31-17.58L147.20-17.58L147.20-28.46L160.15-28.46L160.15-17.58L171.27-17.58L171.27-7.62L160.15-7.62L160.15 10.55Q160.15 13.37 161.60 14.91Q163.05 16.45 165.71 16.45L165.71 16.45Q168.78 16.45 170.94 14.79L170.94 14.79Z"/></g>
<g transform="matrix(1 0 0 1 889.6616 211.7925)" style="" id="57755">
		
<path xml:space="preserve" font-family="Montserrat" font-size="128" font-weight="bold" style="stroke: none; stroke-width: 0; stroke-dasharray: none; stroke-linecap: butt; stroke-dashoffset: 0; stroke-linejoin: miter; stroke-miterlimit: 4; is-custom-font: none; font-file-url: none; fill: rgb(57,95,254); fill-rule: nonzero; opacity: 1; white-space: pre;" d="M-265.66 40.21L-265.66-49.39L-224.96-49.39Q-210.37-49.39-199.17-43.82Q-187.97-38.25-181.76-28.14Q-175.55-18.03-175.55-4.59L-175.55-4.59Q-175.55 8.85-181.76 18.96Q-187.97 29.07-199.17 34.64Q-210.37 40.21-224.96 40.21L-224.96 40.21L-265.66 40.21ZM-244.93 23.19L-225.98 23.19Q-212.54 23.19-204.54 15.70Q-196.54 8.21-196.54-4.59L-196.54-4.59Q-196.54-17.39-204.54-24.88Q-212.54-32.37-225.98-32.37L-225.98-32.37L-244.93-32.37L-244.93 23.19ZM-93.89 6.03Q-93.89 6.42-94.27 11.41L-94.27 11.41L-146.37 11.41Q-144.96 17.81-139.71 21.52Q-134.46 25.23-126.66 25.23L-126.66 25.23Q-121.28 25.23-117.12 23.63Q-112.96 22.03-109.38 18.58L-109.38 18.58L-98.75 30.10Q-108.48 41.23-127.17 41.23L-127.17 41.23Q-138.82 41.23-147.78 36.69Q-156.74 32.15-161.60 24.08Q-166.46 16.02-166.46 5.78L-166.46 5.78Q-166.46-4.33-161.66-12.46Q-156.86-20.59-148.48-25.13Q-140.10-29.68-129.73-29.68L-129.73-29.68Q-119.62-29.68-111.42-25.33Q-103.23-20.97-98.56-12.85Q-93.89-4.72-93.89 6.03L-93.89 6.03ZM-129.60-14.57Q-136.38-14.57-140.99-10.73Q-145.60-6.89-146.62-0.24L-146.62-0.24L-112.70-0.24Q-113.73-6.77-118.34-10.67Q-122.94-14.57-129.60-14.57L-129.60-14.57ZM-80.58 40.21L-80.58-54.77L-60.61-54.77L-60.61 40.21L-80.58 40.21ZM-42.05 40.21L-42.05-28.65L-22.08-28.65L-22.08 40.21L-42.05 40.21ZM-32.06-38.25Q-37.57-38.25-41.02-41.45Q-44.48-44.65-44.48-49.39L-44.48-49.39Q-44.48-54.13-41.02-57.33Q-37.57-60.53-32.06-60.53L-32.06-60.53Q-26.56-60.53-23.10-57.45Q-19.65-54.38-19.65-49.77L-19.65-49.77Q-19.65-44.78-23.10-41.52Q-26.56-38.25-32.06-38.25L-32.06-38.25ZM45.63-28.65L64.83-28.65L35.78 40.21L15.17 40.21L-13.76-28.65L6.85-28.65L25.92 18.19L45.63-28.65ZM138.56 6.03Q138.56 6.42 138.18 11.41L138.18 11.41L86.08 11.41Q87.49 17.81 92.74 21.52Q97.98 25.23 105.79 25.23L105.79 25.23Q111.17 25.23 115.33 23.63Q119.49 22.03 123.07 18.58L123.07 18.58L133.70 30.10Q123.97 41.23 105.28 41.23L105.28 41.23Q93.63 41.23 84.67 36.69Q75.71 32.15 70.85 24.08Q65.98 16.02 65.98 5.78L65.98 5.78Q65.98-4.33 70.78-12.46Q75.58-20.59 83.97-25.13Q92.35-29.68 102.72-29.68L102.72-29.68Q112.83-29.68 121.02-25.33Q129.22-20.97 133.89-12.85Q138.56-4.72 138.56 6.03L138.56 6.03ZM102.85-14.57Q96.06-14.57 91.46-10.73Q86.85-6.89 85.82-0.24L85.82-0.24L119.74-0.24Q118.72-6.77 114.11-10.67Q109.50-14.57 102.85-14.57L102.85-14.57ZM170.94-19.57Q174.53-24.56 180.61-27.12Q186.69-29.68 194.62-29.68L194.62-29.68L194.62-11.25Q191.30-11.50 190.14-11.50L190.14-11.50Q181.57-11.50 176.70-6.70Q171.84-1.90 171.84 7.70L171.84 7.70L171.84 40.21L151.87 40.21L151.87-28.65L170.94-28.65L170.94-19.57ZM258.11-28.65L277.31-28.65L246.21 44.43Q241.47 56.34 234.50 61.20Q227.52 66.07 217.66 66.07L217.66 66.07Q212.29 66.07 207.04 64.40Q201.79 62.74 198.46 59.79L198.46 59.79L205.76 45.59Q208.06 47.63 211.07 48.79Q214.08 49.94 217.02 49.94L217.02 49.94Q221.12 49.94 223.68 47.95Q226.24 45.97 228.29 41.36L228.29 41.36L228.54 40.72L198.72-28.65L219.33-28.65L238.66 18.07L258.11-28.65Z"/></g>
<g transform="matrix(2.9652 -2.377 2.377 2.9652 1138.3953 512.2735)" id="632293">
<path style="stroke: none; stroke-width: 0; stroke-dasharray: none; stroke-linecap: butt; stroke-dashoffset: 0; stroke-linejoin: miter; stroke-miterlimit: 4; is-custom-font: none; font-file-url: none; fill: rgb(150,100,255); fill-rule: nonzero; opacity: 0.75;" vector-effect="non-scaling-stroke" transform=" translate(-37.5, -49)" d="M 1.77331 27.35 C -4.01435 50.3889 5.31622 71.089 16.0396 81.1568 C 26.2897 90.781 40.1233 98.0932 58.2435 97.9991 C 73.0507 97.9184 79.3116 83.3074 71.8337 74.0999 C 60.1231 59.6636 56.8777 51.4373 55.4308 37.7134 C 53.6729 21.0324 54.6871 10.0103 42.0976 2.29478 C 32.0909 -3.83459 8.25061 1.59582 1.77331 27.35 Z" stroke-linecap="round"/>
</g>
<g transform="matrix(1 0 0 1 877.376 331.0472)" style="" id="329799">
		
<path xml:space="preserve" font-family="Montserrat" font-size="128" font-weight="bold" style="stroke: none; stroke-width: 0; stroke-dasharray: none; stroke-linecap: butt; stroke-dashoffset: 0; stroke-linejoin: miter; stroke-miterlimit: 4; is-custom-font: none; font-file-url: none; fill: rgb(0,0,0); fill-rule: nonzero; opacity: 1; white-space: pre;" d="M-250.30-49.39L-229.82-49.39L-229.82 40.21L-246.85 40.21L-291.52-14.19L-291.52 40.21L-312 40.21L-312-49.39L-294.85-49.39L-250.30 5.01L-250.30-49.39ZM-142.53 6.03Q-142.53 6.42-142.91 11.41L-142.91 11.41L-195.01 11.41Q-193.60 17.81-188.35 21.52Q-183.10 25.23-175.30 25.23L-175.30 25.23Q-169.92 25.23-165.76 23.63Q-161.60 22.03-158.02 18.58L-158.02 18.58L-147.39 30.10Q-157.12 41.23-175.81 41.23L-175.81 41.23Q-187.46 41.23-196.42 36.69Q-205.38 32.15-210.24 24.08Q-215.10 16.02-215.10 5.78L-215.10 5.78Q-215.10-4.33-210.30-12.46Q-205.50-20.59-197.12-25.13Q-188.74-29.68-178.37-29.68L-178.37-29.68Q-168.26-29.68-160.06-25.33Q-151.87-20.97-147.20-12.85Q-142.53-4.72-142.53 6.03L-142.53 6.03ZM-178.24-14.57Q-185.02-14.57-189.63-10.73Q-194.24-6.89-195.26-0.24L-195.26-0.24L-161.34-0.24Q-162.37-6.77-166.98-10.67Q-171.58-14.57-178.24-14.57L-178.24-14.57ZM-90.18 22.80L-84.80 36.88Q-87.74 39.06-92.03 40.15Q-96.32 41.23-101.06 41.23L-101.06 41.23Q-113.34 41.23-120.06 34.96Q-126.78 28.69-126.78 16.53L-126.78 16.53L-126.78-11.76L-137.41-11.76L-137.41-27.12L-126.78-27.12L-126.78-43.89L-106.82-43.89L-106.82-27.12L-89.66-27.12L-89.66-11.76L-106.82-11.76L-106.82 16.27Q-106.82 20.63-104.58 22.99Q-102.34 25.36-98.24 25.36L-98.24 25.36Q-93.50 25.36-90.18 22.80L-90.18 22.80ZM18.11-28.65L35.78-28.65L10.82 40.21L-8.38 40.21L-23.87-2.54L-39.87 40.21L-59.07 40.21L-83.90-28.65L-65.09-28.65L-48.83 17.94L-31.94-28.65L-15.04-28.65L1.34 17.94L18.11-28.65ZM75.97 41.23Q65.09 41.23 56.45 36.69Q47.81 32.15 42.94 24.08Q38.08 16.02 38.08 5.78L38.08 5.78Q38.08-4.46 42.94-12.53Q47.81-20.59 56.45-25.13Q65.09-29.68 75.97-29.68L75.97-29.68Q86.85-29.68 95.42-25.13Q104-20.59 108.86-12.53Q113.73-4.46 113.73 5.78L113.73 5.78Q113.73 16.02 108.86 24.08Q104 32.15 95.42 36.69Q86.85 41.23 75.97 41.23L75.97 41.23ZM75.97 24.85Q83.65 24.85 88.58 19.67Q93.50 14.48 93.50 5.78L93.50 5.78Q93.50-2.93 88.58-8.11Q83.65-13.29 75.97-13.29L75.97-13.29Q68.29-13.29 63.30-8.11Q58.30-2.93 58.30 5.78L58.30 5.78Q58.30 14.48 63.30 19.67Q68.29 24.85 75.97 24.85L75.97 24.85ZM146.11-19.57Q149.70-24.56 155.78-27.12Q161.86-29.68 169.79-29.68L169.79-29.68L169.79-11.25Q166.46-11.50 165.31-11.50L165.31-11.50Q156.74-11.50 151.87-6.70Q147.01-1.90 147.01 7.70L147.01 7.70L147.01 40.21L127.04 40.21L127.04-28.65L146.11-28.65L146.11-19.57ZM233.02 40.21L211.26 13.20L201.66 22.67L201.66 40.21L181.70 40.21L181.70-54.77L201.66-54.77L201.66-1.01L230.85-28.65L254.66-28.65L225.98 0.53L257.22 40.21L233.02 40.21ZM287.04 41.23Q278.46 41.23 270.27 39.12Q262.08 37.01 257.22 33.81L257.22 33.81L263.87 19.47Q268.48 22.42 275.01 24.27Q281.54 26.13 287.81 26.13L287.81 26.13Q300.48 26.13 300.48 19.86L300.48 19.86Q300.48 16.91 297.02 15.63Q293.57 14.35 286.40 13.46L286.40 13.46Q277.95 12.18 272.45 10.51Q266.94 8.85 262.91 4.63Q258.88 0.40 258.88-7.41L258.88-7.41Q258.88-13.93 262.66-18.99Q266.43-24.05 273.66-26.86Q280.90-29.68 290.75-29.68L290.75-29.68Q298.05-29.68 305.28-28.08Q312.51-26.48 317.25-23.66L317.25-23.66L310.59-9.45Q301.50-14.57 290.75-14.57L290.75-14.57Q284.35-14.57 281.15-12.78Q277.95-10.99 277.95-8.17L277.95-8.17Q277.95-4.97 281.41-3.69Q284.86-2.41 292.42-1.26L292.42-1.26Q300.86 0.15 306.24 1.75Q311.62 3.35 315.58 7.57Q319.55 11.79 319.55 19.35L319.55 19.35Q319.55 25.75 315.71 30.74Q311.87 35.73 304.51 38.48Q297.15 41.23 287.04 41.23L287.04 41.23Z"/></g>
<g transform="matrix(1.6023 0.4037 -0.4037 1.6023 1055.848 437.9673)" id="571304">
<path style="stroke: none; stroke-width: 0; stroke-dasharray: none; stroke-linecap: butt; stroke-dashoffset: 0; stroke-linejoin: miter; stroke-miterlimit: 4; is-custom-font: none; font-file-url: none; fill: rgb(89,92,212); fill-rule: nonzero; opacity: 1;" vector-effect="non-scaling-stroke" transform=" translate(-67.5, -67.5)" d="M 67.5 135 C 104.779 135 135 104.779 135 67.5 C 135 30.2208 104.779 0 67.5 0 C 30.2208 0 0 30.2208 0 67.5 C 0 104.779 30.2208 135 67.5 135 Z" stroke-linecap="round"/>
</g>
<g transform="matrix(0.9365 -0.3507 0.3507 0.9365 1055.5661 429.9321)" style="" id="26375">
		
<path xml:space="preserve" font-family="Montserrat" font-size="26" font-weight="bold" style="stroke: none; stroke-width: 0; stroke-dasharray: none; stroke-linecap: butt; stroke-dashoffset: 0; stroke-linejoin: miter; stroke-miterlimit: 4; is-custom-font: none; font-file-url: none; fill: rgb(255,255,255); fill-rule: nonzero; opacity: 1; white-space: pre;" d="M-16.51-19.87L-26.05-19.87L-26.05-15.06L-17.63-15.06L-17.63-11.68L-26.05-11.68L-26.05-5.05L-30.26-5.05L-30.26-23.25L-16.51-23.25L-16.51-19.87ZM-5.02-4.74Q-7.85-4.74-10.13-5.96Q-12.40-7.19-13.69-9.33Q-14.98-11.48-14.98-14.15L-14.98-14.15Q-14.98-16.83-13.69-18.98Q-12.40-21.12-10.13-22.34Q-7.85-23.57-5.02-23.57L-5.02-23.57Q-2.18-23.57 0.08-22.34Q2.34-21.12 3.64-18.98Q4.94-16.83 4.94-14.15L4.94-14.15Q4.94-11.48 3.64-9.33Q2.34-7.19 0.08-5.96Q-2.18-4.74-5.02-4.74L-5.02-4.74ZM-5.02-8.33Q-3.41-8.33-2.11-9.07Q-0.81-9.81-0.06-11.14Q0.68-12.46 0.68-14.15L0.68-14.15Q0.68-15.84-0.06-17.17Q-0.81-18.50-2.11-19.24Q-3.41-19.98-5.02-19.98L-5.02-19.98Q-6.63-19.98-7.93-19.24Q-9.23-18.50-9.97-17.17Q-10.71-15.84-10.71-14.15L-10.71-14.15Q-10.71-12.46-9.97-11.14Q-9.23-9.81-7.93-9.07Q-6.63-8.33-5.02-8.33L-5.02-8.33ZM24.23-5.05L19.71-5.05L16.20-10.12L15.99-10.12L12.32-10.12L12.32-5.05L8.11-5.05L8.11-23.25L15.99-23.25Q18.41-23.25 20.19-22.45Q21.97-21.64 22.93-20.16Q23.89-18.68 23.89-16.65L23.89-16.65Q23.89-14.62 22.92-13.15Q21.94-11.68 20.15-10.90L20.15-10.90L24.23-5.05ZM19.63-16.65Q19.63-18.18 18.64-19.00Q17.65-19.82 15.76-19.82L15.76-19.82L12.32-19.82L12.32-13.48L15.76-13.48Q17.65-13.48 18.64-14.31Q19.63-15.14 19.63-16.65L19.63-16.65Z"/><path xml:space="preserve" font-family="Montserrat" font-size="26" font-weight="bold" style="stroke: none; stroke-width: 0; stroke-dasharray: none; stroke-linecap: butt; stroke-dashoffset: 0; stroke-linejoin: miter; stroke-miterlimit: 4; is-custom-font: none; font-file-url: none; fill: rgb(255,255,255); fill-rule: nonzero; opacity: 1; white-space: pre;" d="M-68.50 18.01L-58.59 18.01L-58.59 21.39L-72.68 21.39L-72.68 3.19L-58.93 3.19L-58.93 6.57L-68.50 6.57L-68.50 10.52L-60.05 10.52L-60.05 13.80L-68.50 13.80L-68.50 18.01ZM-42.18 3.19L-38.00 3.19L-45.88 21.39L-50.04 21.39L-57.89 3.19L-53.34 3.19L-47.80 16.19L-42.18 3.19ZM-32.30 18.01L-22.40 18.01L-22.40 21.39L-36.49 21.39L-36.49 3.19L-22.74 3.19L-22.74 6.57L-32.30 6.57L-32.30 10.52L-23.85 10.52L-23.85 13.80L-32.30 13.80L-32.30 18.01ZM-2.92 21.39L-7.45 21.39L-10.96 16.32L-11.17 16.32L-14.83 16.32L-14.83 21.39L-19.04 21.39L-19.04 3.19L-11.17 3.19Q-8.75 3.19-6.97 3.99Q-5.19 4.80-4.22 6.28Q-3.26 7.76-3.26 9.79L-3.26 9.79Q-3.26 11.82-4.24 13.29Q-5.21 14.76-7.01 15.54L-7.01 15.54L-2.92 21.39ZM-7.53 9.79Q-7.53 8.26-8.51 7.44Q-9.50 6.62-11.40 6.62L-11.40 6.62L-14.83 6.62L-14.83 12.96L-11.40 12.96Q-9.50 12.96-8.51 12.13Q-7.53 11.30-7.53 9.79L-7.53 9.79ZM15.61 3.19L8.54 14.94L8.54 21.39L4.33 21.39L4.33 14.89L-2.72 3.19L1.76 3.19L6.62 11.27L11.48 3.19L15.61 3.19ZM25.42 21.70Q22.58 21.70 20.31 20.48Q18.03 19.26 16.74 17.11Q15.46 14.97 15.46 12.29L15.46 12.29Q15.46 9.61 16.74 7.47Q18.03 5.32 20.31 4.10Q22.58 2.88 25.42 2.88L25.42 2.88Q28.25 2.88 30.51 4.10Q32.77 5.32 34.07 7.47Q35.37 9.61 35.37 12.29L35.37 12.29Q35.37 14.97 34.07 17.11Q32.77 19.26 30.51 20.48Q28.25 21.70 25.42 21.70L25.42 21.70ZM25.42 18.11Q27.03 18.11 28.33 17.37Q29.63 16.63 30.37 15.30Q31.11 13.98 31.11 12.29L31.11 12.29Q31.11 10.60 30.37 9.27Q29.63 7.95 28.33 7.21Q27.03 6.46 25.42 6.46L25.42 6.46Q23.80 6.46 22.50 7.21Q21.20 7.95 20.46 9.27Q19.72 10.60 19.72 12.29L19.72 12.29Q19.72 13.98 20.46 15.30Q21.20 16.63 22.50 17.37Q23.80 18.11 25.42 18.11L25.42 18.11ZM51.08 3.19L55.24 3.19L55.24 21.39L51.78 21.39L42.71 10.34L42.71 21.39L38.55 21.39L38.55 3.19L42.03 3.19L51.08 14.24L51.08 3.19ZM63.74 18.01L73.65 18.01L73.65 21.39L59.55 21.39L59.55 3.19L73.31 3.19L73.31 6.57L63.74 6.57L63.74 10.52L72.19 10.52L72.19 13.80L63.74 13.80L63.74 18.01Z"/></g>
<g transform="matrix(2.5478 0 0 1 605.9491 574.5)" id="123114">
<filter id="SVGID_3" y="-60%" height="220%" x="-42.989999999999995%" width="185.98%">
	<feGaussianBlur in="SourceAlpha" stdDeviation="5"/>
	<feOffset dx="10" dy="10" result="oBlur"/>
	<feFlood flood-color="rgb(0,0,0)" flood-opacity="1"/>
	<feComposite in2="oBlur" operator="in"/>
	<feMerge>
		<feMergeNode/>
		<feMergeNode in="SourceGraphic"/>
	</feMerge>
</filter>
<path style="stroke: none; stroke-width: 1; stroke-dasharray: none; stroke-linecap: butt; stroke-dashoffset: 0; stroke-linejoin: miter; stroke-miterlimit: 4; is-custom-font: none; font-file-url: none; fill: rgb(255,255,255); fill-rule: nonzero; opacity: 0.01;filter: url(#SVGID_3);" vector-effect="non-scaling-stroke" transform=" translate(-43.5, -25)" d="M 87 0 H 0 V 50 H 87 V 0 Z" stroke-linecap="round"/>
</g>
<g transform="matrix(1 0 0 1 600 574.5)" style="" id="776472">
		
<path xml:space="preserve" font-family="Lato" font-size="24" style="stroke: none; stroke-width: 1; stroke-dasharray: none; stroke-linecap: butt; stroke-dashoffset: 0; stroke-linejoin: miter; stroke-miterlimit: 4; is-custom-font: none; font-file-url: none; fill: rgb(0,0,0); fill-rule: nonzero; opacity: 1; white-space: pre;" d="M-85.23-0.24L-85.23 7.54L-86.17 7.54Q-86.49 7.54-86.68 7.44Q-86.87 7.35-86.93 7.04L-86.93 7.04L-87.17 5.91Q-87.65 6.34-88.11 6.68Q-88.56 7.02-89.07 7.26Q-89.57 7.49-90.14 7.61Q-90.71 7.73-91.41 7.73L-91.41 7.73Q-92.11 7.73-92.73 7.53Q-93.35 7.34-93.81 6.94Q-94.26 6.54-94.53 5.94Q-94.80 5.33-94.80 4.50L-94.80 4.50Q-94.80 3.78-94.41 3.12Q-94.01 2.45-93.13 1.94Q-92.25 1.42-90.82 1.09Q-89.39 0.76-87.33 0.71L-87.33 0.71L-87.33-0.24Q-87.33-1.65-87.93-2.38Q-88.54-3.10-89.73-3.10L-89.73-3.10Q-90.51-3.10-91.04-2.91Q-91.57-2.71-91.96-2.46Q-92.35-2.22-92.64-2.02Q-92.92-1.82-93.19-1.82L-93.19-1.82Q-93.41-1.82-93.57-1.93Q-93.73-2.05-93.83-2.22L-93.83-2.22L-94.21-2.90Q-93.21-3.87-92.04-4.35Q-90.88-4.83-89.46-4.83L-89.46-4.83Q-88.44-4.83-87.65-4.50Q-86.86-4.16-86.32-3.56Q-85.78-2.96-85.50-2.11Q-85.23-1.26-85.23-0.24L-85.23-0.24ZM-90.77 6.23L-90.77 6.23Q-90.21 6.23-89.74 6.12Q-89.27 6.00-88.86 5.79Q-88.44 5.58-88.06 5.28Q-87.69 4.98-87.33 4.60L-87.33 4.60L-87.33 2.07Q-88.80 2.12-89.83 2.30Q-90.87 2.49-91.51 2.79Q-92.16 3.09-92.46 3.50Q-92.75 3.90-92.75 4.41L-92.75 4.41Q-92.75 4.89-92.59 5.24Q-92.44 5.58-92.17 5.81Q-91.91 6.03-91.55 6.13Q-91.19 6.23-90.77 6.23ZM-79.85 7.54L-81.99 7.54L-81.99-4.62L-80.71-4.62Q-80.26-4.62-80.14-4.17L-80.14-4.17L-79.97-2.85Q-79.18-3.73-78.20-4.27Q-77.22-4.81-75.94-4.81L-75.94-4.81Q-74.94-4.81-74.18-4.48Q-73.42-4.15-72.91-3.54Q-72.40-2.94-72.13-2.08Q-71.87-1.23-71.87-0.20L-71.87-0.20L-71.87 7.54L-74.01 7.54L-74.01-0.20Q-74.01-1.58-74.64-2.34Q-75.27-3.10-76.56-3.10L-76.56-3.10Q-77.51-3.10-78.33-2.65Q-79.15-2.19-79.85-1.41L-79.85-1.41L-79.85 7.54ZM-58.81 7.54L-60.09 7.54Q-60.54 7.54-60.66 7.10L-60.66 7.10L-60.85 5.62Q-61.63 6.57-62.64 7.14Q-63.64 7.71-64.93 7.71L-64.93 7.71Q-65.98 7.71-66.83 7.31Q-67.68 6.90-68.28 6.12Q-68.88 5.34-69.21 4.18Q-69.53 3.02-69.53 1.50L-69.53 1.50Q-69.53 0.16-69.17-1.00Q-68.81-2.16-68.13-3.01Q-67.45-3.86-66.48-4.35Q-65.51-4.83-64.27-4.83L-64.27-4.83Q-63.16-4.83-62.37-4.45Q-61.57-4.08-60.95-3.39L-60.95-3.39L-60.95-10.14L-58.81-10.14L-58.81 7.54ZM-64.23 5.98L-64.23 5.98Q-63.18 5.98-62.40 5.50Q-61.61 5.02-60.95 4.14L-60.95 4.14L-60.95-1.74Q-61.54-2.53-62.24-2.85Q-62.94-3.16-63.79-3.16L-63.79-3.16Q-65.50-3.16-66.41-1.95Q-67.32-0.74-67.32 1.50L-67.32 1.50Q-67.32 2.69-67.12 3.54Q-66.91 4.38-66.52 4.93Q-66.12 5.48-65.55 5.73Q-64.97 5.98-64.23 5.98ZM-53.09 7.54L-55.23 7.54L-55.23-4.62L-54.00-4.62Q-53.65-4.62-53.52-4.48Q-53.39-4.35-53.34-4.03L-53.34-4.03L-53.20-2.13Q-52.57-3.40-51.66-4.12Q-50.74-4.83-49.50-4.83L-49.50-4.83Q-49.00-4.83-48.59-4.72Q-48.18-4.60-47.83-4.40L-47.83-4.40L-48.11-2.80Q-48.19-2.50-48.48-2.50L-48.48-2.50Q-48.65-2.50-49.00-2.62Q-49.35-2.73-49.97-2.73L-49.97-2.73Q-51.09-2.73-51.84-2.08Q-52.59-1.44-53.09-0.20L-53.09-0.20L-53.09 7.54ZM-40.74-4.81L-40.74-4.81Q-39.65-4.81-38.73-4.44Q-37.80-4.08-37.13-3.39Q-36.46-2.70-36.08-1.68Q-35.70-0.67-35.70 0.63L-35.70 0.63Q-35.70 1.13-35.81 1.30Q-35.92 1.47-36.22 1.47L-36.22 1.47L-44.31 1.47Q-44.28 2.62-43.99 3.47Q-43.71 4.32-43.20 4.89Q-42.70 5.46-42.00 5.75Q-41.31 6.03-40.44 6.03L-40.44 6.03Q-39.64 6.03-39.06 5.84Q-38.47 5.66-38.05 5.44Q-37.63 5.22-37.35 5.04Q-37.07 4.85-36.87 4.85L-36.87 4.85Q-36.60 4.85-36.46 5.06L-36.46 5.06L-35.86 5.84Q-36.25 6.32-36.81 6.67Q-37.36 7.02-37.99 7.25Q-38.62 7.48-39.29 7.59Q-39.96 7.71-40.62 7.71L-40.62 7.71Q-41.88 7.71-42.94 7.28Q-44.01 6.86-44.78 6.03Q-45.55 5.21-45.99 4.00Q-46.42 2.79-46.42 1.22L-46.42 1.22Q-46.42-0.06-46.03-1.16Q-45.64-2.26-44.91-3.07Q-44.17-3.88-43.12-4.35Q-42.06-4.81-40.74-4.81ZM-40.69-3.24L-40.69-3.24Q-42.24-3.24-43.13-2.34Q-44.02-1.45-44.23 0.14L-44.23 0.14L-37.62 0.14Q-37.62-0.61-37.83-1.23Q-38.03-1.84-38.43-2.29Q-38.82-2.74-39.39-2.99Q-39.96-3.24-40.69-3.24ZM-30.63 7.54L-34.56-4.62L-32.88-4.62Q-32.62-4.62-32.45-4.48Q-32.28-4.35-32.22-4.17L-32.22-4.17L-29.89 3.65Q-29.80 4.08-29.71 4.49Q-29.63 4.89-29.57 5.30L-29.57 5.30Q-29.47 4.89-29.35 4.49Q-29.23 4.08-29.10 3.65L-29.10 3.65L-26.53-4.22Q-26.47-4.40-26.32-4.52Q-26.17-4.64-25.95-4.64L-25.95-4.64L-25.02-4.64Q-24.78-4.64-24.63-4.52Q-24.47-4.40-24.41-4.22L-24.41-4.22L-21.90 3.65Q-21.77 4.07-21.67 4.48Q-21.57 4.89-21.47 5.28L-21.47 5.28Q-21.41 4.89-21.31 4.46Q-21.22 4.02-21.11 3.65L-21.11 3.65L-18.73-4.17Q-18.67-4.36-18.51-4.49Q-18.34-4.62-18.11-4.62L-18.11-4.62L-16.50-4.62L-20.44 7.54L-22.13 7.54Q-22.44 7.54-22.56 7.13L-22.56 7.13L-25.25-1.11Q-25.35-1.39-25.41-1.67Q-25.47-1.95-25.53-2.23L-25.53-2.23Q-25.59-1.95-25.65-1.66Q-25.71-1.38-25.80-1.10L-25.80-1.10L-28.53 7.13Q-28.66 7.54-29.02 7.54L-29.02 7.54L-30.63 7.54ZM-15.15 1.25L-15.15-0.56L-9.22-0.56L-9.22 1.25L-15.15 1.25ZM-4.13 7.54L-6.27 7.54L-6.27-4.62L-4.99-4.62Q-4.54-4.62-4.42-4.17L-4.42-4.17L-4.26-2.92Q-3.59-3.75-2.76-4.28Q-1.92-4.81-0.82-4.81L-0.82-4.81Q0.42-4.81 1.18-4.12Q1.94-3.44 2.28-2.28L2.28-2.28Q2.53-2.94 2.94-3.42Q3.36-3.90 3.87-4.21Q4.39-4.52 4.97-4.66Q5.55-4.81 6.15-4.81L6.15-4.81Q7.11-4.81 7.86-4.50Q8.61-4.20 9.14-3.61Q9.66-3.02 9.93-2.16Q10.21-1.30 10.21-0.20L10.21-0.20L10.21 7.54L8.07 7.54L8.07-0.20Q8.07-1.63 7.45-2.37Q6.83-3.10 5.64-3.10L5.64-3.10Q5.11-3.10 4.64-2.92Q4.16-2.73 3.80-2.37Q3.44-2.01 3.23-1.47Q3.02-0.92 3.02-0.20L3.02-0.20L3.02 7.54L0.89 7.54L0.89-0.20Q0.89-1.66 0.30-2.38Q-0.29-3.10-1.42-3.10L-1.42-3.10Q-2.21-3.10-2.89-2.68Q-3.57-2.25-4.13-1.52L-4.13-1.52L-4.13 7.54ZM22.29-3.22L21.73-2.46Q21.63-2.32 21.54-2.25Q21.44-2.18 21.26-2.18L21.26-2.18Q21.08-2.18 20.87-2.33Q20.66-2.48 20.34-2.66Q20.01-2.84 19.55-2.99Q19.09-3.14 18.42-3.14L18.42-3.14Q17.53-3.14 16.85-2.82Q16.16-2.50 15.70-1.90Q15.24-1.30 15.00-0.45Q14.77 0.40 14.77 1.46L14.77 1.46Q14.77 2.56 15.02 3.42Q15.27 4.28 15.73 4.86Q16.19 5.44 16.84 5.75Q17.49 6.05 18.31 6.05L18.31 6.05Q19.09 6.05 19.59 5.87Q20.10 5.68 20.43 5.45Q20.77 5.22 20.99 5.04Q21.20 4.85 21.42 4.85L21.42 4.85Q21.69 4.85 21.83 5.06L21.83 5.06L22.43 5.84Q21.63 6.81 20.45 7.26Q19.26 7.71 17.94 7.71L17.94 7.71Q16.80 7.71 15.82 7.29Q14.84 6.87 14.12 6.07Q13.40 5.27 12.99 4.11Q12.57 2.94 12.57 1.46L12.57 1.46Q12.57 0.10 12.95-1.05Q13.33-2.20 14.06-3.04Q14.78-3.87 15.85-4.34Q16.92-4.81 18.30-4.81L18.30-4.81Q19.57-4.81 20.55-4.39Q21.54-3.98 22.29-3.22L22.29-3.22ZM33.50-3.22L32.94-2.46Q32.84-2.32 32.75-2.25Q32.65-2.18 32.47-2.18L32.47-2.18Q32.29-2.18 32.08-2.33Q31.87-2.48 31.55-2.66Q31.22-2.84 30.76-2.99Q30.30-3.14 29.63-3.14L29.63-3.14Q28.74-3.14 28.05-2.82Q27.37-2.50 26.91-1.90Q26.45-1.30 26.21-0.45Q25.98 0.40 25.98 1.46L25.98 1.46Q25.98 2.56 26.23 3.42Q26.48 4.28 26.94 4.86Q27.39 5.44 28.05 5.75Q28.70 6.05 29.52 6.05L29.52 6.05Q30.30 6.05 30.80 5.87Q31.31 5.68 31.64 5.45Q31.98 5.22 32.19 5.04Q32.41 4.85 32.63 4.85L32.63 4.85Q32.90 4.85 33.03 5.06L33.03 5.06L33.63 5.84Q32.84 6.81 31.65 7.26Q30.47 7.71 29.15 7.71L29.15 7.71Q28.01 7.71 27.03 7.29Q26.05 6.87 25.33 6.07Q24.61 5.27 24.20 4.11Q23.78 2.94 23.78 1.46L23.78 1.46Q23.78 0.10 24.16-1.05Q24.54-2.20 25.26-3.04Q25.99-3.87 27.06-4.34Q28.13-4.81 29.51-4.81L29.51-4.81Q30.78-4.81 31.76-4.39Q32.75-3.98 33.50-3.22L33.50-3.22ZM44.78-0.24L44.78 7.54L43.83 7.54Q43.52 7.54 43.33 7.44Q43.14 7.35 43.08 7.04L43.08 7.04L42.84 5.91Q42.36 6.34 41.90 6.68Q41.45 7.02 40.94 7.26Q40.44 7.49 39.87 7.61Q39.30 7.73 38.60 7.73L38.60 7.73Q37.89 7.73 37.28 7.53Q36.66 7.34 36.20 6.94Q35.75 6.54 35.48 5.94Q35.21 5.33 35.21 4.50L35.21 4.50Q35.21 3.78 35.60 3.12Q36.00 2.45 36.88 1.94Q37.76 1.42 39.19 1.09Q40.62 0.76 42.68 0.71L42.68 0.71L42.68-0.24Q42.68-1.65 42.08-2.38Q41.47-3.10 40.28-3.10L40.28-3.10Q39.50-3.10 38.97-2.91Q38.43-2.71 38.04-2.46Q37.65-2.22 37.37-2.02Q37.09-1.82 36.81-1.82L36.81-1.82Q36.60-1.82 36.44-1.93Q36.27-2.05 36.18-2.22L36.18-2.22L35.79-2.90Q36.80-3.87 37.97-4.35Q39.13-4.83 40.55-4.83L40.55-4.83Q41.57-4.83 42.36-4.50Q43.15-4.16 43.69-3.56Q44.23-2.96 44.51-2.11Q44.78-1.26 44.78-0.24L44.78-0.24ZM39.24 6.23L39.24 6.23Q39.80 6.23 40.27 6.12Q40.74 6.00 41.15 5.79Q41.57 5.58 41.94 5.28Q42.32 4.98 42.68 4.60L42.68 4.60L42.68 2.07Q41.21 2.12 40.17 2.30Q39.14 2.49 38.49 2.79Q37.85 3.09 37.55 3.50Q37.26 3.90 37.26 4.41L37.26 4.41Q37.26 4.89 37.41 5.24Q37.57 5.58 37.83 5.81Q38.10 6.03 38.46 6.13Q38.82 6.23 39.24 6.23ZM48.26-10.14L50.40-10.14L50.40 7.54L48.26 7.54L48.26-10.14ZM54.41-10.14L56.54-10.14L56.54 7.54L54.41 7.54L54.41-10.14ZM59.61 6.22L59.61 6.22Q59.61 5.91 59.73 5.63Q59.84 5.36 60.04 5.15Q60.24 4.95 60.51 4.83Q60.79 4.71 61.10 4.71L61.10 4.71Q61.41 4.71 61.69 4.83Q61.97 4.95 62.17 5.15Q62.37 5.36 62.49 5.63Q62.60 5.91 62.60 6.22L62.60 6.22Q62.60 6.54 62.49 6.81Q62.37 7.08 62.17 7.29Q61.97 7.49 61.69 7.61Q61.41 7.72 61.10 7.72L61.10 7.72Q60.79 7.72 60.51 7.61Q60.24 7.49 60.04 7.29Q59.84 7.08 59.73 6.81Q59.61 6.54 59.61 6.22ZM74.25-3.22L73.69-2.46Q73.59-2.32 73.50-2.25Q73.40-2.18 73.22-2.18L73.22-2.18Q73.04-2.18 72.83-2.33Q72.62-2.48 72.30-2.66Q71.97-2.84 71.51-2.99Q71.05-3.14 70.38-3.14L70.38-3.14Q69.49-3.14 68.81-2.82Q68.12-2.50 67.66-1.90Q67.20-1.30 66.96-0.45Q66.73 0.40 66.73 1.46L66.73 1.46Q66.73 2.56 66.98 3.42Q67.23 4.28 67.69 4.86Q68.15 5.44 68.80 5.75Q69.45 6.05 70.27 6.05L70.27 6.05Q71.05 6.05 71.55 5.87Q72.06 5.68 72.39 5.45Q72.73 5.22 72.95 5.04Q73.16 4.85 73.38 4.85L73.38 4.85Q73.65 4.85 73.79 5.06L73.79 5.06L74.39 5.84Q73.59 6.81 72.41 7.26Q71.22 7.71 69.90 7.71L69.90 7.71Q68.76 7.71 67.78 7.29Q66.80 6.87 66.08 6.07Q65.36 5.27 64.95 4.11Q64.53 2.94 64.53 1.46L64.53 1.46Q64.53 0.10 64.91-1.05Q65.29-2.20 66.02-3.04Q66.74-3.87 67.81-4.34Q68.88-4.81 70.26-4.81L70.26-4.81Q71.53-4.81 72.51-4.39Q73.50-3.98 74.25-3.22L74.25-3.22ZM81.53-4.81L81.53-4.81Q82.86-4.81 83.93-4.36Q85.01-3.92 85.76-3.10Q86.51-2.29 86.91-1.13Q87.31 0.03 87.31 1.46L87.31 1.46Q87.31 2.90 86.91 4.05Q86.51 5.20 85.76 6.02Q85.01 6.83 83.93 7.27Q82.86 7.71 81.53 7.71L81.53 7.71Q80.19 7.71 79.12 7.27Q78.05 6.83 77.29 6.02Q76.53 5.20 76.13 4.05Q75.72 2.90 75.72 1.46L75.72 1.46Q75.72 0.03 76.13-1.13Q76.53-2.29 77.29-3.10Q78.05-3.92 79.12-4.36Q80.19-4.81 81.53-4.81ZM81.53 6.04L81.53 6.04Q83.33 6.04 84.21 4.83Q85.10 3.63 85.10 1.47L85.10 1.47Q85.10-0.70 84.21-1.92Q83.33-3.13 81.53-3.13L81.53-3.13Q80.61-3.13 79.94-2.82Q79.27-2.50 78.82-1.92Q78.37-1.33 78.15-0.47Q77.93 0.39 77.93 1.47L77.93 1.47Q77.93 2.55 78.15 3.40Q78.37 4.25 78.82 4.83Q79.27 5.42 79.94 5.73Q80.61 6.04 81.53 6.04ZM92.09 7.54L89.95 7.54L89.95-4.62L91.22-4.62Q91.68-4.62 91.80-4.17L91.80-4.17L91.95-2.92Q92.63-3.75 93.46-4.28Q94.29-4.81 95.40-4.81L95.40-4.81Q96.63-4.81 97.40-4.12Q98.16-3.44 98.49-2.28L98.49-2.28Q98.75-2.94 99.16-3.42Q99.57-3.90 100.09-4.21Q100.61-4.52 101.19-4.66Q101.77-4.81 102.37-4.81L102.37-4.81Q103.33-4.81 104.08-4.50Q104.83-4.20 105.35-3.61Q105.87-3.02 106.15-2.16Q106.43-1.30 106.43-0.20L106.43-0.20L106.43 7.54L104.29 7.54L104.29-0.20Q104.29-1.63 103.67-2.37Q103.04-3.10 101.85-3.10L101.85-3.10Q101.33-3.10 100.85-2.92Q100.38-2.73 100.02-2.37Q99.66-2.01 99.45-1.47Q99.24-0.92 99.24-0.20L99.24-0.20L99.24 7.54L97.10 7.54L97.10-0.20Q97.10-1.66 96.51-2.38Q95.93-3.10 94.80-3.10L94.80-3.10Q94.01-3.10 93.33-2.68Q92.65-2.25 92.09-1.52L92.09-1.52L92.09 7.54Z"/></g>
</svg>