<svg xmlns="http://www.w3.org/2000/svg" xmlns:xlink="http://www.w3.org/1999/xlink" version="1.1" width="1200" height="600" viewBox="0 0 1200 600" xml:space="preserve">
<desc>Created with Fabric.js 3.5.0</desc>
<defs>
</defs>
<rect x="0" y="0" width="100%" height="100%" fill="#ffffff"/>
<g transform="matrix(1.04 0 0 1.04 600 300.32)" id="193614">
	<image style="stroke: none; stroke-width: 0; stroke-dasharray: none; stroke-linecap: butt; stroke-dashoffset: 0; stroke-linejoin: miter; stroke-miterlimit: 4; is-custom-font: none; font-file-url: none; fill: rgb(0,0,0); fill-rule: nonzero; opacity: 1;" xlink:href="https://images.unsplash.com/uploads/141103282695035fa1380/95cdfeef?ixlib=rb-1.2.1&amp;ixid=eyJhcHBfaWQiOjEwODAwMn0&amp;w=1200&amp;q=80&amp;fm=jpg&amp;crop=entropy&amp;cs=tinysrgb&amp;fit=max" x="-600" y="-308" width="1200" height="616"/>
</g>
<g transform="matrix(1 0 0 1 855.88 223.295)" style="" id="899339">
		
<path xml:space="preserve" font-family="Lato" font-size="43" style="stroke: none; stroke-width: 0; stroke-dasharray: none; stroke-linecap: butt; stroke-dashoffset: 0; stroke-linejoin: miter; stroke-miterlimit: 4; is-custom-font: none; font-file-url: none; fill: rgb(0,0,0); fill-rule: nonzero; opacity: 1; white-space: pre;" d="M-94.26-17.30L-81.94 13.51L-85.16 13.51Q-85.72 13.51-86.06 13.23Q-86.41 12.95-86.58 12.52L-86.58 12.52L-89.46 5.08L-103.29 5.08L-106.17 12.52Q-106.32 12.91-106.68 13.21Q-107.05 13.51-107.59 13.51L-107.59 13.51L-110.81 13.51L-98.49-17.30L-94.26-17.30ZM-97.29-10.44L-102.13 2.07L-90.62 2.07L-95.46-10.46Q-95.93-11.63-96.38-13.37L-96.38-13.37Q-96.62-12.49-96.85-11.74Q-97.07-11.00-97.29-10.44L-97.29-10.44ZM-48.03 7.14L-48.03 7.14Q-47.69 7.14-47.41 7.42L-47.41 7.42L-45.77 9.21Q-47.67 11.40-50.36 12.63Q-53.06 13.85-56.87 13.85L-56.87 13.85Q-60.20 13.85-62.91 12.70Q-65.62 11.55-67.53 9.48Q-69.44 7.40-70.50 4.50Q-71.55 1.60-71.55-1.89L-71.55-1.89Q-71.55-5.37-70.42-8.27Q-69.29-11.17-67.25-13.26Q-65.21-15.35-62.36-16.50Q-59.51-17.65-56.07-17.65L-56.07-17.65Q-52.67-17.65-50.21-16.59Q-47.75-15.54-45.84-13.73L-45.84-13.73L-47.19-11.82Q-47.34-11.60-47.54-11.46Q-47.73-11.32-48.10-11.32L-48.10-11.32Q-48.37-11.32-48.69-11.53Q-49.00-11.73-49.43-12.03Q-49.86-12.34-50.44-12.68Q-51.02-13.02-51.81-13.32Q-52.61-13.63-53.66-13.83Q-54.72-14.03-56.09-14.03L-56.09-14.03Q-58.57-14.03-60.62-13.18Q-62.67-12.34-64.16-10.77Q-65.64-9.20-66.47-6.94Q-67.29-4.68-67.29-1.89L-67.29-1.89Q-67.29 0.99-66.47 3.25Q-65.64 5.51-64.21 7.07Q-62.78 8.63-60.82 9.44Q-58.87 10.26-56.61 10.26L-56.61 10.26Q-55.23 10.26-54.14 10.10Q-53.04 9.94-52.11 9.59Q-51.17 9.25-50.36 8.72Q-49.56 8.20-48.74 7.47L-48.74 7.47Q-48.37 7.14-48.03 7.14ZM-32.08-8.62L-32.08-8.62Q-29.69-8.62-27.77-7.82Q-25.84-7.02-24.50-5.56Q-23.16-4.10-22.44-2.03Q-21.71 0.05-21.71 2.61L-21.71 2.61Q-21.71 5.19-22.44 7.25Q-23.16 9.32-24.50 10.78Q-25.84 12.24-27.77 13.02Q-29.69 13.81-32.08 13.81L-32.08 13.81Q-34.46 13.81-36.39 13.02Q-38.31 12.24-39.67 10.78Q-41.02 9.32-41.75 7.25Q-42.48 5.19-42.48 2.61L-42.48 2.61Q-42.48 0.05-41.75-2.03Q-41.02-4.10-39.67-5.56Q-38.31-7.02-36.39-7.82Q-34.46-8.62-32.08-8.62ZM-32.08 10.82L-32.08 10.82Q-28.85 10.82-27.26 8.66Q-25.67 6.50-25.67 2.63L-25.67 2.63Q-25.67-1.26-27.26-3.43Q-28.85-5.61-32.08-5.61L-32.08-5.61Q-33.71-5.61-34.92-5.05Q-36.12-4.49-36.93-3.43Q-37.73-2.38-38.13-0.84Q-38.53 0.69-38.53 2.63L-38.53 2.63Q-38.53 4.56-38.13 6.09Q-37.73 7.62-36.93 8.66Q-36.12 9.70-34.92 10.26Q-33.71 10.82-32.08 10.82ZM-13.16 13.51L-16.98 13.51L-16.98-8.27L-14.71-8.27Q-13.89-8.27-13.67-7.48L-13.67-7.48L-13.39-5.24Q-12.19-6.72-10.70-7.67Q-9.20-8.62-7.22-8.62L-7.22-8.62Q-5.01-8.62-3.64-7.39Q-2.28-6.16-1.68-4.08L-1.68-4.08Q-1.23-5.26-0.48-6.12Q0.26-6.98 1.18-7.54Q2.11-8.10 3.15-8.36Q4.19-8.62 5.27-8.62L5.27-8.62Q6.99-8.62 8.33-8.07Q9.68-7.52 10.61-6.47Q11.55-5.41 12.04-3.87Q12.53-2.34 12.53-0.36L12.53-0.36L12.53 13.51L8.71 13.51L8.71-0.36Q8.71-2.92 7.59-4.24Q6.47-5.56 4.34-5.56L4.34-5.56Q3.40-5.56 2.55-5.23Q1.70-4.90 1.05-4.25Q0.41-3.61 0.03-2.63Q-0.34-1.65-0.34-0.36L-0.34-0.36L-0.34 13.51L-4.17 13.51L-4.17-0.36Q-4.17-2.98-5.22-4.27Q-6.28-5.56-8.30-5.56L-8.30-5.56Q-9.72-5.56-10.93-4.80Q-12.15-4.04-13.16-2.72L-13.16-2.72L-13.16 13.51ZM22.15 20.88L18.32 20.88L18.32-8.27L20.60-8.27Q21.41-8.27 21.63-7.48L21.63-7.48L21.95-4.90Q23.35-6.59 25.14-7.63Q26.94-8.66 29.28-8.66L29.28-8.66Q31.15-8.66 32.68-7.94Q34.21-7.22 35.28-5.81Q36.36-4.40 36.94-2.32Q37.52-0.23 37.52 2.48L37.52 2.48Q37.52 4.89 36.87 6.96Q36.23 9.04 35.02 10.55Q33.82 12.07 32.07 12.94Q30.32 13.81 28.12 13.81L28.12 13.81Q26.10 13.81 24.67 13.14Q23.24 12.48 22.15 11.25L22.15 11.25L22.15 20.88ZM28.01-5.56L28.01-5.56Q26.14-5.56 24.74-4.70Q23.33-3.84 22.15-2.27L22.15-2.27L22.15 8.26Q23.20 9.68 24.46 10.26Q25.71 10.84 27.26 10.84L27.26 10.84Q30.29 10.84 31.93 8.67Q33.56 6.50 33.56 2.48L33.56 2.48Q33.56 0.35 33.19-1.18Q32.81-2.70 32.10-3.68Q31.39-4.66 30.36-5.11Q29.33-5.56 28.01-5.56ZM42.48-18.16L46.31-18.16L46.31 13.51L42.48 13.51L42.48-18.16ZM61.68-8.62L61.68-8.62Q63.64-8.62 65.30-7.96Q66.95-7.30 68.16-6.07Q69.36-4.83 70.04-3.01Q70.71-1.20 70.71 1.12L70.71 1.12Q70.71 2.03 70.52 2.33Q70.33 2.63 69.79 2.63L69.79 2.63L55.30 2.63Q55.34 4.69 55.86 6.22Q56.37 7.75 57.28 8.77Q58.18 9.79 59.43 10.29Q60.67 10.80 62.22 10.80L62.22 10.80Q63.66 10.80 64.70 10.47Q65.75 10.13 66.50 9.75Q67.25 9.36 67.76 9.03Q68.26 8.69 68.63 8.69L68.63 8.69Q69.10 8.69 69.36 9.06L69.36 9.06L70.43 10.45Q69.72 11.31 68.74 11.95Q67.75 12.58 66.62 12.99Q65.49 13.40 64.29 13.60Q63.08 13.81 61.90 13.81L61.90 13.81Q59.64 13.81 57.74 13.05Q55.84 12.28 54.45 10.81Q53.06 9.34 52.29 7.17Q51.51 4.99 51.51 2.18L51.51 2.18Q51.51-0.10 52.21-2.08Q52.91-4.06 54.22-5.51Q55.53-6.96 57.43-7.79Q59.32-8.62 61.68-8.62ZM61.77-5.80L61.77-5.80Q59.00-5.80 57.41-4.20Q55.81-2.60 55.43 0.24L55.43 0.24L67.27 0.24Q67.27-1.09 66.91-2.20Q66.54-3.31 65.83-4.11Q65.12-4.92 64.10-5.36Q63.08-5.80 61.77-5.80ZM82.19 13.85L82.19 13.85Q79.61 13.85 78.23 12.41Q76.84 10.97 76.84 8.26L76.84 8.26L76.84-5.07L74.22-5.07Q73.87-5.07 73.64-5.27Q73.40-5.48 73.40-5.91L73.40-5.91L73.40-7.43L76.97-7.88L77.85-14.61Q77.89-14.94 78.13-15.14Q78.37-15.35 78.73-15.35L78.73-15.35L80.67-15.35L80.67-7.84L86.90-7.84L86.90-5.07L80.67-5.07L80.67 8.00Q80.67 9.38 81.33 10.05Q82.00 10.71 83.05 10.71L83.05 10.71Q83.66 10.71 84.10 10.55Q84.54 10.39 84.86 10.20Q85.18 10.00 85.41 9.84Q85.63 9.68 85.81 9.68L85.81 9.68Q86.11 9.68 86.34 10.05L86.34 10.05L87.46 11.87Q86.47 12.80 85.08 13.33Q83.68 13.85 82.19 13.85ZM100.25-8.62L100.25-8.62Q102.21-8.62 103.87-7.96Q105.52-7.30 106.73-6.07Q107.93-4.83 108.61-3.01Q109.28-1.20 109.28 1.12L109.28 1.12Q109.28 2.03 109.09 2.33Q108.90 2.63 108.36 2.63L108.36 2.63L93.87 2.63Q93.91 4.69 94.43 6.22Q94.94 7.75 95.85 8.77Q96.75 9.79 98.00 10.29Q99.24 10.80 100.79 10.80L100.79 10.80Q102.23 10.80 103.28 10.47Q104.32 10.13 105.07 9.75Q105.82 9.36 106.33 9.03Q106.83 8.69 107.20 8.69L107.20 8.69Q107.67 8.69 107.93 9.06L107.93 9.06L109.01 10.45Q108.30 11.31 107.31 11.95Q106.32 12.58 105.19 12.99Q104.06 13.40 102.86 13.60Q101.65 13.81 100.47 13.81L100.47 13.81Q98.21 13.81 96.31 13.05Q94.41 12.28 93.02 10.81Q91.63 9.34 90.86 7.17Q90.09 4.99 90.09 2.18L90.09 2.18Q90.09-0.10 90.78-2.08Q91.48-4.06 92.79-5.51Q94.11-6.96 96.00-7.79Q97.89-8.62 100.25-8.62ZM100.34-5.80L100.34-5.80Q97.57-5.80 95.98-4.20Q94.39-2.60 94.00 0.24L94.00 0.24L105.84 0.24Q105.84-1.09 105.48-2.20Q105.11-3.31 104.40-4.11Q103.69-4.92 102.67-5.36Q101.65-5.80 100.34-5.80Z"/></g>
<g transform="matrix(1.0841 0 0 1 875.0622 294.9008)" id="419049">
<rect style="stroke: rgb(0,0,0); stroke-width: 1.5; stroke-dasharray: none; stroke-linecap: butt; stroke-dashoffset: 0; stroke-linejoin: miter; stroke-miterlimit: 4; is-custom-font: none; font-file-url: none; fill: rgb(232,216,11); fill-rule: nonzero; opacity: 1;" vector-effect="non-scaling-stroke" x="-238.68" y="-36.46" rx="0" ry="0" width="477.36" height="72.92"/>
</g>
<g transform="matrix(1 0 0 1 871.4082 294.2558)" style="" id="303509">
		
<path xml:space="preserve" font-family="Roboto" font-size="67" style="stroke: none; stroke-width: 0; stroke-dasharray: none; stroke-linecap: butt; stroke-dashoffset: 0; stroke-linejoin: miter; stroke-miterlimit: 4; is-custom-font: none; font-file-url: none; fill: rgb(0,0,0); fill-rule: nonzero; opacity: 1; white-space: pre;" d="M-221.15 21.05L-237.67 21.05L-237.67-26.59L-222.10-26.59Q-214.35-26.59-210.44-23.38Q-206.53-20.17-206.53-13.89L-206.53-13.89Q-206.53-10.56-208.42-7.99Q-210.32-5.42-213.59-4.01L-213.59-4.01Q-209.73-2.93-207.49 0.09Q-205.25 3.12-205.25 7.31L-205.25 7.31Q-205.25 13.72-209.41 17.38Q-213.56 21.05-221.15 21.05L-221.15 21.05ZM-220.92-1.23L-231.39-1.23L-231.39 15.91L-221.02 15.91Q-216.64 15.91-214.10 13.64Q-211.56 11.36-211.56 7.37L-211.56 7.37Q-211.56-1.23-220.92-1.23L-220.92-1.23ZM-231.39-21.42L-231.39-6.27L-221.90-6.27Q-217.78-6.27-215.31-8.33Q-212.84-10.39-212.84-13.92L-212.84-13.92Q-212.84-17.85-215.13-19.63Q-217.42-21.42-222.10-21.42L-222.10-21.42L-231.39-21.42ZM-182.22 21.70L-182.22 21.70Q-189.42 21.70-193.93 16.97Q-198.45 12.25-198.45 4.33L-198.45 4.33L-198.45 3.22Q-198.45-2.05-196.43-6.19Q-194.42-10.33-190.81-12.67Q-187.19-15.00-182.97-15.00L-182.97-15.00Q-176.07-15.00-172.24-10.46Q-168.41-5.91-168.41 2.56L-168.41 2.56L-168.41 5.08L-192.39 5.08Q-192.26 10.32-189.34 13.54Q-186.41 16.76-181.89 16.76L-181.89 16.76Q-178.69 16.76-176.46 15.45Q-174.24 14.14-172.57 11.99L-172.57 11.99L-168.87 14.86Q-173.32 21.70-182.22 21.70ZM-182.97-10.03L-182.97-10.03Q-186.64-10.03-189.12-7.37Q-191.61-4.70-192.20 0.11L-192.20 0.11L-174.47 0.11L-174.47-0.35Q-174.73-4.96-176.95-7.50Q-179.18-10.03-182.97-10.03ZM-162.85 3.05L-162.85 3.05Q-162.85-5.22-159.02-10.11Q-155.20-15.00-148.88-15.00L-148.88-15.00Q-142.41-15.00-138.77-10.42L-138.77-10.42L-138.48-14.35L-132.95-14.35L-132.95 20.20Q-132.95 27.07-137.02 31.03Q-141.10 34.98-147.97 34.98L-147.97 34.98Q-151.79 34.98-155.46 33.35Q-159.12 31.71-161.05 28.87L-161.05 28.87L-157.91 25.23Q-154.02 30.04-148.39 30.04L-148.39 30.04Q-143.98 30.04-141.51 27.56Q-139.04 25.07-139.04 20.56L-139.04 20.56L-139.04 17.51Q-142.67 21.70-148.95 21.70L-148.95 21.70Q-155.16 21.70-159.01 16.70Q-162.85 11.69-162.85 3.05ZM-156.77 3.74L-156.77 3.74Q-156.77 9.73-154.31 13.15Q-151.86 16.57-147.44 16.57L-147.44 16.57Q-141.72 16.57-139.04 11.36L-139.04 11.36L-139.04-4.80Q-141.82-9.87-147.38-9.87L-147.38-9.87Q-151.79-9.87-154.28-6.43Q-156.77-3.00-156.77 3.74ZM-117.25-14.35L-117.25 21.05L-123.30 21.05L-123.30-14.35L-117.25-14.35ZM-123.79-23.74L-123.79-23.74Q-123.79-25.21-122.89-26.23Q-121.99-27.24-120.23-27.24Q-118.46-27.24-117.54-26.23Q-116.63-25.21-116.63-23.74Q-116.63-22.27-117.54-21.29Q-118.46-20.30-120.23-20.30Q-121.99-20.30-122.89-21.29Q-123.79-22.27-123.79-23.74ZM-107.56-14.35L-101.84-14.35L-101.64-9.90Q-97.59-15.00-91.04-15.00L-91.04-15.00Q-79.82-15.00-79.72-2.34L-79.72-2.34L-79.72 21.05L-85.78 21.05L-85.78-2.38Q-85.81-6.20-87.53-8.04Q-89.24-9.87-92.88-9.87L-92.88-9.87Q-95.82-9.87-98.04-8.30Q-100.27-6.73-101.51-4.18L-101.51-4.18L-101.51 21.05L-107.56 21.05L-107.56-14.35ZM-70.60-14.35L-64.87-14.35L-64.68-9.90Q-60.62-15.00-54.08-15.00L-54.08-15.00Q-42.85-15.00-42.76-2.34L-42.76-2.34L-42.76 21.05L-48.81 21.05L-48.81-2.38Q-48.84-6.20-50.56-8.04Q-52.28-9.87-55.91-9.87L-55.91-9.87Q-58.85-9.87-61.08-8.30Q-63.30-6.73-64.54-4.18L-64.54-4.18L-64.54 21.05L-70.60 21.05L-70.60-14.35ZM-18.94 21.70L-18.94 21.70Q-26.14 21.70-30.65 16.97Q-35.17 12.25-35.17 4.33L-35.17 4.33L-35.17 3.22Q-35.17-2.05-33.15-6.19Q-31.14-10.33-27.53-12.67Q-23.91-15.00-19.69-15.00L-19.69-15.00Q-12.79-15.00-8.96-10.46Q-5.13-5.91-5.13 2.56L-5.13 2.56L-5.13 5.08L-29.11 5.08Q-28.98 10.32-26.06 13.54Q-23.13 16.76-18.61 16.76L-18.61 16.76Q-15.41 16.76-13.18 15.45Q-10.96 14.14-9.29 11.99L-9.29 11.99L-5.59 14.86Q-10.04 21.70-18.94 21.70ZM-19.69-10.03L-19.69-10.03Q-23.36-10.03-25.84-7.37Q-28.33-4.70-28.92 0.11L-28.92 0.11L-11.19 0.11L-11.19-0.35Q-11.45-4.96-13.67-7.50Q-15.90-10.03-19.69-10.03ZM18.98-14.55L18.98-8.92Q17.60-9.15 16.00-9.15L16.00-9.15Q10.05-9.15 7.92-4.08L7.92-4.08L7.92 21.05L1.87 21.05L1.87-14.35L7.76-14.35L7.85-10.26Q10.83-15.00 16.29-15.00L16.29-15.00Q18.06-15.00 18.98-14.55L18.98-14.55ZM45.15 11.66L45.15 11.66Q45.15 9.20 43.30 7.85Q41.45 6.49 36.86 5.51Q32.26 4.53 29.56 3.15Q26.86 1.78 25.57-0.12Q24.28-2.02 24.28-4.63L24.28-4.63Q24.28-8.98 27.96-11.99Q31.64-15.00 37.36-15.00L37.36-15.00Q43.38-15.00 47.13-11.90Q50.87-8.79 50.87-3.95L50.87-3.95L44.79-3.95Q44.79-6.43 42.68-8.23Q40.57-10.03 37.36-10.03L37.36-10.03Q34.06-10.03 32.19-8.59Q30.33-7.15 30.33-4.83L30.33-4.83Q30.33-2.64 32.06-1.53Q33.80-0.41 38.33 0.60Q42.86 1.61 45.67 3.02Q48.49 4.43 49.84 6.41Q51.20 8.39 51.20 11.23L51.20 11.23Q51.20 15.98 47.41 18.84Q43.61 21.70 37.56 21.70L37.56 21.70Q33.31 21.70 30.03 20.20Q26.76 18.69 24.91 15.99Q23.07 13.29 23.07 10.15L23.07 10.15L29.12 10.15Q29.28 13.20 31.56 14.98Q33.83 16.76 37.56 16.76L37.56 16.76Q40.99 16.76 43.07 15.37Q45.15 13.98 45.15 11.66ZM111.79-2.67L111.79 14.80Q109.37 18.27 105.03 19.98Q100.70 21.70 94.94 21.70L94.94 21.70Q89.12 21.70 84.60 18.97Q80.09 16.24 77.62 11.20Q75.15 6.16 75.08-0.48L75.08-0.48L75.08-4.63Q75.08-15.40 80.10-21.32Q85.13-27.24 94.22-27.24L94.22-27.24Q101.68-27.24 106.23-23.43Q110.77-19.62 111.79-12.62L111.79-12.62L105.51-12.62Q103.74-22.07 94.25-22.07L94.25-22.07Q87.94-22.07 84.68-17.64Q81.43-13.21 81.40-4.80L81.40-4.80L81.40-0.90Q81.40 7.11 85.06 11.84Q88.72 16.57 94.97 16.57L94.97 16.57Q98.51 16.57 101.16 15.78Q103.81 15.00 105.54 13.13L105.54 13.13L105.54 2.43L94.52 2.43L94.52-2.67L111.79-2.67ZM143.29 21.05L143.16 17.55Q139.63 21.70 132.79 21.70L132.79 21.70Q127.13 21.70 124.17 18.41Q121.21 15.13 121.18 8.68L121.18 8.68L121.18-14.35L127.23-14.35L127.23 8.52Q127.23 16.57 133.77 16.57L133.77 16.57Q140.71 16.57 143.00 11.40L143.00 11.40L143.00-14.35L149.05-14.35L149.05 21.05L143.29 21.05ZM164.82-14.35L164.82 21.05L158.77 21.05L158.77-14.35L164.82-14.35ZM158.28-23.74L158.28-23.74Q158.28-25.21 159.18-26.23Q160.08-27.24 161.84-27.24Q163.61-27.24 164.52-26.23Q165.44-25.21 165.44-23.74Q165.44-22.27 164.52-21.29Q163.61-20.30 161.84-20.30Q160.08-20.30 159.18-21.29Q158.28-22.27 158.28-23.74ZM173.03 3.51L173.03 3.05Q173.03-5.09 176.89-10.05Q180.75-15.00 187.00-15.00L187.00-15.00Q193.22-15.00 196.85-10.75L196.85-10.75L196.85-29.20L202.90-29.20L202.90 21.05L197.34 21.05L197.04 17.25Q193.41 21.70 186.93 21.70L186.93 21.70Q180.78 21.70 176.91 16.66Q173.03 11.63 173.03 3.51L173.03 3.51ZM179.08 3.74L179.08 3.74Q179.08 9.76 181.57 13.16Q184.06 16.57 188.44 16.57L188.44 16.57Q194.20 16.57 196.85 11.40L196.85 11.40L196.85-4.86Q194.13-9.87 188.50-9.87L188.50-9.87Q184.06-9.87 181.57-6.43Q179.08-3.00 179.08 3.74ZM226.98 21.70L226.98 21.70Q219.78 21.70 215.27 16.97Q210.75 12.25 210.75 4.33L210.75 4.33L210.75 3.22Q210.75-2.05 212.76-6.19Q214.77-10.33 218.39-12.67Q222.00-15.00 226.23-15.00L226.23-15.00Q233.13-15.00 236.96-10.46Q240.78-5.91 240.78 2.56L240.78 2.56L240.78 5.08L216.80 5.08Q216.93 10.32 219.86 13.54Q222.79 16.76 227.30 16.76L227.30 16.76Q230.51 16.76 232.74 15.45Q234.96 14.14 236.63 11.99L236.63 11.99L240.33 14.86Q235.88 21.70 226.98 21.70ZM226.23-10.03L226.23-10.03Q222.56-10.03 220.07-7.37Q217.59-4.70 217.00 0.11L217.00 0.11L234.73 0.11L234.73-0.35Q234.47-4.96 232.24-7.50Q230.02-10.03 226.23-10.03Z"/></g>
<g transform="matrix(1 0 0 1 782.8177 376.4873)" style="" id="769142">
		
<path xml:space="preserve" font-family="Lato" font-size="42" style="stroke: none; stroke-width: 0; stroke-dasharray: none; stroke-linecap: butt; stroke-dashoffset: 0; stroke-linejoin: miter; stroke-miterlimit: 4; is-custom-font: none; font-file-url: none; fill: rgb(0,0,0); fill-rule: nonzero; opacity: 1; white-space: pre;" d="M-98.97-16.90L-75.41-16.90L-75.41-13.48L-85.13-13.48L-85.13 13.19L-89.21 13.19L-89.21-13.48L-98.97-13.48L-98.97-16.90ZM-67.52-8.42L-67.52-8.42Q-65.18-8.42-63.30-7.64Q-61.42-6.86-60.11-5.43Q-58.80-4.01-58.10-1.98Q-57.39 0.05-57.39 2.55L-57.39 2.55Q-57.39 5.07-58.10 7.08Q-58.80 9.10-60.11 10.53Q-61.42 11.95-63.30 12.72Q-65.18 13.49-67.52 13.49L-67.52 13.49Q-69.85 13.49-71.73 12.72Q-73.61 11.95-74.93 10.53Q-76.25 9.10-76.97 7.08Q-77.68 5.07-77.68 2.55L-77.68 2.55Q-77.68 0.05-76.97-1.98Q-76.25-4.01-74.93-5.43Q-73.61-6.86-71.73-7.64Q-69.85-8.42-67.52-8.42ZM-67.52 10.57L-67.52 10.57Q-64.37 10.57-62.81 8.46Q-61.26 6.35-61.26 2.57L-61.26 2.57Q-61.26-1.23-62.81-3.35Q-64.37-5.48-67.52-5.48L-67.52-5.48Q-69.11-5.48-70.29-4.93Q-71.46-4.38-72.25-3.35Q-73.04-2.33-73.43-0.82Q-73.81 0.68-73.81 2.57L-73.81 2.57Q-73.81 4.46-73.43 5.95Q-73.04 7.44-72.25 8.46Q-71.46 9.48-70.29 10.02Q-69.11 10.57-67.52 10.57ZM-34.78 1.94L-39.61 1.94L-39.61 13.19L-43.66 13.19L-43.66-16.90L-34.78-16.90Q-31.92-16.90-29.81-16.24Q-27.70-15.58-26.31-14.36Q-24.93-13.14-24.24-11.42Q-23.56-9.70-23.56-7.58L-23.56-7.58Q-23.56-5.48-24.30-3.73Q-25.03-1.99-26.45-0.73Q-27.87 0.53-29.97 1.23Q-32.07 1.94-34.78 1.94L-34.78 1.94ZM-39.61-13.69L-39.61-1.30L-34.78-1.30Q-33.03-1.30-31.70-1.76Q-30.37-2.22-29.46-3.05Q-28.56-3.88-28.10-5.03Q-27.64-6.19-27.64-7.58L-27.64-7.58Q-27.64-10.45-29.41-12.07Q-31.18-13.69-34.78-13.69L-34.78-13.69L-39.61-13.69ZM-4.43-0.41L-4.43 13.19L-6.09 13.19Q-6.64 13.19-6.97 13.03Q-7.31 12.86-7.41 12.31L-7.41 12.31L-7.83 10.34Q-8.67 11.09-9.47 11.69Q-10.27 12.29-11.15 12.70Q-12.03 13.11-13.03 13.32Q-14.03 13.53-15.25 13.53L-15.25 13.53Q-16.48 13.53-17.57 13.18Q-18.65 12.84-19.45 12.14Q-20.24 11.45-20.72 10.39Q-21.19 9.33-21.19 7.88L-21.19 7.88Q-21.19 6.62-20.50 5.46Q-19.80 4.29-18.26 3.39Q-16.72 2.48-14.22 1.91Q-11.72 1.33-8.11 1.24L-8.11 1.24L-8.11-0.41Q-8.11-2.89-9.17-4.16Q-10.23-5.43-12.31-5.43L-12.31-5.43Q-13.67-5.43-14.61-5.09Q-15.54-4.74-16.22-4.31Q-16.90-3.88-17.40-3.53Q-17.89-3.19-18.37-3.19L-18.37-3.19Q-18.75-3.19-19.04-3.39Q-19.32-3.59-19.49-3.88L-19.49-3.88L-20.16-5.08Q-18.40-6.78-16.36-7.62Q-14.32-8.46-11.84-8.46L-11.84-8.46Q-10.06-8.46-8.67-7.87Q-7.29-7.28-6.34-6.23Q-5.40-5.18-4.91-3.69Q-4.43-2.20-4.43-0.41L-4.43-0.41ZM-14.13 10.90L-14.13 10.90Q-13.15 10.90-12.33 10.71Q-11.51 10.51-10.78 10.14Q-10.06 9.77-9.40 9.25Q-8.74 8.72-8.11 8.05L-8.11 8.05L-8.11 3.62Q-10.69 3.70-12.49 4.03Q-14.30 4.35-15.43 4.88Q-16.57 5.40-17.08 6.12Q-17.60 6.83-17.60 7.71L-17.60 7.71Q-17.60 8.55-17.32 9.16Q-17.05 9.77-16.59 10.16Q-16.13 10.55-15.50 10.73Q-14.87 10.90-14.13 10.90ZM4.98 13.19L1.24 13.19L1.24-8.08L3.38-8.08Q3.99-8.08 4.22-7.85Q4.45-7.62 4.54-7.05L4.54-7.05L4.79-3.73Q5.88-5.96 7.49-7.21Q9.09-8.46 11.26-8.46L11.26-8.46Q12.14-8.46 12.85-8.26Q13.57-8.06 14.18-7.70L14.18-7.70L13.69-4.91Q13.55-4.38 13.04-4.38L13.04-4.38Q12.75-4.38 12.14-4.58Q11.53-4.78 10.44-4.78L10.44-4.78Q8.48-4.78 7.17-3.65Q5.86-2.51 4.98-0.35L4.98-0.35L4.98 13.19ZM32.99-0.41L32.99 13.19L31.33 13.19Q30.79 13.19 30.45 13.03Q30.11 12.86 30.01 12.31L30.01 12.31L29.59 10.34Q28.75 11.09 27.95 11.69Q27.15 12.29 26.27 12.70Q25.39 13.11 24.39 13.32Q23.39 13.53 22.18 13.53L22.18 13.53Q20.94 13.53 19.86 13.18Q18.77 12.84 17.98 12.14Q17.18 11.45 16.71 10.39Q16.23 9.33 16.23 7.88L16.23 7.88Q16.23 6.62 16.93 5.46Q17.62 4.29 19.16 3.39Q20.71 2.48 23.21 1.91Q25.70 1.33 29.32 1.24L29.32 1.24L29.32-0.41Q29.32-2.89 28.26-4.16Q27.20-5.43 25.12-5.43L25.12-5.43Q23.75-5.43 22.82-5.09Q21.88-4.74 21.20-4.31Q20.52-3.88 20.02-3.53Q19.53-3.19 19.05-3.19L19.05-3.19Q18.67-3.19 18.39-3.39Q18.10-3.59 17.93-3.88L17.93-3.88L17.26-5.08Q19.03-6.78 21.06-7.62Q23.10-8.46 25.58-8.46L25.58-8.46Q27.36-8.46 28.75-7.87Q30.14-7.28 31.08-6.23Q32.03-5.18 32.51-3.69Q32.99-2.20 32.99-0.41L32.99-0.41ZM23.29 10.90L23.29 10.90Q24.28 10.90 25.10 10.71Q25.91 10.51 26.64 10.14Q27.36 9.77 28.02 9.25Q28.69 8.72 29.32 8.05L29.32 8.05L29.32 3.62Q26.73 3.70 24.93 4.03Q23.12 4.35 21.99 4.88Q20.85 5.40 20.34 6.12Q19.82 6.83 19.82 7.71L19.82 7.71Q19.82 8.55 20.10 9.16Q20.37 9.77 20.83 10.16Q21.29 10.55 21.92 10.73Q22.55 10.90 23.29 10.90ZM39.08-17.74L42.82-17.74L42.82 13.19L39.08 13.19L39.08-17.74ZM49.83-17.74L53.57-17.74L53.57 13.19L49.83 13.19L49.83-17.74ZM75.79-0.41L75.79 13.19L74.13 13.19Q73.58 13.19 73.25 13.03Q72.91 12.86 72.81 12.31L72.81 12.31L72.39 10.34Q71.55 11.09 70.75 11.69Q69.95 12.29 69.07 12.70Q68.19 13.11 67.19 13.32Q66.19 13.53 64.97 13.53L64.97 13.53Q63.74 13.53 62.65 13.18Q61.57 12.84 60.77 12.14Q59.98 11.45 59.50 10.39Q59.03 9.33 59.03 7.88L59.03 7.88Q59.03 6.62 59.72 5.46Q60.42 4.29 61.96 3.39Q63.50 2.48 66.00 1.91Q68.50 1.33 72.11 1.24L72.11 1.24L72.11-0.41Q72.11-2.89 71.05-4.16Q69.99-5.43 67.91-5.43L67.91-5.43Q66.55-5.43 65.61-5.09Q64.68-4.74 64.00-4.31Q63.32-3.88 62.82-3.53Q62.33-3.19 61.85-3.19L61.85-3.19Q61.47-3.19 61.18-3.39Q60.90-3.59 60.73-3.88L60.73-3.88L60.06-5.08Q61.82-6.78 63.86-7.62Q65.90-8.46 68.38-8.46L68.38-8.46Q70.16-8.46 71.55-7.87Q72.93-7.28 73.88-6.23Q74.82-5.18 75.31-3.69Q75.79-2.20 75.79-0.41L75.79-0.41ZM66.09 10.90L66.09 10.90Q67.07 10.90 67.89 10.71Q68.71 10.51 69.44 10.14Q70.16 9.77 70.82 9.25Q71.48 8.72 72.11 8.05L72.11 8.05L72.11 3.62Q69.53 3.70 67.73 4.03Q65.92 4.35 64.79 4.88Q63.65 5.40 63.14 6.12Q62.62 6.83 62.62 7.71L62.62 7.71Q62.62 8.55 62.90 9.16Q63.17 9.77 63.63 10.16Q64.09 10.55 64.72 10.73Q65.35 10.90 66.09 10.90ZM78.98 13.19L86.44 2.29L79.28-8.08L82.87-8.08Q83.33-8.08 83.54-7.93Q83.75-7.79 83.92-7.51L83.92-7.51L89.12 0.47Q89.31-0.12 89.67-0.71L89.67-0.71L94.25-7.43Q94.46-7.72 94.67-7.90Q94.88-8.08 95.19-8.08L95.19-8.08L98.64-8.08L91.48 2.08L98.93 13.19L95.34 13.19Q94.88 13.19 94.62 12.95Q94.35 12.71 94.19 12.42L94.19 12.42L88.83 4.08Q88.68 4.69 88.39 5.17L88.39 5.17L83.43 12.42Q83.22 12.71 82.98 12.95Q82.74 13.19 82.32 13.19L82.32 13.19L78.98 13.19Z"/></g>
<g transform="matrix(1 0 0 1 830.2894 450.3319)" style="filter: url(#SVGID_0);" id="253616">
<filter id="SVGID_0" y="-20%" height="140%" x="-21.4%" width="142.8%">
	<feGaussianBlur in="SourceAlpha" stdDeviation="0"/>
	<feOffset dx="6" dy="0" result="oBlur"/>
	<feFlood flood-color="rgb(232,216,11)" flood-opacity="1"/>
	<feComposite in2="oBlur" operator="in"/>
	<feMerge>
		<feMergeNode/>
		<feMergeNode in="SourceGraphic"/>
	</feMerge>
</filter>
		
<path xml:space="preserve" font-family="Roboto" font-size="79" font-weight="bold" style="stroke: none; stroke-width: 0; stroke-dasharray: none; stroke-linecap: butt; stroke-dashoffset: 0; stroke-linejoin: miter; stroke-miterlimit: 4; is-custom-font: none; font-file-url: none; fill: rgb(0,0,0); fill-rule: nonzero; opacity: 1; white-space: pre;" d="M-122.88 10.08L-122.88 10.08Q-122.88 6.80-125.19 5.05Q-127.50 3.29-133.52 1.34Q-139.54-0.60-143.05-2.49L-143.05-2.49Q-152.62-7.66-152.62-16.42L-152.62-16.42Q-152.62-20.97-150.05-24.54Q-147.49-28.11-142.68-30.11Q-137.88-32.12-131.90-32.12L-131.90-32.12Q-125.88-32.12-121.18-29.94Q-116.47-27.76-113.87-23.79Q-111.27-19.81-111.27-14.76L-111.27-14.76L-122.84-14.76Q-122.84-18.62-125.27-20.76Q-127.70-22.90-132.10-22.90L-132.10-22.90Q-136.34-22.90-138.69-21.11Q-141.04-19.31-141.04-16.38L-141.04-16.38Q-141.04-13.64-138.29-11.79Q-135.53-9.94-130.17-8.32L-130.17-8.32Q-120.29-5.35-115.78-0.95Q-111.27 3.45-111.27 10.00L-111.27 10.00Q-111.27 17.30-116.78 21.44Q-122.30 25.59-131.63 25.59L-131.63 25.59Q-138.11 25.59-143.44 23.22Q-148.76 20.84-151.56 16.72Q-154.35 12.59-154.35 7.15L-154.35 7.15L-142.74 7.15Q-142.74 16.45-131.63 16.45L-131.63 16.45Q-127.50 16.45-125.19 14.77Q-122.88 13.09-122.88 10.08ZM-86.81 16.60L-86.81 16.60Q-83.72 16.60-81.79 14.90Q-79.87 13.21-79.79 10.39L-79.79 10.39L-69.33 10.39Q-69.37 14.63-71.65 18.16Q-73.93 21.69-77.88 23.64Q-81.83 25.59-86.62 25.59L-86.62 25.59Q-95.57 25.59-100.73 19.90Q-105.90 14.21-105.90 4.18L-105.90 4.18L-105.90 3.45Q-105.90-6.20-100.77-11.94Q-95.64-17.69-86.69-17.69L-86.69-17.69Q-78.86-17.69-74.14-13.24Q-69.41-8.78-69.33-1.37L-69.33-1.37L-79.79-1.37Q-79.87-4.62-81.79-6.64Q-83.72-8.67-86.89-8.67L-86.89-8.67Q-90.78-8.67-92.77-5.83Q-94.76-2.99-94.76 3.37L-94.76 3.37L-94.76 4.53Q-94.76 10.97-92.79 13.78Q-90.82 16.60-86.81 16.60ZM-39.36-17.19L-39.52-6.47Q-41.79-6.78-43.53-6.78L-43.53-6.78Q-49.85-6.78-51.82-2.49L-51.82-2.49L-51.82 24.82L-62.97 24.82L-62.97-16.92L-52.44-16.92L-52.13-11.94Q-48.77-17.69-42.83-17.69L-42.83-17.69Q-40.98-17.69-39.36-17.19L-39.36-17.19ZM-37.28 4.06L-37.28 3.56Q-37.28-2.65-34.89-7.51Q-32.50-12.37-28.00-15.03Q-23.51-17.69-17.57-17.69L-17.57-17.69Q-9.12-17.69-3.78-12.52Q1.56-7.35 2.18 1.52L2.18 1.52L2.26 4.37Q2.26 13.98-3.10 19.78Q-8.46 25.59-17.49 25.59Q-26.52 25.59-31.90 19.80Q-37.28 14.02-37.28 4.06L-37.28 4.06ZM-26.13 4.37L-26.13 4.37Q-26.13 10.31-23.89 13.46Q-21.66 16.60-17.49 16.60L-17.49 16.60Q-13.44 16.60-11.16 13.50Q-8.89 10.39-8.89 3.56L-8.89 3.56Q-8.89-2.26-11.16-5.46Q-13.44-8.67-17.57-8.67L-17.57-8.67Q-21.66-8.67-23.89-5.48Q-26.13-2.30-26.13 4.37ZM20.89-34.43L20.89 24.82L9.70 24.82L9.70-34.43L20.89-34.43ZM41.84-34.43L41.84 24.82L30.65 24.82L30.65-34.43L41.84-34.43ZM62.78-16.92L62.78 24.82L51.60 24.82L51.60-16.92L62.78-16.92ZM50.94-27.72L50.94-27.72Q50.94-30.23 52.62-31.85Q54.30-33.47 57.19-33.47L57.19-33.47Q60.04-33.47 61.74-31.85Q63.44-30.23 63.44-27.72L63.44-27.72Q63.44-25.18 61.72-23.55Q60.00-21.93 57.19-21.93Q54.37-21.93 52.66-23.55Q50.94-25.18 50.94-27.72ZM71.73-16.92L82.22-16.92L82.57-12.10Q87.04-17.69 94.57-17.69L94.57-17.69Q101.20-17.69 104.44-13.80Q107.68-9.90 107.76-2.15L107.76-2.15L107.76 24.82L96.61 24.82L96.61-1.88Q96.61-5.43 95.07-7.03Q93.53-8.63 89.94-8.63L89.94-8.63Q85.23-8.63 82.88-4.62L82.88-4.62L82.88 24.82L71.73 24.82L71.73-16.92ZM114.59 4.10L114.59 3.64Q114.59-5.97 119.16-11.83Q123.73-17.69 131.48-17.69L131.48-17.69Q138.35-17.69 142.17-12.99L142.17-12.99L142.63-16.92L152.74-16.92L152.74 23.43Q152.74 28.91 150.25 32.96Q147.76 37.01 143.25 39.13Q138.73 41.25 132.68 41.25L132.68 41.25Q128.09 41.25 123.73 39.42Q119.37 37.59 117.13 34.69L117.13 34.69L122.07 27.90Q126.24 32.57 132.18 32.57L132.18 32.57Q136.61 32.57 139.08 30.20Q141.55 27.83 141.55 23.47L141.55 23.47L141.55 21.23Q137.69 25.59 131.41 25.59L131.41 25.59Q123.88 25.59 119.24 19.71Q114.59 13.82 114.59 4.10L114.59 4.10ZM125.73 4.45L125.73 4.45Q125.73 10.12 128.01 13.34Q130.29 16.56 134.26 16.56L134.26 16.56Q139.35 16.56 141.55 12.74L141.55 12.74L141.55-4.81Q139.31-8.63 134.34-8.63L134.34-8.63Q130.33-8.63 128.03-5.35Q125.73-2.07 125.73 4.45Z"/></g>
<g transform="matrix(0.21 0 0 0.21 1151.49 437.4777)" id="990695">
<path style="stroke: rgb(53,53,53); stroke-width: 1; stroke-dasharray: 5 5; stroke-linecap: butt; stroke-dashoffset: 0; stroke-linejoin: miter; stroke-miterlimit: 4; is-custom-font: none; font-file-url: none; fill: none; fill-rule: nonzero; opacity: 1;" vector-effect="non-scaling-stroke" transform=" translate(-719, -120.0586)" d="M 0 195 C 122.667 221 316 319 770 96.9996 C 1085.38 -57.2197 1349.33 10.333 1438 54.9997" stroke-linecap="round"/>
</g>
<g transform="matrix(0.21 0 0 0.21 577.49 214.4777)" id="405527">
<path style="stroke: rgb(53,53,53); stroke-width: 1; stroke-dasharray: 5 5; stroke-linecap: butt; stroke-dashoffset: 0; stroke-linejoin: miter; stroke-miterlimit: 4; is-custom-font: none; font-file-url: none; fill: none; fill-rule: nonzero; opacity: 1;" vector-effect="non-scaling-stroke" transform=" translate(-719, -120.0586)" d="M 0 195 C 122.667 221 316 319 770 96.9996 C 1085.38 -57.2197 1349.33 10.333 1438 54.9997" stroke-linecap="round"/>
</g>
</svg>